G04 #@! TF.GenerationSoftware,KiCad,Pcbnew,9.0.2*
G04 #@! TF.CreationDate,2025-06-29T19:30:18+02:00*
G04 #@! TF.ProjectId,conndom,636f6e6e-646f-46d2-9e6b-696361645f70,0.3*
G04 #@! TF.SameCoordinates,Original*
G04 #@! TF.FileFunction,Legend,Top*
G04 #@! TF.FilePolarity,Positive*
%FSLAX46Y46*%
G04 Gerber Fmt 4.6, Leading zero omitted, Abs format (unit mm)*
G04 Created by KiCad (PCBNEW 9.0.2) date 2025-06-29 19:30:18*
%MOMM*%
%LPD*%
G01*
G04 APERTURE LIST*
G04 Aperture macros list*
%AMRoundRect*
0 Rectangle with rounded corners*
0 $1 Rounding radius*
0 $2 $3 $4 $5 $6 $7 $8 $9 X,Y pos of 4 corners*
0 Add a 4 corners polygon primitive as box body*
4,1,4,$2,$3,$4,$5,$6,$7,$8,$9,$2,$3,0*
0 Add four circle primitives for the rounded corners*
1,1,$1+$1,$2,$3*
1,1,$1+$1,$4,$5*
1,1,$1+$1,$6,$7*
1,1,$1+$1,$8,$9*
0 Add four rect primitives between the rounded corners*
20,1,$1+$1,$2,$3,$4,$5,0*
20,1,$1+$1,$4,$5,$6,$7,0*
20,1,$1+$1,$6,$7,$8,$9,0*
20,1,$1+$1,$8,$9,$2,$3,0*%
G04 Aperture macros list end*
%ADD10C,0.150000*%
%ADD11C,0.120000*%
%ADD12C,0.127000*%
%ADD13C,0.400000*%
%ADD14C,0.100000*%
%ADD15C,0.200000*%
%ADD16RoundRect,0.250000X0.450000X-0.262500X0.450000X0.262500X-0.450000X0.262500X-0.450000X-0.262500X0*%
%ADD17RoundRect,0.250000X0.262500X0.450000X-0.262500X0.450000X-0.262500X-0.450000X0.262500X-0.450000X0*%
%ADD18RoundRect,0.102000X0.704000X-0.704000X0.704000X0.704000X-0.704000X0.704000X-0.704000X-0.704000X0*%
%ADD19C,1.612000*%
%ADD20C,3.520000*%
%ADD21C,1.700000*%
%ADD22C,2.000000*%
%ADD23RoundRect,0.102000X0.700000X-0.350000X0.700000X0.350000X-0.700000X0.350000X-0.700000X-0.350000X0*%
%ADD24RoundRect,0.102000X0.700000X-0.380000X0.700000X0.380000X-0.700000X0.380000X-0.700000X-0.380000X0*%
%ADD25RoundRect,0.102000X0.700000X-0.400000X0.700000X0.400000X-0.700000X0.400000X-0.700000X-0.400000X0*%
%ADD26O,1.804000X1.204000*%
%ADD27RoundRect,0.250000X0.250000X0.475000X-0.250000X0.475000X-0.250000X-0.475000X0.250000X-0.475000X0*%
%ADD28RoundRect,0.250000X-0.450000X0.262500X-0.450000X-0.262500X0.450000X-0.262500X0.450000X0.262500X0*%
%ADD29RoundRect,0.102000X-0.754000X0.754000X-0.754000X-0.754000X0.754000X-0.754000X0.754000X0.754000X0*%
%ADD30C,1.712000*%
%ADD31R,1.000000X1.500000*%
G04 APERTURE END LIST*
D10*
X176733333Y-82854819D02*
X176400000Y-82378628D01*
X176161905Y-82854819D02*
X176161905Y-81854819D01*
X176161905Y-81854819D02*
X176542857Y-81854819D01*
X176542857Y-81854819D02*
X176638095Y-81902438D01*
X176638095Y-81902438D02*
X176685714Y-81950057D01*
X176685714Y-81950057D02*
X176733333Y-82045295D01*
X176733333Y-82045295D02*
X176733333Y-82188152D01*
X176733333Y-82188152D02*
X176685714Y-82283390D01*
X176685714Y-82283390D02*
X176638095Y-82331009D01*
X176638095Y-82331009D02*
X176542857Y-82378628D01*
X176542857Y-82378628D02*
X176161905Y-82378628D01*
X177685714Y-82854819D02*
X177114286Y-82854819D01*
X177400000Y-82854819D02*
X177400000Y-81854819D01*
X177400000Y-81854819D02*
X177304762Y-81997676D01*
X177304762Y-81997676D02*
X177209524Y-82092914D01*
X177209524Y-82092914D02*
X177114286Y-82140533D01*
X158103333Y-82004819D02*
X157770000Y-81528628D01*
X157531905Y-82004819D02*
X157531905Y-81004819D01*
X157531905Y-81004819D02*
X157912857Y-81004819D01*
X157912857Y-81004819D02*
X158008095Y-81052438D01*
X158008095Y-81052438D02*
X158055714Y-81100057D01*
X158055714Y-81100057D02*
X158103333Y-81195295D01*
X158103333Y-81195295D02*
X158103333Y-81338152D01*
X158103333Y-81338152D02*
X158055714Y-81433390D01*
X158055714Y-81433390D02*
X158008095Y-81481009D01*
X158008095Y-81481009D02*
X157912857Y-81528628D01*
X157912857Y-81528628D02*
X157531905Y-81528628D01*
X158960476Y-81338152D02*
X158960476Y-82004819D01*
X158722381Y-80957200D02*
X158484286Y-81671485D01*
X158484286Y-81671485D02*
X159103333Y-81671485D01*
X160916170Y-108504019D02*
X160916170Y-109219368D01*
X160916170Y-109219368D02*
X160868481Y-109362438D01*
X160868481Y-109362438D02*
X160773101Y-109457818D01*
X160773101Y-109457818D02*
X160630031Y-109505507D01*
X160630031Y-109505507D02*
X160534651Y-109505507D01*
X161345379Y-108599399D02*
X161393069Y-108551709D01*
X161393069Y-108551709D02*
X161488449Y-108504019D01*
X161488449Y-108504019D02*
X161726898Y-108504019D01*
X161726898Y-108504019D02*
X161822278Y-108551709D01*
X161822278Y-108551709D02*
X161869968Y-108599399D01*
X161869968Y-108599399D02*
X161917658Y-108694779D01*
X161917658Y-108694779D02*
X161917658Y-108790159D01*
X161917658Y-108790159D02*
X161869968Y-108933229D01*
X161869968Y-108933229D02*
X161297689Y-109505507D01*
X161297689Y-109505507D02*
X161917658Y-109505507D01*
X182266666Y-80654819D02*
X182266666Y-81369104D01*
X182266666Y-81369104D02*
X182219047Y-81511961D01*
X182219047Y-81511961D02*
X182123809Y-81607200D01*
X182123809Y-81607200D02*
X181980952Y-81654819D01*
X181980952Y-81654819D02*
X181885714Y-81654819D01*
X183266666Y-81654819D02*
X182695238Y-81654819D01*
X182980952Y-81654819D02*
X182980952Y-80654819D01*
X182980952Y-80654819D02*
X182885714Y-80797676D01*
X182885714Y-80797676D02*
X182790476Y-80892914D01*
X182790476Y-80892914D02*
X182695238Y-80940533D01*
X170733333Y-92359580D02*
X170685714Y-92407200D01*
X170685714Y-92407200D02*
X170542857Y-92454819D01*
X170542857Y-92454819D02*
X170447619Y-92454819D01*
X170447619Y-92454819D02*
X170304762Y-92407200D01*
X170304762Y-92407200D02*
X170209524Y-92311961D01*
X170209524Y-92311961D02*
X170161905Y-92216723D01*
X170161905Y-92216723D02*
X170114286Y-92026247D01*
X170114286Y-92026247D02*
X170114286Y-91883390D01*
X170114286Y-91883390D02*
X170161905Y-91692914D01*
X170161905Y-91692914D02*
X170209524Y-91597676D01*
X170209524Y-91597676D02*
X170304762Y-91502438D01*
X170304762Y-91502438D02*
X170447619Y-91454819D01*
X170447619Y-91454819D02*
X170542857Y-91454819D01*
X170542857Y-91454819D02*
X170685714Y-91502438D01*
X170685714Y-91502438D02*
X170733333Y-91550057D01*
X171685714Y-92454819D02*
X171114286Y-92454819D01*
X171400000Y-92454819D02*
X171400000Y-91454819D01*
X171400000Y-91454819D02*
X171304762Y-91597676D01*
X171304762Y-91597676D02*
X171209524Y-91692914D01*
X171209524Y-91692914D02*
X171114286Y-91740533D01*
X176733333Y-91754819D02*
X176400000Y-91278628D01*
X176161905Y-91754819D02*
X176161905Y-90754819D01*
X176161905Y-90754819D02*
X176542857Y-90754819D01*
X176542857Y-90754819D02*
X176638095Y-90802438D01*
X176638095Y-90802438D02*
X176685714Y-90850057D01*
X176685714Y-90850057D02*
X176733333Y-90945295D01*
X176733333Y-90945295D02*
X176733333Y-91088152D01*
X176733333Y-91088152D02*
X176685714Y-91183390D01*
X176685714Y-91183390D02*
X176638095Y-91231009D01*
X176638095Y-91231009D02*
X176542857Y-91278628D01*
X176542857Y-91278628D02*
X176161905Y-91278628D01*
X177114286Y-90850057D02*
X177161905Y-90802438D01*
X177161905Y-90802438D02*
X177257143Y-90754819D01*
X177257143Y-90754819D02*
X177495238Y-90754819D01*
X177495238Y-90754819D02*
X177590476Y-90802438D01*
X177590476Y-90802438D02*
X177638095Y-90850057D01*
X177638095Y-90850057D02*
X177685714Y-90945295D01*
X177685714Y-90945295D02*
X177685714Y-91040533D01*
X177685714Y-91040533D02*
X177638095Y-91183390D01*
X177638095Y-91183390D02*
X177066667Y-91754819D01*
X177066667Y-91754819D02*
X177685714Y-91754819D01*
X160838095Y-92507200D02*
X160980952Y-92554819D01*
X160980952Y-92554819D02*
X161219047Y-92554819D01*
X161219047Y-92554819D02*
X161314285Y-92507200D01*
X161314285Y-92507200D02*
X161361904Y-92459580D01*
X161361904Y-92459580D02*
X161409523Y-92364342D01*
X161409523Y-92364342D02*
X161409523Y-92269104D01*
X161409523Y-92269104D02*
X161361904Y-92173866D01*
X161361904Y-92173866D02*
X161314285Y-92126247D01*
X161314285Y-92126247D02*
X161219047Y-92078628D01*
X161219047Y-92078628D02*
X161028571Y-92031009D01*
X161028571Y-92031009D02*
X160933333Y-91983390D01*
X160933333Y-91983390D02*
X160885714Y-91935771D01*
X160885714Y-91935771D02*
X160838095Y-91840533D01*
X160838095Y-91840533D02*
X160838095Y-91745295D01*
X160838095Y-91745295D02*
X160885714Y-91650057D01*
X160885714Y-91650057D02*
X160933333Y-91602438D01*
X160933333Y-91602438D02*
X161028571Y-91554819D01*
X161028571Y-91554819D02*
X161266666Y-91554819D01*
X161266666Y-91554819D02*
X161409523Y-91602438D01*
X162361904Y-92554819D02*
X161790476Y-92554819D01*
X162076190Y-92554819D02*
X162076190Y-91554819D01*
X162076190Y-91554819D02*
X161980952Y-91697676D01*
X161980952Y-91697676D02*
X161885714Y-91792914D01*
X161885714Y-91792914D02*
X161790476Y-91840533D01*
X166583333Y-90204819D02*
X166250000Y-89728628D01*
X166011905Y-90204819D02*
X166011905Y-89204819D01*
X166011905Y-89204819D02*
X166392857Y-89204819D01*
X166392857Y-89204819D02*
X166488095Y-89252438D01*
X166488095Y-89252438D02*
X166535714Y-89300057D01*
X166535714Y-89300057D02*
X166583333Y-89395295D01*
X166583333Y-89395295D02*
X166583333Y-89538152D01*
X166583333Y-89538152D02*
X166535714Y-89633390D01*
X166535714Y-89633390D02*
X166488095Y-89681009D01*
X166488095Y-89681009D02*
X166392857Y-89728628D01*
X166392857Y-89728628D02*
X166011905Y-89728628D01*
X166916667Y-89204819D02*
X167535714Y-89204819D01*
X167535714Y-89204819D02*
X167202381Y-89585771D01*
X167202381Y-89585771D02*
X167345238Y-89585771D01*
X167345238Y-89585771D02*
X167440476Y-89633390D01*
X167440476Y-89633390D02*
X167488095Y-89681009D01*
X167488095Y-89681009D02*
X167535714Y-89776247D01*
X167535714Y-89776247D02*
X167535714Y-90014342D01*
X167535714Y-90014342D02*
X167488095Y-90109580D01*
X167488095Y-90109580D02*
X167440476Y-90157200D01*
X167440476Y-90157200D02*
X167345238Y-90204819D01*
X167345238Y-90204819D02*
X167059524Y-90204819D01*
X167059524Y-90204819D02*
X166964286Y-90157200D01*
X166964286Y-90157200D02*
X166916667Y-90109580D01*
X171006405Y-82704819D02*
X171006405Y-81704819D01*
X171006405Y-81704819D02*
X171244500Y-81704819D01*
X171244500Y-81704819D02*
X171387357Y-81752438D01*
X171387357Y-81752438D02*
X171482595Y-81847676D01*
X171482595Y-81847676D02*
X171530214Y-81942914D01*
X171530214Y-81942914D02*
X171577833Y-82133390D01*
X171577833Y-82133390D02*
X171577833Y-82276247D01*
X171577833Y-82276247D02*
X171530214Y-82466723D01*
X171530214Y-82466723D02*
X171482595Y-82561961D01*
X171482595Y-82561961D02*
X171387357Y-82657200D01*
X171387357Y-82657200D02*
X171244500Y-82704819D01*
X171244500Y-82704819D02*
X171006405Y-82704819D01*
X172530214Y-82704819D02*
X171958786Y-82704819D01*
X172244500Y-82704819D02*
X172244500Y-81704819D01*
X172244500Y-81704819D02*
X172149262Y-81847676D01*
X172149262Y-81847676D02*
X172054024Y-81942914D01*
X172054024Y-81942914D02*
X171958786Y-81990533D01*
D11*
X176165000Y-85339564D02*
X176165000Y-84885436D01*
X177635000Y-85339564D02*
X177635000Y-84885436D01*
X161527064Y-80815000D02*
X161072936Y-80815000D01*
X161527064Y-82285000D02*
X161072936Y-82285000D01*
D12*
X158170000Y-93650000D02*
X172770000Y-93650000D01*
X158170000Y-107950000D02*
X158170000Y-93650000D01*
X172770000Y-93650000D02*
X172770000Y-107950000D01*
X172770000Y-107950000D02*
X158170000Y-107950000D01*
D13*
X159800000Y-108800000D02*
G75*
G02*
X159400000Y-108800000I-200000J0D01*
G01*
X159400000Y-108800000D02*
G75*
G02*
X159800000Y-108800000I200000J0D01*
G01*
D14*
X135393398Y-108080000D02*
G75*
G02*
X133506602Y-108080000I-943398J0D01*
G01*
X133506602Y-108080000D02*
G75*
G02*
X135393398Y-108080000I943398J0D01*
G01*
X149573398Y-84770000D02*
G75*
G02*
X147686602Y-84770000I-943398J0D01*
G01*
X147686602Y-84770000D02*
G75*
G02*
X149573398Y-84770000I943398J0D01*
G01*
X109550000Y-87560000D02*
G75*
G02*
X107350000Y-87560000I-1100000J0D01*
G01*
X107350000Y-87560000D02*
G75*
G02*
X109550000Y-87560000I1100000J0D01*
G01*
D12*
X181520000Y-82530000D02*
X183080000Y-82530000D01*
X181520000Y-91470000D02*
X183080000Y-91470000D01*
X185320000Y-91470000D02*
X186800000Y-91470000D01*
X186800000Y-82530000D02*
X185320000Y-82530000D01*
X186800000Y-91470000D02*
X186800000Y-82530000D01*
D14*
X139413398Y-82230000D02*
G75*
G02*
X137526602Y-82230000I-943398J0D01*
G01*
X137526602Y-82230000D02*
G75*
G02*
X139413398Y-82230000I943398J0D01*
G01*
X147200000Y-106310000D02*
G75*
G02*
X145000000Y-106310000I-1100000J0D01*
G01*
X145000000Y-106310000D02*
G75*
G02*
X147200000Y-106310000I1100000J0D01*
G01*
X149573398Y-82230000D02*
G75*
G02*
X147686602Y-82230000I-943398J0D01*
G01*
X147686602Y-82230000D02*
G75*
G02*
X149573398Y-82230000I943398J0D01*
G01*
D11*
X168261252Y-91265000D02*
X167738748Y-91265000D01*
X168261252Y-92735000D02*
X167738748Y-92735000D01*
D14*
X146890000Y-103700000D02*
G75*
G02*
X144690000Y-103700000I-1100000J0D01*
G01*
X144690000Y-103700000D02*
G75*
G02*
X146890000Y-103700000I1100000J0D01*
G01*
D11*
X176165000Y-88660436D02*
X176165000Y-89114564D01*
X177635000Y-88660436D02*
X177635000Y-89114564D01*
D12*
X158350000Y-84824000D02*
X158350000Y-89176000D01*
X162526000Y-84000000D02*
X160174000Y-84000000D01*
X162526000Y-90000000D02*
X160174000Y-90000000D01*
X164350000Y-84824000D02*
X164350000Y-89176000D01*
D15*
X165454000Y-83750000D02*
G75*
G02*
X165254000Y-83750000I-100000J0D01*
G01*
X165254000Y-83750000D02*
G75*
G02*
X165454000Y-83750000I100000J0D01*
G01*
D14*
X133263398Y-108080000D02*
G75*
G02*
X131376602Y-108080000I-943398J0D01*
G01*
X131376602Y-108080000D02*
G75*
G02*
X133263398Y-108080000I943398J0D01*
G01*
D11*
X166015000Y-86810436D02*
X166015000Y-87264564D01*
X167485000Y-86810436D02*
X167485000Y-87264564D01*
X168994500Y-90500000D02*
X168994500Y-83500000D01*
X168994500Y-90500000D02*
X174494500Y-90500000D01*
X172644500Y-84300000D02*
X170844500Y-84300000D01*
X172644500Y-89700000D02*
X170844500Y-89700000D01*
X174044500Y-83500000D02*
X168994500Y-83500000D01*
X174494500Y-83950000D02*
X174044500Y-83500000D01*
X174494500Y-90500000D02*
X174494500Y-83950000D01*
%LPC*%
D16*
X176900000Y-86025000D03*
X176900000Y-84200000D03*
D17*
X162212500Y-81550000D03*
X160387500Y-81550000D03*
D18*
X159600000Y-104300000D03*
D19*
X159600000Y-101800000D03*
X159600000Y-99800000D03*
X159600000Y-97300000D03*
D20*
X162270000Y-105800000D03*
X162270000Y-95800000D03*
D21*
X134450000Y-108080000D03*
X148630000Y-84770000D03*
D22*
X108450000Y-87560000D03*
D23*
X180110000Y-87500000D03*
D24*
X180110000Y-85480000D03*
D25*
X180110000Y-84250000D03*
D23*
X180110000Y-86500000D03*
D24*
X180110000Y-88520000D03*
D25*
X180110000Y-89750000D03*
D26*
X180400000Y-91320000D03*
X184200000Y-91320000D03*
X180400000Y-82680000D03*
X184200000Y-82680000D03*
D21*
X138470000Y-82230000D03*
D22*
X146100000Y-106310000D03*
D21*
X148630000Y-82230000D03*
D27*
X168950000Y-92000000D03*
X167050000Y-92000000D03*
D22*
X145790000Y-103700000D03*
D28*
X176900000Y-87975000D03*
X176900000Y-89800000D03*
D29*
X163600000Y-83750000D03*
D30*
X163600000Y-90250000D03*
X159100000Y-83750000D03*
X159100000Y-90250000D03*
D21*
X132320000Y-108080000D03*
D28*
X166750000Y-86125000D03*
X166750000Y-87950000D03*
D31*
X173344500Y-84550000D03*
X170144500Y-84550000D03*
X170144500Y-89450000D03*
X173344500Y-89450000D03*
%LPD*%
M02*
