G04 #@! TF.GenerationSoftware,KiCad,Pcbnew,9.0.2*
G04 #@! TF.CreationDate,2025-06-29T19:30:18+02:00*
G04 #@! TF.ProjectId,conndom,636f6e6e-646f-46d2-9e6b-696361645f70,0.3*
G04 #@! TF.SameCoordinates,Original*
G04 #@! TF.FileFunction,Profile,NP*
%FSLAX46Y46*%
G04 Gerber Fmt 4.6, Leading zero omitted, Abs format (unit mm)*
G04 Created by KiCad (PCBNEW 9.0.2) date 2025-06-29 19:30:18*
%MOMM*%
%LPD*%
G01*
G04 APERTURE LIST*
G04 #@! TA.AperFunction,Profile*
%ADD10C,0.050000*%
G04 #@! TD*
G04 APERTURE END LIST*
D10*
X135072957Y-89939656D02*
X135072957Y-95100000D01*
X186000000Y-91500000D02*
G75*
G02*
X185000000Y-92500000I-1000000J0D01*
G01*
X104610000Y-85980000D02*
G75*
G02*
X105310000Y-86680000I0J-700000D01*
G01*
X137470000Y-80000000D02*
X136610000Y-80000000D01*
X105310000Y-86680000D02*
X105310000Y-86860000D01*
X130150000Y-108980000D02*
G75*
G02*
X131050000Y-108080000I900000J0D01*
G01*
X134780064Y-95807107D02*
X126847107Y-103733227D01*
X137470000Y-80000000D02*
G75*
G02*
X138470000Y-81000000I0J-1000000D01*
G01*
X145790000Y-103700000D02*
X146100000Y-106310000D01*
X173500027Y-93507158D02*
X173500000Y-109000000D01*
X95000000Y-110000000D02*
X129250000Y-110000000D01*
X157710000Y-80000000D02*
X185000000Y-80000000D01*
X111560000Y-86680000D02*
G75*
G02*
X112260000Y-85980000I700000J0D01*
G01*
X131050000Y-108080000D02*
X135950000Y-108080000D01*
X106010000Y-87560000D02*
G75*
G02*
X105310000Y-86860000I0J700000D01*
G01*
X110860000Y-87560000D02*
X106010000Y-87560000D01*
X173500000Y-109000000D02*
G75*
G02*
X172500000Y-110000000I-1000000J0D01*
G01*
X139470000Y-86840000D02*
G75*
G02*
X138470000Y-85840000I0J1000000D01*
G01*
X137950000Y-101289951D02*
X144600000Y-101281958D01*
X130150000Y-108980000D02*
X130150000Y-109100000D01*
X148630000Y-85840000D02*
G75*
G02*
X147630000Y-86840000I-1000000J0D01*
G01*
X148630000Y-81000000D02*
X148630000Y-85840000D01*
X136950000Y-102280050D02*
G75*
G02*
X137950000Y-101289950I1000000J-9950D01*
G01*
X126847107Y-103733227D02*
G75*
G02*
X126140000Y-104026114I-707107J707127D01*
G01*
X111560000Y-86860000D02*
X111560000Y-86680000D01*
X104610000Y-85980000D02*
X98970000Y-85980000D01*
X186000000Y-81000000D02*
X186000000Y-91500000D01*
X131647107Y-86272893D02*
X134907272Y-89533058D01*
X97970000Y-86980000D02*
X97970000Y-103020000D01*
X134907272Y-89533058D02*
G75*
G02*
X135072995Y-89933058I-399972J-400042D01*
G01*
X138470000Y-81000000D02*
X138470000Y-85840000D01*
X185000000Y-80000000D02*
G75*
G02*
X186000000Y-81000000I0J-1000000D01*
G01*
X112260000Y-85980000D02*
X130940000Y-85980000D01*
X130940000Y-85980000D02*
G75*
G02*
X131647107Y-86272893I0J-1000000D01*
G01*
X185000000Y-92500000D02*
X174500000Y-92500000D01*
X136950000Y-107080000D02*
G75*
G02*
X135950000Y-108080000I-1000000J0D01*
G01*
X98970000Y-104020000D02*
G75*
G02*
X97970000Y-103020000I0J1000000D01*
G01*
X157710000Y-80000000D02*
X149630000Y-80000000D01*
X135072957Y-95100000D02*
G75*
G02*
X134780055Y-95807098I-999957J0D01*
G01*
X136950000Y-107080000D02*
X136950001Y-102280000D01*
X146100000Y-106310000D02*
X146440000Y-109095295D01*
X97970000Y-86980000D02*
G75*
G02*
X98970000Y-85980000I1000000J0D01*
G01*
X136610000Y-80000000D02*
X95000000Y-80000000D01*
X130150000Y-109100000D02*
G75*
G02*
X129250000Y-110000000I-900000J0D01*
G01*
X144600000Y-101281958D02*
G75*
G02*
X145603015Y-102125727I0J-1018042D01*
G01*
X147630000Y-86840000D02*
X139470000Y-86840000D01*
X148630000Y-81000000D02*
G75*
G02*
X149630000Y-80000000I1000000J0D01*
G01*
X98970000Y-104020000D02*
X126140000Y-104026120D01*
X145790000Y-103700000D02*
X145603015Y-102125727D01*
X173500026Y-93507158D02*
G75*
G02*
X174500000Y-92500000I999974J7158D01*
G01*
X147440000Y-109999837D02*
G75*
G02*
X146439956Y-109094853I0J1005037D01*
G01*
X147440000Y-109999837D02*
X172500000Y-110000000D01*
X111560000Y-86860000D02*
G75*
G02*
X110860000Y-87560000I-700000J0D01*
G01*
X92000000Y-107000000D02*
X92000000Y-83000000D01*
X92000000Y-83000000D02*
G75*
G02*
X95000000Y-80000000I3000001J-1D01*
G01*
X95000000Y-110000000D02*
G75*
G02*
X92000000Y-107000000I1J3000001D01*
G01*
X96850000Y-83500000D02*
G75*
G02*
X94150000Y-83500000I-1350000J0D01*
G01*
X94150000Y-83500000D02*
G75*
G02*
X96850000Y-83500000I1350000J0D01*
G01*
X96850000Y-106500000D02*
G75*
G02*
X94150000Y-106500000I-1350000J0D01*
G01*
X94150000Y-106500000D02*
G75*
G02*
X96850000Y-106500000I1350000J0D01*
G01*
X154850000Y-83500000D02*
G75*
G02*
X152150000Y-83500000I-1350000J0D01*
G01*
X152150000Y-83500000D02*
G75*
G02*
X154850000Y-83500000I1350000J0D01*
G01*
X154850000Y-106500000D02*
G75*
G02*
X152150000Y-106500000I-1350000J0D01*
G01*
X152150000Y-106500000D02*
G75*
G02*
X154850000Y-106500000I1350000J0D01*
G01*
M02*
