G04 #@! TF.GenerationSoftware,KiCad,Pcbnew,9.0.2*
G04 #@! TF.CreationDate,2025-06-29T19:30:18+02:00*
G04 #@! TF.ProjectId,conndom,636f6e6e-646f-46d2-9e6b-696361645f70,0.3*
G04 #@! TF.SameCoordinates,Original*
G04 #@! TF.FileFunction,Copper,L2,Bot*
G04 #@! TF.FilePolarity,Positive*
%FSLAX46Y46*%
G04 Gerber Fmt 4.6, Leading zero omitted, Abs format (unit mm)*
G04 Created by KiCad (PCBNEW 9.0.2) date 2025-06-29 19:30:18*
%MOMM*%
%LPD*%
G01*
G04 APERTURE LIST*
G04 #@! TA.AperFunction,ComponentPad*
%ADD10R,1.408000X1.408000*%
G04 #@! TD*
G04 #@! TA.AperFunction,ComponentPad*
%ADD11C,1.408000*%
G04 #@! TD*
G04 #@! TA.AperFunction,ComponentPad*
%ADD12C,3.316000*%
G04 #@! TD*
G04 #@! TA.AperFunction,CastellatedPad*
%ADD13C,1.700000*%
G04 #@! TD*
G04 #@! TA.AperFunction,CastellatedPad*
%ADD14C,2.000000*%
G04 #@! TD*
G04 #@! TA.AperFunction,ComponentPad*
%ADD15O,1.600000X1.000000*%
G04 #@! TD*
G04 #@! TA.AperFunction,ComponentPad*
%ADD16R,1.508000X1.508000*%
G04 #@! TD*
G04 #@! TA.AperFunction,ComponentPad*
%ADD17C,1.508000*%
G04 #@! TD*
G04 #@! TA.AperFunction,ViaPad*
%ADD18C,1.000000*%
G04 #@! TD*
G04 #@! TA.AperFunction,ViaPad*
%ADD19C,0.700000*%
G04 #@! TD*
G04 #@! TA.AperFunction,Conductor*
%ADD20C,1.000000*%
G04 #@! TD*
G04 #@! TA.AperFunction,Conductor*
%ADD21C,0.600000*%
G04 #@! TD*
G04 #@! TA.AperFunction,Conductor*
%ADD22C,0.400000*%
G04 #@! TD*
G04 APERTURE END LIST*
D10*
X159600000Y-104300000D03*
D11*
X159600000Y-101800000D03*
X159600000Y-99800000D03*
X159600000Y-97300000D03*
D12*
X162270000Y-105800000D03*
X162270000Y-95800000D03*
D13*
X134450000Y-108080000D03*
X148630000Y-84770000D03*
D14*
X108450000Y-87560000D03*
D15*
X180400000Y-91320000D03*
X184200000Y-91320000D03*
X180400000Y-82680000D03*
X184200000Y-82680000D03*
D13*
X138470000Y-82230000D03*
D14*
X146100000Y-106310000D03*
D13*
X148630000Y-82230000D03*
D14*
X145790000Y-103700000D03*
D16*
X163600000Y-83750000D03*
D17*
X163600000Y-90250000D03*
X159100000Y-83750000D03*
X159100000Y-90250000D03*
D13*
X132320000Y-108080000D03*
D18*
X163640000Y-81540000D03*
X157490000Y-86220000D03*
X178500000Y-88600000D03*
X178500000Y-85400000D03*
D19*
X157300000Y-101070000D03*
X166760000Y-84270000D03*
D20*
X159600000Y-97300000D02*
X160770000Y-97300000D01*
D21*
X184200000Y-91320000D02*
X180400000Y-91320000D01*
X180400000Y-82680000D02*
X184200000Y-82680000D01*
X157150000Y-87650000D02*
X157510000Y-87650000D01*
X161340000Y-84340000D02*
X161340000Y-83510000D01*
X153530000Y-87650000D02*
X157150000Y-87650000D01*
D20*
X161470000Y-106600000D02*
X162270000Y-105800000D01*
D21*
X158030000Y-87650000D02*
X161090000Y-84590000D01*
X151510000Y-87650000D02*
X153530000Y-87650000D01*
D20*
X160770000Y-97300000D02*
X162270000Y-95800000D01*
X146100000Y-106310000D02*
X149290000Y-106310000D01*
D21*
X148630000Y-84770000D02*
X151510000Y-87650000D01*
X161090000Y-84590000D02*
X161340000Y-84340000D01*
X157490000Y-86220000D02*
X157490000Y-87630000D01*
D20*
X158500000Y-106600000D02*
X161470000Y-106600000D01*
D21*
X157490000Y-87630000D02*
X157510000Y-87650000D01*
D20*
X149290000Y-106310000D02*
X152400000Y-103200000D01*
D21*
X162180000Y-81540000D02*
X163640000Y-81540000D01*
X161340000Y-82380000D02*
X162180000Y-81540000D01*
X157510000Y-87650000D02*
X158030000Y-87650000D01*
D20*
X152400000Y-103200000D02*
X155100000Y-103200000D01*
X155100000Y-103200000D02*
X158500000Y-106600000D01*
D21*
X161340000Y-83510000D02*
X161340000Y-82380000D01*
X139980000Y-92260000D02*
X132220000Y-84500000D01*
X111510000Y-84500000D02*
X108450000Y-87560000D01*
X132220000Y-84500000D02*
X111510000Y-84500000D01*
X161590000Y-92260000D02*
X139980000Y-92260000D01*
X163600000Y-90250000D02*
X161590000Y-92260000D01*
D20*
X159600000Y-104300000D02*
X158500000Y-104300000D01*
X159600000Y-104300000D02*
X175300000Y-88600000D01*
X178500000Y-88600000D02*
X178500000Y-85400000D01*
X151760999Y-101639001D02*
X149700000Y-103700000D01*
X175300000Y-88600000D02*
X178500000Y-88600000D01*
X149700000Y-103700000D02*
X145790000Y-103700000D01*
X155839001Y-101639001D02*
X151760999Y-101639001D01*
X158500000Y-104300000D02*
X155839001Y-101639001D01*
D22*
X150160000Y-101270000D02*
X151220000Y-100210000D01*
X156440000Y-100210000D02*
X157300000Y-101070000D01*
X136270000Y-100210000D02*
X145500000Y-100210000D01*
X145500000Y-100210000D02*
X146560000Y-101270000D01*
X134450000Y-108080000D02*
X134450000Y-102030000D01*
X134450000Y-102030000D02*
X136270000Y-100210000D01*
X146560000Y-101270000D02*
X150160000Y-101270000D01*
X151220000Y-100210000D02*
X156440000Y-100210000D01*
X132320000Y-102520000D02*
X135640000Y-99200000D01*
X159390000Y-101800000D02*
X159600000Y-101800000D01*
X135640000Y-99200000D02*
X156790000Y-99200000D01*
X156790000Y-99200000D02*
X159390000Y-101800000D01*
X132320000Y-108080000D02*
X132320000Y-102520000D01*
X154740000Y-86550000D02*
X157540000Y-83750000D01*
X152950000Y-86550000D02*
X154740000Y-86550000D01*
X148630000Y-82230000D02*
X152950000Y-86550000D01*
X157540000Y-83750000D02*
X159100000Y-83750000D01*
X158990000Y-88630000D02*
X139300000Y-88630000D01*
X139300000Y-88630000D02*
X137260000Y-86590000D01*
X166760000Y-84270000D02*
X165140000Y-85890000D01*
X137260000Y-86590000D02*
X137260000Y-83440000D01*
X165140000Y-85890000D02*
X161730000Y-85890000D01*
X137260000Y-83440000D02*
X138470000Y-82230000D01*
X161730000Y-85890000D02*
X158990000Y-88630000D01*
M02*
