G04 #@! TF.GenerationSoftware,KiCad,Pcbnew,9.0.2*
G04 #@! TF.CreationDate,2025-06-21T10:43:41+02:00*
G04 #@! TF.ProjectId,conndom,636f6e6e-646f-46d2-9e6b-696361645f70,0.2*
G04 #@! TF.SameCoordinates,Original*
G04 #@! TF.FileFunction,Soldermask,Top*
G04 #@! TF.FilePolarity,Negative*
%FSLAX46Y46*%
G04 Gerber Fmt 4.6, Leading zero omitted, Abs format (unit mm)*
G04 Created by KiCad (PCBNEW 9.0.2) date 2025-06-21 10:43:41*
%MOMM*%
%LPD*%
G01*
G04 APERTURE LIST*
G04 Aperture macros list*
%AMRoundRect*
0 Rectangle with rounded corners*
0 $1 Rounding radius*
0 $2 $3 $4 $5 $6 $7 $8 $9 X,Y pos of 4 corners*
0 Add a 4 corners polygon primitive as box body*
4,1,4,$2,$3,$4,$5,$6,$7,$8,$9,$2,$3,0*
0 Add four circle primitives for the rounded corners*
1,1,$1+$1,$2,$3*
1,1,$1+$1,$4,$5*
1,1,$1+$1,$6,$7*
1,1,$1+$1,$8,$9*
0 Add four rect primitives between the rounded corners*
20,1,$1+$1,$2,$3,$4,$5,0*
20,1,$1+$1,$4,$5,$6,$7,0*
20,1,$1+$1,$6,$7,$8,$9,0*
20,1,$1+$1,$8,$9,$2,$3,0*%
G04 Aperture macros list end*
%ADD10RoundRect,0.250000X0.450000X-0.262500X0.450000X0.262500X-0.450000X0.262500X-0.450000X-0.262500X0*%
%ADD11RoundRect,0.250000X0.262500X0.450000X-0.262500X0.450000X-0.262500X-0.450000X0.262500X-0.450000X0*%
%ADD12RoundRect,0.102000X0.704000X-0.704000X0.704000X0.704000X-0.704000X0.704000X-0.704000X-0.704000X0*%
%ADD13C,1.612000*%
%ADD14C,3.520000*%
%ADD15C,1.700000*%
%ADD16C,2.000000*%
%ADD17RoundRect,0.102000X0.700000X-0.350000X0.700000X0.350000X-0.700000X0.350000X-0.700000X-0.350000X0*%
%ADD18RoundRect,0.102000X0.700000X-0.380000X0.700000X0.380000X-0.700000X0.380000X-0.700000X-0.380000X0*%
%ADD19RoundRect,0.102000X0.700000X-0.400000X0.700000X0.400000X-0.700000X0.400000X-0.700000X-0.400000X0*%
%ADD20O,1.804000X1.204000*%
%ADD21RoundRect,0.250000X0.250000X0.475000X-0.250000X0.475000X-0.250000X-0.475000X0.250000X-0.475000X0*%
%ADD22RoundRect,0.250000X-0.450000X0.262500X-0.450000X-0.262500X0.450000X-0.262500X0.450000X0.262500X0*%
%ADD23RoundRect,0.102000X-0.754000X0.754000X-0.754000X-0.754000X0.754000X-0.754000X0.754000X0.754000X0*%
%ADD24C,1.712000*%
%ADD25R,1.000000X1.500000*%
G04 APERTURE END LIST*
D10*
X176900000Y-86025000D03*
X176900000Y-84200000D03*
D11*
X162212500Y-81550000D03*
X160387500Y-81550000D03*
D12*
X159600000Y-104300000D03*
D13*
X159600000Y-101800000D03*
X159600000Y-99800000D03*
X159600000Y-97300000D03*
D14*
X162270000Y-105800000D03*
X162270000Y-95800000D03*
D15*
X134450000Y-108080000D03*
X148630000Y-84770000D03*
D16*
X108450000Y-87560000D03*
D17*
X180110000Y-87500000D03*
D18*
X180110000Y-85480000D03*
D19*
X180110000Y-84250000D03*
D17*
X180110000Y-86500000D03*
D18*
X180110000Y-88520000D03*
D19*
X180110000Y-89750000D03*
D20*
X180400000Y-91320000D03*
X184200000Y-91320000D03*
X180400000Y-82680000D03*
X184200000Y-82680000D03*
D15*
X138470000Y-82230000D03*
D16*
X146100000Y-106310000D03*
D15*
X148630000Y-82230000D03*
D21*
X172650000Y-91900000D03*
X170750000Y-91900000D03*
D16*
X145790000Y-103700000D03*
D22*
X176900000Y-87975000D03*
X176900000Y-89800000D03*
D23*
X163600000Y-83750000D03*
D24*
X163600000Y-90250000D03*
X159100000Y-83750000D03*
X159100000Y-90250000D03*
D15*
X132320000Y-108080000D03*
D22*
X166750000Y-86125000D03*
X166750000Y-87950000D03*
D25*
X173344500Y-84550000D03*
X170144500Y-84550000D03*
X170144500Y-89450000D03*
X173344500Y-89450000D03*
M02*
