G04 #@! TF.GenerationSoftware,KiCad,Pcbnew,9.0.2*
G04 #@! TF.CreationDate,2025-06-21T10:43:41+02:00*
G04 #@! TF.ProjectId,conndom,636f6e6e-646f-46d2-9e6b-696361645f70,0.2*
G04 #@! TF.SameCoordinates,Original*
G04 #@! TF.FileFunction,Legend,Top*
G04 #@! TF.FilePolarity,Positive*
%FSLAX46Y46*%
G04 Gerber Fmt 4.6, Leading zero omitted, Abs format (unit mm)*
G04 Created by KiCad (PCBNEW 9.0.2) date 2025-06-21 10:43:41*
%MOMM*%
%LPD*%
G01*
G04 APERTURE LIST*
G04 Aperture macros list*
%AMRoundRect*
0 Rectangle with rounded corners*
0 $1 Rounding radius*
0 $2 $3 $4 $5 $6 $7 $8 $9 X,Y pos of 4 corners*
0 Add a 4 corners polygon primitive as box body*
4,1,4,$2,$3,$4,$5,$6,$7,$8,$9,$2,$3,0*
0 Add four circle primitives for the rounded corners*
1,1,$1+$1,$2,$3*
1,1,$1+$1,$4,$5*
1,1,$1+$1,$6,$7*
1,1,$1+$1,$8,$9*
0 Add four rect primitives between the rounded corners*
20,1,$1+$1,$2,$3,$4,$5,0*
20,1,$1+$1,$4,$5,$6,$7,0*
20,1,$1+$1,$6,$7,$8,$9,0*
20,1,$1+$1,$8,$9,$2,$3,0*%
G04 Aperture macros list end*
%ADD10C,0.100000*%
%ADD11C,0.150000*%
%ADD12C,0.120000*%
%ADD13C,0.127000*%
%ADD14C,0.400000*%
%ADD15C,0.200000*%
%ADD16RoundRect,0.250000X0.450000X-0.262500X0.450000X0.262500X-0.450000X0.262500X-0.450000X-0.262500X0*%
%ADD17RoundRect,0.250000X0.262500X0.450000X-0.262500X0.450000X-0.262500X-0.450000X0.262500X-0.450000X0*%
%ADD18RoundRect,0.102000X0.704000X-0.704000X0.704000X0.704000X-0.704000X0.704000X-0.704000X-0.704000X0*%
%ADD19C,1.612000*%
%ADD20C,3.520000*%
%ADD21C,1.700000*%
%ADD22C,2.000000*%
%ADD23RoundRect,0.102000X0.700000X-0.350000X0.700000X0.350000X-0.700000X0.350000X-0.700000X-0.350000X0*%
%ADD24RoundRect,0.102000X0.700000X-0.380000X0.700000X0.380000X-0.700000X0.380000X-0.700000X-0.380000X0*%
%ADD25RoundRect,0.102000X0.700000X-0.400000X0.700000X0.400000X-0.700000X0.400000X-0.700000X-0.400000X0*%
%ADD26O,1.804000X1.204000*%
%ADD27RoundRect,0.250000X0.250000X0.475000X-0.250000X0.475000X-0.250000X-0.475000X0.250000X-0.475000X0*%
%ADD28RoundRect,0.250000X-0.450000X0.262500X-0.450000X-0.262500X0.450000X-0.262500X0.450000X0.262500X0*%
%ADD29RoundRect,0.102000X-0.754000X0.754000X-0.754000X-0.754000X0.754000X-0.754000X0.754000X0.754000X0*%
%ADD30C,1.712000*%
%ADD31R,1.000000X1.500000*%
G04 APERTURE END LIST*
D10*
X112732455Y-82824800D02*
X112637217Y-82872419D01*
X112637217Y-82872419D02*
X112446741Y-82872419D01*
X112446741Y-82872419D02*
X112351503Y-82824800D01*
X112351503Y-82824800D02*
X112303884Y-82777180D01*
X112303884Y-82777180D02*
X112256265Y-82681942D01*
X112256265Y-82681942D02*
X112256265Y-82396228D01*
X112256265Y-82396228D02*
X112303884Y-82300990D01*
X112303884Y-82300990D02*
X112351503Y-82253371D01*
X112351503Y-82253371D02*
X112446741Y-82205752D01*
X112446741Y-82205752D02*
X112637217Y-82205752D01*
X112637217Y-82205752D02*
X112732455Y-82253371D01*
X113303884Y-82872419D02*
X113208646Y-82824800D01*
X113208646Y-82824800D02*
X113161027Y-82777180D01*
X113161027Y-82777180D02*
X113113408Y-82681942D01*
X113113408Y-82681942D02*
X113113408Y-82396228D01*
X113113408Y-82396228D02*
X113161027Y-82300990D01*
X113161027Y-82300990D02*
X113208646Y-82253371D01*
X113208646Y-82253371D02*
X113303884Y-82205752D01*
X113303884Y-82205752D02*
X113446741Y-82205752D01*
X113446741Y-82205752D02*
X113541979Y-82253371D01*
X113541979Y-82253371D02*
X113589598Y-82300990D01*
X113589598Y-82300990D02*
X113637217Y-82396228D01*
X113637217Y-82396228D02*
X113637217Y-82681942D01*
X113637217Y-82681942D02*
X113589598Y-82777180D01*
X113589598Y-82777180D02*
X113541979Y-82824800D01*
X113541979Y-82824800D02*
X113446741Y-82872419D01*
X113446741Y-82872419D02*
X113303884Y-82872419D01*
X114065789Y-82205752D02*
X114065789Y-82872419D01*
X114065789Y-82300990D02*
X114113408Y-82253371D01*
X114113408Y-82253371D02*
X114208646Y-82205752D01*
X114208646Y-82205752D02*
X114351503Y-82205752D01*
X114351503Y-82205752D02*
X114446741Y-82253371D01*
X114446741Y-82253371D02*
X114494360Y-82348609D01*
X114494360Y-82348609D02*
X114494360Y-82872419D01*
X114970551Y-82205752D02*
X114970551Y-82872419D01*
X114970551Y-82300990D02*
X115018170Y-82253371D01*
X115018170Y-82253371D02*
X115113408Y-82205752D01*
X115113408Y-82205752D02*
X115256265Y-82205752D01*
X115256265Y-82205752D02*
X115351503Y-82253371D01*
X115351503Y-82253371D02*
X115399122Y-82348609D01*
X115399122Y-82348609D02*
X115399122Y-82872419D01*
X116303884Y-82872419D02*
X116303884Y-81872419D01*
X116303884Y-82824800D02*
X116208646Y-82872419D01*
X116208646Y-82872419D02*
X116018170Y-82872419D01*
X116018170Y-82872419D02*
X115922932Y-82824800D01*
X115922932Y-82824800D02*
X115875313Y-82777180D01*
X115875313Y-82777180D02*
X115827694Y-82681942D01*
X115827694Y-82681942D02*
X115827694Y-82396228D01*
X115827694Y-82396228D02*
X115875313Y-82300990D01*
X115875313Y-82300990D02*
X115922932Y-82253371D01*
X115922932Y-82253371D02*
X116018170Y-82205752D01*
X116018170Y-82205752D02*
X116208646Y-82205752D01*
X116208646Y-82205752D02*
X116303884Y-82253371D01*
X116922932Y-82872419D02*
X116827694Y-82824800D01*
X116827694Y-82824800D02*
X116780075Y-82777180D01*
X116780075Y-82777180D02*
X116732456Y-82681942D01*
X116732456Y-82681942D02*
X116732456Y-82396228D01*
X116732456Y-82396228D02*
X116780075Y-82300990D01*
X116780075Y-82300990D02*
X116827694Y-82253371D01*
X116827694Y-82253371D02*
X116922932Y-82205752D01*
X116922932Y-82205752D02*
X117065789Y-82205752D01*
X117065789Y-82205752D02*
X117161027Y-82253371D01*
X117161027Y-82253371D02*
X117208646Y-82300990D01*
X117208646Y-82300990D02*
X117256265Y-82396228D01*
X117256265Y-82396228D02*
X117256265Y-82681942D01*
X117256265Y-82681942D02*
X117208646Y-82777180D01*
X117208646Y-82777180D02*
X117161027Y-82824800D01*
X117161027Y-82824800D02*
X117065789Y-82872419D01*
X117065789Y-82872419D02*
X116922932Y-82872419D01*
X117684837Y-82872419D02*
X117684837Y-82205752D01*
X117684837Y-82300990D02*
X117732456Y-82253371D01*
X117732456Y-82253371D02*
X117827694Y-82205752D01*
X117827694Y-82205752D02*
X117970551Y-82205752D01*
X117970551Y-82205752D02*
X118065789Y-82253371D01*
X118065789Y-82253371D02*
X118113408Y-82348609D01*
X118113408Y-82348609D02*
X118113408Y-82872419D01*
X118113408Y-82348609D02*
X118161027Y-82253371D01*
X118161027Y-82253371D02*
X118256265Y-82205752D01*
X118256265Y-82205752D02*
X118399122Y-82205752D01*
X118399122Y-82205752D02*
X118494361Y-82253371D01*
X118494361Y-82253371D02*
X118541980Y-82348609D01*
X118541980Y-82348609D02*
X118541980Y-82872419D01*
X120351503Y-82872419D02*
X120018170Y-82396228D01*
X119780075Y-82872419D02*
X119780075Y-81872419D01*
X119780075Y-81872419D02*
X120161027Y-81872419D01*
X120161027Y-81872419D02*
X120256265Y-81920038D01*
X120256265Y-81920038D02*
X120303884Y-81967657D01*
X120303884Y-81967657D02*
X120351503Y-82062895D01*
X120351503Y-82062895D02*
X120351503Y-82205752D01*
X120351503Y-82205752D02*
X120303884Y-82300990D01*
X120303884Y-82300990D02*
X120256265Y-82348609D01*
X120256265Y-82348609D02*
X120161027Y-82396228D01*
X120161027Y-82396228D02*
X119780075Y-82396228D01*
X121161027Y-82824800D02*
X121065789Y-82872419D01*
X121065789Y-82872419D02*
X120875313Y-82872419D01*
X120875313Y-82872419D02*
X120780075Y-82824800D01*
X120780075Y-82824800D02*
X120732456Y-82729561D01*
X120732456Y-82729561D02*
X120732456Y-82348609D01*
X120732456Y-82348609D02*
X120780075Y-82253371D01*
X120780075Y-82253371D02*
X120875313Y-82205752D01*
X120875313Y-82205752D02*
X121065789Y-82205752D01*
X121065789Y-82205752D02*
X121161027Y-82253371D01*
X121161027Y-82253371D02*
X121208646Y-82348609D01*
X121208646Y-82348609D02*
X121208646Y-82443847D01*
X121208646Y-82443847D02*
X120732456Y-82539085D01*
X121541980Y-82205752D02*
X121780075Y-82872419D01*
X121780075Y-82872419D02*
X122018170Y-82205752D01*
X123351504Y-81872419D02*
X123446742Y-81872419D01*
X123446742Y-81872419D02*
X123541980Y-81920038D01*
X123541980Y-81920038D02*
X123589599Y-81967657D01*
X123589599Y-81967657D02*
X123637218Y-82062895D01*
X123637218Y-82062895D02*
X123684837Y-82253371D01*
X123684837Y-82253371D02*
X123684837Y-82491466D01*
X123684837Y-82491466D02*
X123637218Y-82681942D01*
X123637218Y-82681942D02*
X123589599Y-82777180D01*
X123589599Y-82777180D02*
X123541980Y-82824800D01*
X123541980Y-82824800D02*
X123446742Y-82872419D01*
X123446742Y-82872419D02*
X123351504Y-82872419D01*
X123351504Y-82872419D02*
X123256266Y-82824800D01*
X123256266Y-82824800D02*
X123208647Y-82777180D01*
X123208647Y-82777180D02*
X123161028Y-82681942D01*
X123161028Y-82681942D02*
X123113409Y-82491466D01*
X123113409Y-82491466D02*
X123113409Y-82253371D01*
X123113409Y-82253371D02*
X123161028Y-82062895D01*
X123161028Y-82062895D02*
X123208647Y-81967657D01*
X123208647Y-81967657D02*
X123256266Y-81920038D01*
X123256266Y-81920038D02*
X123351504Y-81872419D01*
X124113409Y-82777180D02*
X124161028Y-82824800D01*
X124161028Y-82824800D02*
X124113409Y-82872419D01*
X124113409Y-82872419D02*
X124065790Y-82824800D01*
X124065790Y-82824800D02*
X124113409Y-82777180D01*
X124113409Y-82777180D02*
X124113409Y-82872419D01*
X124541980Y-81967657D02*
X124589599Y-81920038D01*
X124589599Y-81920038D02*
X124684837Y-81872419D01*
X124684837Y-81872419D02*
X124922932Y-81872419D01*
X124922932Y-81872419D02*
X125018170Y-81920038D01*
X125018170Y-81920038D02*
X125065789Y-81967657D01*
X125065789Y-81967657D02*
X125113408Y-82062895D01*
X125113408Y-82062895D02*
X125113408Y-82158133D01*
X125113408Y-82158133D02*
X125065789Y-82300990D01*
X125065789Y-82300990D02*
X124494361Y-82872419D01*
X124494361Y-82872419D02*
X125113408Y-82872419D01*
D11*
X176733333Y-82854819D02*
X176400000Y-82378628D01*
X176161905Y-82854819D02*
X176161905Y-81854819D01*
X176161905Y-81854819D02*
X176542857Y-81854819D01*
X176542857Y-81854819D02*
X176638095Y-81902438D01*
X176638095Y-81902438D02*
X176685714Y-81950057D01*
X176685714Y-81950057D02*
X176733333Y-82045295D01*
X176733333Y-82045295D02*
X176733333Y-82188152D01*
X176733333Y-82188152D02*
X176685714Y-82283390D01*
X176685714Y-82283390D02*
X176638095Y-82331009D01*
X176638095Y-82331009D02*
X176542857Y-82378628D01*
X176542857Y-82378628D02*
X176161905Y-82378628D01*
X177685714Y-82854819D02*
X177114286Y-82854819D01*
X177400000Y-82854819D02*
X177400000Y-81854819D01*
X177400000Y-81854819D02*
X177304762Y-81997676D01*
X177304762Y-81997676D02*
X177209524Y-82092914D01*
X177209524Y-82092914D02*
X177114286Y-82140533D01*
X164233333Y-82054819D02*
X163900000Y-81578628D01*
X163661905Y-82054819D02*
X163661905Y-81054819D01*
X163661905Y-81054819D02*
X164042857Y-81054819D01*
X164042857Y-81054819D02*
X164138095Y-81102438D01*
X164138095Y-81102438D02*
X164185714Y-81150057D01*
X164185714Y-81150057D02*
X164233333Y-81245295D01*
X164233333Y-81245295D02*
X164233333Y-81388152D01*
X164233333Y-81388152D02*
X164185714Y-81483390D01*
X164185714Y-81483390D02*
X164138095Y-81531009D01*
X164138095Y-81531009D02*
X164042857Y-81578628D01*
X164042857Y-81578628D02*
X163661905Y-81578628D01*
X165090476Y-81388152D02*
X165090476Y-82054819D01*
X164852381Y-81007200D02*
X164614286Y-81721485D01*
X164614286Y-81721485D02*
X165233333Y-81721485D01*
X160916170Y-108504019D02*
X160916170Y-109219368D01*
X160916170Y-109219368D02*
X160868481Y-109362438D01*
X160868481Y-109362438D02*
X160773101Y-109457818D01*
X160773101Y-109457818D02*
X160630031Y-109505507D01*
X160630031Y-109505507D02*
X160534651Y-109505507D01*
X161345379Y-108599399D02*
X161393069Y-108551709D01*
X161393069Y-108551709D02*
X161488449Y-108504019D01*
X161488449Y-108504019D02*
X161726898Y-108504019D01*
X161726898Y-108504019D02*
X161822278Y-108551709D01*
X161822278Y-108551709D02*
X161869968Y-108599399D01*
X161869968Y-108599399D02*
X161917658Y-108694779D01*
X161917658Y-108694779D02*
X161917658Y-108790159D01*
X161917658Y-108790159D02*
X161869968Y-108933229D01*
X161869968Y-108933229D02*
X161297689Y-109505507D01*
X161297689Y-109505507D02*
X161917658Y-109505507D01*
D10*
X136285714Y-107557419D02*
X136285714Y-108271704D01*
X136285714Y-108271704D02*
X136238095Y-108414561D01*
X136238095Y-108414561D02*
X136142857Y-108509800D01*
X136142857Y-108509800D02*
X136000000Y-108557419D01*
X136000000Y-108557419D02*
X135904762Y-108557419D01*
X136619048Y-107557419D02*
X137190476Y-107557419D01*
X136904762Y-108557419D02*
X136904762Y-107557419D01*
X137428572Y-107557419D02*
X138047619Y-107557419D01*
X138047619Y-107557419D02*
X137714286Y-107938371D01*
X137714286Y-107938371D02*
X137857143Y-107938371D01*
X137857143Y-107938371D02*
X137952381Y-107985990D01*
X137952381Y-107985990D02*
X138000000Y-108033609D01*
X138000000Y-108033609D02*
X138047619Y-108128847D01*
X138047619Y-108128847D02*
X138047619Y-108366942D01*
X138047619Y-108366942D02*
X138000000Y-108462180D01*
X138000000Y-108462180D02*
X137952381Y-108509800D01*
X137952381Y-108509800D02*
X137857143Y-108557419D01*
X137857143Y-108557419D02*
X137571429Y-108557419D01*
X137571429Y-108557419D02*
X137476191Y-108509800D01*
X137476191Y-108509800D02*
X137428572Y-108462180D01*
X144916666Y-84207419D02*
X144916666Y-84921704D01*
X144916666Y-84921704D02*
X144869047Y-85064561D01*
X144869047Y-85064561D02*
X144773809Y-85159800D01*
X144773809Y-85159800D02*
X144630952Y-85207419D01*
X144630952Y-85207419D02*
X144535714Y-85207419D01*
X145916666Y-84255038D02*
X145821428Y-84207419D01*
X145821428Y-84207419D02*
X145678571Y-84207419D01*
X145678571Y-84207419D02*
X145535714Y-84255038D01*
X145535714Y-84255038D02*
X145440476Y-84350276D01*
X145440476Y-84350276D02*
X145392857Y-84445514D01*
X145392857Y-84445514D02*
X145345238Y-84635990D01*
X145345238Y-84635990D02*
X145345238Y-84778847D01*
X145345238Y-84778847D02*
X145392857Y-84969323D01*
X145392857Y-84969323D02*
X145440476Y-85064561D01*
X145440476Y-85064561D02*
X145535714Y-85159800D01*
X145535714Y-85159800D02*
X145678571Y-85207419D01*
X145678571Y-85207419D02*
X145773809Y-85207419D01*
X145773809Y-85207419D02*
X145916666Y-85159800D01*
X145916666Y-85159800D02*
X145964285Y-85112180D01*
X145964285Y-85112180D02*
X145964285Y-84778847D01*
X145964285Y-84778847D02*
X145773809Y-84778847D01*
X146916666Y-85207419D02*
X146345238Y-85207419D01*
X146630952Y-85207419D02*
X146630952Y-84207419D01*
X146630952Y-84207419D02*
X146535714Y-84350276D01*
X146535714Y-84350276D02*
X146440476Y-84445514D01*
X146440476Y-84445514D02*
X146345238Y-84493133D01*
X110535714Y-87007419D02*
X110535714Y-87721704D01*
X110535714Y-87721704D02*
X110488095Y-87864561D01*
X110488095Y-87864561D02*
X110392857Y-87959800D01*
X110392857Y-87959800D02*
X110250000Y-88007419D01*
X110250000Y-88007419D02*
X110154762Y-88007419D01*
X110869048Y-87007419D02*
X111440476Y-87007419D01*
X111154762Y-88007419D02*
X111154762Y-87007419D01*
X112250000Y-87007419D02*
X111773810Y-87007419D01*
X111773810Y-87007419D02*
X111726191Y-87483609D01*
X111726191Y-87483609D02*
X111773810Y-87435990D01*
X111773810Y-87435990D02*
X111869048Y-87388371D01*
X111869048Y-87388371D02*
X112107143Y-87388371D01*
X112107143Y-87388371D02*
X112202381Y-87435990D01*
X112202381Y-87435990D02*
X112250000Y-87483609D01*
X112250000Y-87483609D02*
X112297619Y-87578847D01*
X112297619Y-87578847D02*
X112297619Y-87816942D01*
X112297619Y-87816942D02*
X112250000Y-87912180D01*
X112250000Y-87912180D02*
X112202381Y-87959800D01*
X112202381Y-87959800D02*
X112107143Y-88007419D01*
X112107143Y-88007419D02*
X111869048Y-88007419D01*
X111869048Y-88007419D02*
X111773810Y-87959800D01*
X111773810Y-87959800D02*
X111726191Y-87912180D01*
D11*
X182771666Y-80354819D02*
X182771666Y-81069104D01*
X182771666Y-81069104D02*
X182724047Y-81211961D01*
X182724047Y-81211961D02*
X182628809Y-81307200D01*
X182628809Y-81307200D02*
X182485952Y-81354819D01*
X182485952Y-81354819D02*
X182390714Y-81354819D01*
X183771666Y-81354819D02*
X183200238Y-81354819D01*
X183485952Y-81354819D02*
X183485952Y-80354819D01*
X183485952Y-80354819D02*
X183390714Y-80497676D01*
X183390714Y-80497676D02*
X183295476Y-80592914D01*
X183295476Y-80592914D02*
X183200238Y-80640533D01*
D10*
X134666666Y-81657419D02*
X134666666Y-82371704D01*
X134666666Y-82371704D02*
X134619047Y-82514561D01*
X134619047Y-82514561D02*
X134523809Y-82609800D01*
X134523809Y-82609800D02*
X134380952Y-82657419D01*
X134380952Y-82657419D02*
X134285714Y-82657419D01*
X135666666Y-81705038D02*
X135571428Y-81657419D01*
X135571428Y-81657419D02*
X135428571Y-81657419D01*
X135428571Y-81657419D02*
X135285714Y-81705038D01*
X135285714Y-81705038D02*
X135190476Y-81800276D01*
X135190476Y-81800276D02*
X135142857Y-81895514D01*
X135142857Y-81895514D02*
X135095238Y-82085990D01*
X135095238Y-82085990D02*
X135095238Y-82228847D01*
X135095238Y-82228847D02*
X135142857Y-82419323D01*
X135142857Y-82419323D02*
X135190476Y-82514561D01*
X135190476Y-82514561D02*
X135285714Y-82609800D01*
X135285714Y-82609800D02*
X135428571Y-82657419D01*
X135428571Y-82657419D02*
X135523809Y-82657419D01*
X135523809Y-82657419D02*
X135666666Y-82609800D01*
X135666666Y-82609800D02*
X135714285Y-82562180D01*
X135714285Y-82562180D02*
X135714285Y-82228847D01*
X135714285Y-82228847D02*
X135523809Y-82228847D01*
X136047619Y-81657419D02*
X136666666Y-81657419D01*
X136666666Y-81657419D02*
X136333333Y-82038371D01*
X136333333Y-82038371D02*
X136476190Y-82038371D01*
X136476190Y-82038371D02*
X136571428Y-82085990D01*
X136571428Y-82085990D02*
X136619047Y-82133609D01*
X136619047Y-82133609D02*
X136666666Y-82228847D01*
X136666666Y-82228847D02*
X136666666Y-82466942D01*
X136666666Y-82466942D02*
X136619047Y-82562180D01*
X136619047Y-82562180D02*
X136571428Y-82609800D01*
X136571428Y-82609800D02*
X136476190Y-82657419D01*
X136476190Y-82657419D02*
X136190476Y-82657419D01*
X136190476Y-82657419D02*
X136095238Y-82609800D01*
X136095238Y-82609800D02*
X136047619Y-82562180D01*
X148485714Y-105757419D02*
X148485714Y-106471704D01*
X148485714Y-106471704D02*
X148438095Y-106614561D01*
X148438095Y-106614561D02*
X148342857Y-106709800D01*
X148342857Y-106709800D02*
X148200000Y-106757419D01*
X148200000Y-106757419D02*
X148104762Y-106757419D01*
X148819048Y-105757419D02*
X149390476Y-105757419D01*
X149104762Y-106757419D02*
X149104762Y-105757419D01*
X149676191Y-105852657D02*
X149723810Y-105805038D01*
X149723810Y-105805038D02*
X149819048Y-105757419D01*
X149819048Y-105757419D02*
X150057143Y-105757419D01*
X150057143Y-105757419D02*
X150152381Y-105805038D01*
X150152381Y-105805038D02*
X150200000Y-105852657D01*
X150200000Y-105852657D02*
X150247619Y-105947895D01*
X150247619Y-105947895D02*
X150247619Y-106043133D01*
X150247619Y-106043133D02*
X150200000Y-106185990D01*
X150200000Y-106185990D02*
X149628572Y-106757419D01*
X149628572Y-106757419D02*
X150247619Y-106757419D01*
X144916666Y-81687419D02*
X144916666Y-82401704D01*
X144916666Y-82401704D02*
X144869047Y-82544561D01*
X144869047Y-82544561D02*
X144773809Y-82639800D01*
X144773809Y-82639800D02*
X144630952Y-82687419D01*
X144630952Y-82687419D02*
X144535714Y-82687419D01*
X145916666Y-81735038D02*
X145821428Y-81687419D01*
X145821428Y-81687419D02*
X145678571Y-81687419D01*
X145678571Y-81687419D02*
X145535714Y-81735038D01*
X145535714Y-81735038D02*
X145440476Y-81830276D01*
X145440476Y-81830276D02*
X145392857Y-81925514D01*
X145392857Y-81925514D02*
X145345238Y-82115990D01*
X145345238Y-82115990D02*
X145345238Y-82258847D01*
X145345238Y-82258847D02*
X145392857Y-82449323D01*
X145392857Y-82449323D02*
X145440476Y-82544561D01*
X145440476Y-82544561D02*
X145535714Y-82639800D01*
X145535714Y-82639800D02*
X145678571Y-82687419D01*
X145678571Y-82687419D02*
X145773809Y-82687419D01*
X145773809Y-82687419D02*
X145916666Y-82639800D01*
X145916666Y-82639800D02*
X145964285Y-82592180D01*
X145964285Y-82592180D02*
X145964285Y-82258847D01*
X145964285Y-82258847D02*
X145773809Y-82258847D01*
X146345238Y-81782657D02*
X146392857Y-81735038D01*
X146392857Y-81735038D02*
X146488095Y-81687419D01*
X146488095Y-81687419D02*
X146726190Y-81687419D01*
X146726190Y-81687419D02*
X146821428Y-81735038D01*
X146821428Y-81735038D02*
X146869047Y-81782657D01*
X146869047Y-81782657D02*
X146916666Y-81877895D01*
X146916666Y-81877895D02*
X146916666Y-81973133D01*
X146916666Y-81973133D02*
X146869047Y-82115990D01*
X146869047Y-82115990D02*
X146297619Y-82687419D01*
X146297619Y-82687419D02*
X146916666Y-82687419D01*
D11*
X168533333Y-92259580D02*
X168485714Y-92307200D01*
X168485714Y-92307200D02*
X168342857Y-92354819D01*
X168342857Y-92354819D02*
X168247619Y-92354819D01*
X168247619Y-92354819D02*
X168104762Y-92307200D01*
X168104762Y-92307200D02*
X168009524Y-92211961D01*
X168009524Y-92211961D02*
X167961905Y-92116723D01*
X167961905Y-92116723D02*
X167914286Y-91926247D01*
X167914286Y-91926247D02*
X167914286Y-91783390D01*
X167914286Y-91783390D02*
X167961905Y-91592914D01*
X167961905Y-91592914D02*
X168009524Y-91497676D01*
X168009524Y-91497676D02*
X168104762Y-91402438D01*
X168104762Y-91402438D02*
X168247619Y-91354819D01*
X168247619Y-91354819D02*
X168342857Y-91354819D01*
X168342857Y-91354819D02*
X168485714Y-91402438D01*
X168485714Y-91402438D02*
X168533333Y-91450057D01*
X169485714Y-92354819D02*
X168914286Y-92354819D01*
X169200000Y-92354819D02*
X169200000Y-91354819D01*
X169200000Y-91354819D02*
X169104762Y-91497676D01*
X169104762Y-91497676D02*
X169009524Y-91592914D01*
X169009524Y-91592914D02*
X168914286Y-91640533D01*
D10*
X147885714Y-103207419D02*
X147885714Y-103921704D01*
X147885714Y-103921704D02*
X147838095Y-104064561D01*
X147838095Y-104064561D02*
X147742857Y-104159800D01*
X147742857Y-104159800D02*
X147600000Y-104207419D01*
X147600000Y-104207419D02*
X147504762Y-104207419D01*
X148219048Y-103207419D02*
X148790476Y-103207419D01*
X148504762Y-104207419D02*
X148504762Y-103207419D01*
X149647619Y-104207419D02*
X149076191Y-104207419D01*
X149361905Y-104207419D02*
X149361905Y-103207419D01*
X149361905Y-103207419D02*
X149266667Y-103350276D01*
X149266667Y-103350276D02*
X149171429Y-103445514D01*
X149171429Y-103445514D02*
X149076191Y-103493133D01*
D11*
X176733333Y-92154819D02*
X176400000Y-91678628D01*
X176161905Y-92154819D02*
X176161905Y-91154819D01*
X176161905Y-91154819D02*
X176542857Y-91154819D01*
X176542857Y-91154819D02*
X176638095Y-91202438D01*
X176638095Y-91202438D02*
X176685714Y-91250057D01*
X176685714Y-91250057D02*
X176733333Y-91345295D01*
X176733333Y-91345295D02*
X176733333Y-91488152D01*
X176733333Y-91488152D02*
X176685714Y-91583390D01*
X176685714Y-91583390D02*
X176638095Y-91631009D01*
X176638095Y-91631009D02*
X176542857Y-91678628D01*
X176542857Y-91678628D02*
X176161905Y-91678628D01*
X177114286Y-91250057D02*
X177161905Y-91202438D01*
X177161905Y-91202438D02*
X177257143Y-91154819D01*
X177257143Y-91154819D02*
X177495238Y-91154819D01*
X177495238Y-91154819D02*
X177590476Y-91202438D01*
X177590476Y-91202438D02*
X177638095Y-91250057D01*
X177638095Y-91250057D02*
X177685714Y-91345295D01*
X177685714Y-91345295D02*
X177685714Y-91440533D01*
X177685714Y-91440533D02*
X177638095Y-91583390D01*
X177638095Y-91583390D02*
X177066667Y-92154819D01*
X177066667Y-92154819D02*
X177685714Y-92154819D01*
X160588095Y-92307200D02*
X160730952Y-92354819D01*
X160730952Y-92354819D02*
X160969047Y-92354819D01*
X160969047Y-92354819D02*
X161064285Y-92307200D01*
X161064285Y-92307200D02*
X161111904Y-92259580D01*
X161111904Y-92259580D02*
X161159523Y-92164342D01*
X161159523Y-92164342D02*
X161159523Y-92069104D01*
X161159523Y-92069104D02*
X161111904Y-91973866D01*
X161111904Y-91973866D02*
X161064285Y-91926247D01*
X161064285Y-91926247D02*
X160969047Y-91878628D01*
X160969047Y-91878628D02*
X160778571Y-91831009D01*
X160778571Y-91831009D02*
X160683333Y-91783390D01*
X160683333Y-91783390D02*
X160635714Y-91735771D01*
X160635714Y-91735771D02*
X160588095Y-91640533D01*
X160588095Y-91640533D02*
X160588095Y-91545295D01*
X160588095Y-91545295D02*
X160635714Y-91450057D01*
X160635714Y-91450057D02*
X160683333Y-91402438D01*
X160683333Y-91402438D02*
X160778571Y-91354819D01*
X160778571Y-91354819D02*
X161016666Y-91354819D01*
X161016666Y-91354819D02*
X161159523Y-91402438D01*
X162111904Y-92354819D02*
X161540476Y-92354819D01*
X161826190Y-92354819D02*
X161826190Y-91354819D01*
X161826190Y-91354819D02*
X161730952Y-91497676D01*
X161730952Y-91497676D02*
X161635714Y-91592914D01*
X161635714Y-91592914D02*
X161540476Y-91640533D01*
D10*
X129035714Y-107507419D02*
X129035714Y-108221704D01*
X129035714Y-108221704D02*
X128988095Y-108364561D01*
X128988095Y-108364561D02*
X128892857Y-108459800D01*
X128892857Y-108459800D02*
X128750000Y-108507419D01*
X128750000Y-108507419D02*
X128654762Y-108507419D01*
X129369048Y-107507419D02*
X129940476Y-107507419D01*
X129654762Y-108507419D02*
X129654762Y-107507419D01*
X130702381Y-107840752D02*
X130702381Y-108507419D01*
X130464286Y-107459800D02*
X130226191Y-108174085D01*
X130226191Y-108174085D02*
X130845238Y-108174085D01*
D11*
X166583333Y-90204819D02*
X166250000Y-89728628D01*
X166011905Y-90204819D02*
X166011905Y-89204819D01*
X166011905Y-89204819D02*
X166392857Y-89204819D01*
X166392857Y-89204819D02*
X166488095Y-89252438D01*
X166488095Y-89252438D02*
X166535714Y-89300057D01*
X166535714Y-89300057D02*
X166583333Y-89395295D01*
X166583333Y-89395295D02*
X166583333Y-89538152D01*
X166583333Y-89538152D02*
X166535714Y-89633390D01*
X166535714Y-89633390D02*
X166488095Y-89681009D01*
X166488095Y-89681009D02*
X166392857Y-89728628D01*
X166392857Y-89728628D02*
X166011905Y-89728628D01*
X166916667Y-89204819D02*
X167535714Y-89204819D01*
X167535714Y-89204819D02*
X167202381Y-89585771D01*
X167202381Y-89585771D02*
X167345238Y-89585771D01*
X167345238Y-89585771D02*
X167440476Y-89633390D01*
X167440476Y-89633390D02*
X167488095Y-89681009D01*
X167488095Y-89681009D02*
X167535714Y-89776247D01*
X167535714Y-89776247D02*
X167535714Y-90014342D01*
X167535714Y-90014342D02*
X167488095Y-90109580D01*
X167488095Y-90109580D02*
X167440476Y-90157200D01*
X167440476Y-90157200D02*
X167345238Y-90204819D01*
X167345238Y-90204819D02*
X167059524Y-90204819D01*
X167059524Y-90204819D02*
X166964286Y-90157200D01*
X166964286Y-90157200D02*
X166916667Y-90109580D01*
X171006405Y-82704819D02*
X171006405Y-81704819D01*
X171006405Y-81704819D02*
X171244500Y-81704819D01*
X171244500Y-81704819D02*
X171387357Y-81752438D01*
X171387357Y-81752438D02*
X171482595Y-81847676D01*
X171482595Y-81847676D02*
X171530214Y-81942914D01*
X171530214Y-81942914D02*
X171577833Y-82133390D01*
X171577833Y-82133390D02*
X171577833Y-82276247D01*
X171577833Y-82276247D02*
X171530214Y-82466723D01*
X171530214Y-82466723D02*
X171482595Y-82561961D01*
X171482595Y-82561961D02*
X171387357Y-82657200D01*
X171387357Y-82657200D02*
X171244500Y-82704819D01*
X171244500Y-82704819D02*
X171006405Y-82704819D01*
X172530214Y-82704819D02*
X171958786Y-82704819D01*
X172244500Y-82704819D02*
X172244500Y-81704819D01*
X172244500Y-81704819D02*
X172149262Y-81847676D01*
X172149262Y-81847676D02*
X172054024Y-81942914D01*
X172054024Y-81942914D02*
X171958786Y-81990533D01*
D12*
X176165000Y-85339564D02*
X176165000Y-84885436D01*
X177635000Y-85339564D02*
X177635000Y-84885436D01*
X161527064Y-80815000D02*
X161072936Y-80815000D01*
X161527064Y-82285000D02*
X161072936Y-82285000D01*
D13*
X158170000Y-93650000D02*
X172770000Y-93650000D01*
X158170000Y-107950000D02*
X158170000Y-93650000D01*
X172770000Y-93650000D02*
X172770000Y-107950000D01*
X172770000Y-107950000D02*
X158170000Y-107950000D01*
D14*
X159800000Y-108800000D02*
G75*
G02*
X159400000Y-108800000I-200000J0D01*
G01*
X159400000Y-108800000D02*
G75*
G02*
X159800000Y-108800000I200000J0D01*
G01*
D10*
X135393398Y-108080000D02*
G75*
G02*
X133506602Y-108080000I-943398J0D01*
G01*
X133506602Y-108080000D02*
G75*
G02*
X135393398Y-108080000I943398J0D01*
G01*
X149573398Y-84770000D02*
G75*
G02*
X147686602Y-84770000I-943398J0D01*
G01*
X147686602Y-84770000D02*
G75*
G02*
X149573398Y-84770000I943398J0D01*
G01*
X109550000Y-87560000D02*
G75*
G02*
X107350000Y-87560000I-1100000J0D01*
G01*
X107350000Y-87560000D02*
G75*
G02*
X109550000Y-87560000I1100000J0D01*
G01*
D13*
X181520000Y-82530000D02*
X183080000Y-82530000D01*
X181520000Y-91470000D02*
X183080000Y-91470000D01*
X185320000Y-91470000D02*
X186800000Y-91470000D01*
X186800000Y-82530000D02*
X185320000Y-82530000D01*
X186800000Y-91470000D02*
X186800000Y-82530000D01*
D10*
X139413398Y-82230000D02*
G75*
G02*
X137526602Y-82230000I-943398J0D01*
G01*
X137526602Y-82230000D02*
G75*
G02*
X139413398Y-82230000I943398J0D01*
G01*
X147200000Y-106310000D02*
G75*
G02*
X145000000Y-106310000I-1100000J0D01*
G01*
X145000000Y-106310000D02*
G75*
G02*
X147200000Y-106310000I1100000J0D01*
G01*
X149573398Y-82230000D02*
G75*
G02*
X147686602Y-82230000I-943398J0D01*
G01*
X147686602Y-82230000D02*
G75*
G02*
X149573398Y-82230000I943398J0D01*
G01*
D12*
X171961252Y-91165000D02*
X171438748Y-91165000D01*
X171961252Y-92635000D02*
X171438748Y-92635000D01*
D10*
X146890000Y-103700000D02*
G75*
G02*
X144690000Y-103700000I-1100000J0D01*
G01*
X144690000Y-103700000D02*
G75*
G02*
X146890000Y-103700000I1100000J0D01*
G01*
D12*
X176165000Y-88660436D02*
X176165000Y-89114564D01*
X177635000Y-88660436D02*
X177635000Y-89114564D01*
D13*
X158350000Y-84824000D02*
X158350000Y-89176000D01*
X162526000Y-84000000D02*
X160174000Y-84000000D01*
X162526000Y-90000000D02*
X160174000Y-90000000D01*
X164350000Y-84824000D02*
X164350000Y-89176000D01*
D15*
X165454000Y-83750000D02*
G75*
G02*
X165254000Y-83750000I-100000J0D01*
G01*
X165254000Y-83750000D02*
G75*
G02*
X165454000Y-83750000I100000J0D01*
G01*
D10*
X133263398Y-108080000D02*
G75*
G02*
X131376602Y-108080000I-943398J0D01*
G01*
X131376602Y-108080000D02*
G75*
G02*
X133263398Y-108080000I943398J0D01*
G01*
D12*
X166015000Y-86810436D02*
X166015000Y-87264564D01*
X167485000Y-86810436D02*
X167485000Y-87264564D01*
X168994500Y-90500000D02*
X168994500Y-83500000D01*
X168994500Y-90500000D02*
X174494500Y-90500000D01*
X172644500Y-84300000D02*
X170844500Y-84300000D01*
X172644500Y-89700000D02*
X170844500Y-89700000D01*
X174044500Y-83500000D02*
X168994500Y-83500000D01*
X174494500Y-83950000D02*
X174044500Y-83500000D01*
X174494500Y-90500000D02*
X174494500Y-83950000D01*
%LPC*%
D16*
X176900000Y-86025000D03*
X176900000Y-84200000D03*
D17*
X162212500Y-81550000D03*
X160387500Y-81550000D03*
D18*
X159600000Y-104300000D03*
D19*
X159600000Y-101800000D03*
X159600000Y-99800000D03*
X159600000Y-97300000D03*
D20*
X162270000Y-105800000D03*
X162270000Y-95800000D03*
D21*
X134450000Y-108080000D03*
X148630000Y-84770000D03*
D22*
X108450000Y-87560000D03*
D23*
X180110000Y-87500000D03*
D24*
X180110000Y-85480000D03*
D25*
X180110000Y-84250000D03*
D23*
X180110000Y-86500000D03*
D24*
X180110000Y-88520000D03*
D25*
X180110000Y-89750000D03*
D26*
X180400000Y-91320000D03*
X184200000Y-91320000D03*
X180400000Y-82680000D03*
X184200000Y-82680000D03*
D21*
X138470000Y-82230000D03*
D22*
X146100000Y-106310000D03*
D21*
X148630000Y-82230000D03*
D27*
X172650000Y-91900000D03*
X170750000Y-91900000D03*
D22*
X145790000Y-103700000D03*
D28*
X176900000Y-87975000D03*
X176900000Y-89800000D03*
D29*
X163600000Y-83750000D03*
D30*
X163600000Y-90250000D03*
X159100000Y-83750000D03*
X159100000Y-90250000D03*
D21*
X132320000Y-108080000D03*
D28*
X166750000Y-86125000D03*
X166750000Y-87950000D03*
D31*
X173344500Y-84550000D03*
X170144500Y-84550000D03*
X170144500Y-89450000D03*
X173344500Y-89450000D03*
%LPD*%
M02*
