%TF.GenerationSoftware,KiCad,Pcbnew,9.0.2*%
%TF.CreationDate,2025-06-21T10:43:47+02:00*%
%TF.ProjectId,conndom,636f6e6e-646f-46d2-9e6b-696361645f70,0.2*%
%TF.SameCoordinates,Original*%
%TF.FileFunction,Drillmap*%
%TF.FilePolarity,Positive*%
%FSLAX45Y45*%
G04 Gerber Fmt 4.5, Leading zero omitted, Abs format (unit mm)*
G04 Created by KiCad (PCBNEW 9.0.2) date 2025-06-21 10:43:47*
%MOMM*%
%LPD*%
G01*
G04 APERTURE LIST*
%ADD10C,0.050000*%
%ADD11C,0.200000*%
%ADD12C,0.100000*%
%ADD13C,0.130000*%
%ADD14C,0.160000*%
%ADD15C,0.230000*%
G04 APERTURE END LIST*
D10*
X10600000Y-8700000D02*
X10601421Y-8850000D01*
X18600000Y-9150000D02*
G75*
G02*
X18500000Y-9250000I-100000J0D01*
G01*
X14000000Y-8558579D02*
X11400000Y-8558579D01*
X10290000Y-10591421D02*
X9900000Y-10590000D01*
X11308579Y-8650000D02*
G75*
G02*
X11400000Y-8558579I91421J0D01*
G01*
X9900000Y-8500000D02*
X10400000Y-8500000D01*
X10710000Y-8958579D02*
G75*
G02*
X10601421Y-8850000I0J108579D01*
G01*
X15400000Y-8850000D02*
G75*
G02*
X15500000Y-8950000I0J-100000D01*
G01*
X14000000Y-8558579D02*
G75*
G02*
X14100000Y-8600000I0J-141421D01*
G01*
X9900000Y-10590000D02*
G75*
G02*
X9700000Y-10390000I0J200000D01*
G01*
X14000000Y-10350000D02*
G75*
G02*
X13900000Y-10391421I-100000J100000D01*
G01*
X15500000Y-9850000D02*
G75*
G02*
X15400000Y-9950000I-100000J0D01*
G01*
X17350003Y-9350716D02*
X17350000Y-10900000D01*
X9500000Y-8000000D02*
X18500000Y-8000000D01*
X17250000Y-11000000D02*
X9500000Y-11000000D01*
X15500000Y-8950000D02*
X15500000Y-9850000D01*
X13476443Y-10420133D02*
G75*
G02*
X13550000Y-10391421I73557J-79867D01*
G01*
X10400000Y-8500000D02*
G75*
G02*
X10600000Y-8700000I0J-200000D01*
G01*
X14050000Y-10300000D02*
X14000000Y-10350000D01*
X17350000Y-10900000D02*
G75*
G02*
X17250000Y-11000000I-100000J0D01*
G01*
X14329289Y-8820711D02*
X14100000Y-8600000D01*
X18600000Y-8100000D02*
X18600000Y-9150000D01*
X11308579Y-8650000D02*
X11308579Y-8850000D01*
X11308579Y-8850000D02*
G75*
G02*
X11200000Y-8958579I-108579J0D01*
G01*
X14400000Y-8850000D02*
G75*
G02*
X14329289Y-8820711I0J100000D01*
G01*
X13476443Y-10420133D02*
X13350000Y-10550000D01*
X13900000Y-10391421D02*
X13550000Y-10391421D01*
X13250000Y-10591421D02*
X10290000Y-10591421D01*
X15400000Y-9950000D02*
X14400000Y-9950000D01*
X15400000Y-8850000D02*
X14400000Y-8850000D01*
X18500000Y-8000000D02*
G75*
G02*
X18600000Y-8100000I0J-100000D01*
G01*
X13350000Y-10550000D02*
G75*
G02*
X13250000Y-10591421I-100000J100000D01*
G01*
X9700000Y-8700000D02*
G75*
G02*
X9900000Y-8500000I200000J0D01*
G01*
X18500000Y-9250000D02*
X17450000Y-9250000D01*
X9700000Y-10390000D02*
X9700000Y-8700000D01*
X14329289Y-9979289D02*
G75*
G02*
X14400000Y-9950000I70711J-70711D01*
G01*
X10710000Y-8958579D02*
X11200000Y-8958579D01*
X14329289Y-9979289D02*
X14050000Y-10300000D01*
X17350003Y-9350716D02*
G75*
G02*
X17450000Y-9250000I99997J716D01*
G01*
X9200000Y-10700000D02*
X9200000Y-8300000D01*
X9200000Y-8300000D02*
G75*
G02*
X9500000Y-8000000I300000J0D01*
G01*
X9500000Y-11000000D02*
G75*
G02*
X9200000Y-10700000I0J300000D01*
G01*
X9685000Y-8350000D02*
G75*
G02*
X9415000Y-8350000I-135000J0D01*
G01*
X9415000Y-8350000D02*
G75*
G02*
X9685000Y-8350000I135000J0D01*
G01*
X9685000Y-10650000D02*
G75*
G02*
X9415000Y-10650000I-135000J0D01*
G01*
X9415000Y-10650000D02*
G75*
G02*
X9685000Y-10650000I135000J0D01*
G01*
X15485000Y-8350000D02*
G75*
G02*
X15215000Y-8350000I-135000J0D01*
G01*
X15215000Y-8350000D02*
G75*
G02*
X15485000Y-8350000I135000J0D01*
G01*
X15485000Y-10650000D02*
G75*
G02*
X15215000Y-10650000I-135000J0D01*
G01*
X15215000Y-10650000D02*
G75*
G02*
X15485000Y-10650000I135000J0D01*
G01*
D11*
D12*
X15700000Y-10025000D02*
X15730000Y-10055000D01*
X15730000Y-10025000D02*
X15700000Y-10055000D01*
X15722500Y-8710000D02*
G75*
G02*
X15677500Y-8710000I-22500J0D01*
G01*
X15677500Y-8710000D02*
G75*
G02*
X15722500Y-8710000I22500J0D01*
G01*
X16167500Y-8325000D02*
G75*
G02*
X16122500Y-8325000I-22500J0D01*
G01*
X16122500Y-8325000D02*
G75*
G02*
X16167500Y-8325000I22500J0D01*
G01*
X16697500Y-8170000D02*
G75*
G02*
X16652500Y-8170000I-22500J0D01*
G01*
X16652500Y-8170000D02*
G75*
G02*
X16697500Y-8170000I22500J0D01*
G01*
X17872500Y-8540000D02*
G75*
G02*
X17827500Y-8540000I-22500J0D01*
G01*
X17827500Y-8540000D02*
G75*
G02*
X17872500Y-8540000I22500J0D01*
G01*
X17872500Y-8860000D02*
G75*
G02*
X17827500Y-8860000I-22500J0D01*
G01*
X17827500Y-8860000D02*
G75*
G02*
X17872500Y-8860000I22500J0D01*
G01*
X18040000Y-8238000D02*
X18040000Y-8298000D01*
X18010000Y-8268000D02*
X18070000Y-8268000D01*
X18010000Y-8298000D02*
X18070000Y-8298000D01*
X18070000Y-8238000D02*
G75*
G02*
X18070000Y-8298000I0J-30000D01*
G01*
X18070000Y-8238000D02*
X18010000Y-8238000D01*
X18010000Y-8238000D02*
G75*
G03*
X18010000Y-8298000I0J-30000D01*
G01*
X18040000Y-9102000D02*
X18040000Y-9162000D01*
X18010000Y-9132000D02*
X18070000Y-9132000D01*
X18010000Y-9162000D02*
X18070000Y-9162000D01*
X18070000Y-9102000D02*
G75*
G02*
X18070000Y-9162000I0J-30000D01*
G01*
X18070000Y-9102000D02*
X18010000Y-9102000D01*
X18010000Y-9102000D02*
G75*
G03*
X18010000Y-9162000I0J-30000D01*
G01*
X18420000Y-8238000D02*
X18420000Y-8298000D01*
X18390000Y-8268000D02*
X18450000Y-8268000D01*
X18390000Y-8298000D02*
X18450000Y-8298000D01*
X18450000Y-8238000D02*
G75*
G02*
X18450000Y-8298000I0J-30000D01*
G01*
X18450000Y-8238000D02*
X18390000Y-8238000D01*
X18390000Y-8238000D02*
G75*
G03*
X18390000Y-8298000I0J-30000D01*
G01*
X18420000Y-9102000D02*
X18420000Y-9162000D01*
X18390000Y-9132000D02*
X18450000Y-9132000D01*
X18390000Y-9162000D02*
X18450000Y-9162000D01*
X18450000Y-9102000D02*
G75*
G02*
X18450000Y-9162000I0J-30000D01*
G01*
X18450000Y-9102000D02*
X18390000Y-9102000D01*
X18390000Y-9102000D02*
G75*
G03*
X18390000Y-9162000I0J-30000D01*
G01*
X15991820Y-9761820D02*
X15991820Y-9698180D01*
X15928180Y-9698180D01*
X15928180Y-9761820D01*
X15991820Y-9761820D01*
X15991820Y-10011820D02*
X15991820Y-9948180D01*
X15928180Y-9948180D01*
X15928180Y-10011820D01*
X15991820Y-10011820D01*
X15991820Y-10211820D02*
X15991820Y-10148180D01*
X15928180Y-10148180D01*
X15928180Y-10211820D01*
X15991820Y-10211820D01*
X15991820Y-10461820D02*
X15991820Y-10398180D01*
X15928180Y-10398180D01*
X15928180Y-10461820D01*
X15991820Y-10461820D01*
X15910000Y-8425000D02*
X15960000Y-8375000D01*
X15910000Y-8325000D01*
X15860000Y-8375000D01*
X15910000Y-8425000D01*
X15910000Y-9075000D02*
X15960000Y-9025000D01*
X15910000Y-8975000D01*
X15860000Y-9025000D01*
X15910000Y-9075000D01*
X16360000Y-8425000D02*
X16410000Y-8375000D01*
X16360000Y-8325000D01*
X16310000Y-8375000D01*
X16360000Y-8425000D01*
X16360000Y-9075000D02*
X16410000Y-9025000D01*
X16360000Y-8975000D01*
X16310000Y-9025000D01*
X16360000Y-9075000D01*
D13*
X13167000Y-10743000D02*
X13297000Y-10873000D01*
X13297000Y-10743000D02*
X13167000Y-10873000D01*
X13297000Y-10808000D02*
G75*
G02*
X13167000Y-10808000I-65000J0D01*
G01*
X13167000Y-10808000D02*
G75*
G02*
X13297000Y-10808000I65000J0D01*
G01*
X13380000Y-10743000D02*
X13510000Y-10873000D01*
X13510000Y-10743000D02*
X13380000Y-10873000D01*
X13510000Y-10808000D02*
G75*
G02*
X13380000Y-10808000I-65000J0D01*
G01*
X13380000Y-10808000D02*
G75*
G02*
X13510000Y-10808000I65000J0D01*
G01*
X13782000Y-8158000D02*
X13912000Y-8288000D01*
X13912000Y-8158000D02*
X13782000Y-8288000D01*
X13912000Y-8223000D02*
G75*
G02*
X13782000Y-8223000I-65000J0D01*
G01*
X13782000Y-8223000D02*
G75*
G02*
X13912000Y-8223000I65000J0D01*
G01*
X14798000Y-8158000D02*
X14928000Y-8288000D01*
X14928000Y-8158000D02*
X14798000Y-8288000D01*
X14928000Y-8223000D02*
G75*
G02*
X14798000Y-8223000I-65000J0D01*
G01*
X14798000Y-8223000D02*
G75*
G02*
X14928000Y-8223000I65000J0D01*
G01*
X14798000Y-8412000D02*
X14928000Y-8542000D01*
X14928000Y-8412000D02*
X14798000Y-8542000D01*
X14928000Y-8477000D02*
G75*
G02*
X14798000Y-8477000I-65000J0D01*
G01*
X14798000Y-8477000D02*
G75*
G02*
X14928000Y-8477000I65000J0D01*
G01*
D14*
X10765000Y-8676000D02*
X10925000Y-8836000D01*
X10925000Y-8676000D02*
X10765000Y-8836000D01*
X10845000Y-8676000D02*
X10845000Y-8836000D01*
X10765000Y-8756000D02*
X10925000Y-8756000D01*
X14499000Y-10290000D02*
X14659000Y-10450000D01*
X14659000Y-10290000D02*
X14499000Y-10450000D01*
X14579000Y-10290000D02*
X14579000Y-10450000D01*
X14499000Y-10370000D02*
X14659000Y-10370000D01*
X14530000Y-10551000D02*
X14690000Y-10711000D01*
X14690000Y-10551000D02*
X14530000Y-10711000D01*
X14610000Y-10551000D02*
X14610000Y-10711000D01*
X14530000Y-10631000D02*
X14690000Y-10631000D01*
D15*
X16112000Y-9465000D02*
X16342000Y-9695000D01*
X16342000Y-9465000D02*
X16112000Y-9695000D01*
X16308318Y-9661318D02*
X16308318Y-9498682D01*
X16145682Y-9498682D01*
X16145682Y-9661318D01*
X16308318Y-9661318D01*
X16112000Y-10465000D02*
X16342000Y-10695000D01*
X16342000Y-10465000D02*
X16112000Y-10695000D01*
X16308318Y-10661318D02*
X16308318Y-10498682D01*
X16145682Y-10498682D01*
X16145682Y-10661318D01*
X16308318Y-10661318D01*
D11*
X9458277Y-11313984D02*
X9458277Y-11113984D01*
X9458277Y-11113984D02*
X9505896Y-11113984D01*
X9505896Y-11113984D02*
X9534467Y-11123508D01*
X9534467Y-11123508D02*
X9553515Y-11142555D01*
X9553515Y-11142555D02*
X9563039Y-11161603D01*
X9563039Y-11161603D02*
X9572563Y-11199698D01*
X9572563Y-11199698D02*
X9572563Y-11228269D01*
X9572563Y-11228269D02*
X9563039Y-11266365D01*
X9563039Y-11266365D02*
X9553515Y-11285412D01*
X9553515Y-11285412D02*
X9534467Y-11304460D01*
X9534467Y-11304460D02*
X9505896Y-11313984D01*
X9505896Y-11313984D02*
X9458277Y-11313984D01*
X9658277Y-11313984D02*
X9658277Y-11180650D01*
X9658277Y-11218746D02*
X9667801Y-11199698D01*
X9667801Y-11199698D02*
X9677324Y-11190174D01*
X9677324Y-11190174D02*
X9696372Y-11180650D01*
X9696372Y-11180650D02*
X9715420Y-11180650D01*
X9782086Y-11313984D02*
X9782086Y-11180650D01*
X9782086Y-11113984D02*
X9772563Y-11123508D01*
X9772563Y-11123508D02*
X9782086Y-11133031D01*
X9782086Y-11133031D02*
X9791610Y-11123508D01*
X9791610Y-11123508D02*
X9782086Y-11113984D01*
X9782086Y-11113984D02*
X9782086Y-11133031D01*
X9905896Y-11313984D02*
X9886848Y-11304460D01*
X9886848Y-11304460D02*
X9877324Y-11285412D01*
X9877324Y-11285412D02*
X9877324Y-11113984D01*
X10010658Y-11313984D02*
X9991610Y-11304460D01*
X9991610Y-11304460D02*
X9982086Y-11285412D01*
X9982086Y-11285412D02*
X9982086Y-11113984D01*
X10239229Y-11313984D02*
X10239229Y-11113984D01*
X10239229Y-11113984D02*
X10305896Y-11256841D01*
X10305896Y-11256841D02*
X10372563Y-11113984D01*
X10372563Y-11113984D02*
X10372563Y-11313984D01*
X10553515Y-11313984D02*
X10553515Y-11209222D01*
X10553515Y-11209222D02*
X10543991Y-11190174D01*
X10543991Y-11190174D02*
X10524944Y-11180650D01*
X10524944Y-11180650D02*
X10486848Y-11180650D01*
X10486848Y-11180650D02*
X10467801Y-11190174D01*
X10553515Y-11304460D02*
X10534467Y-11313984D01*
X10534467Y-11313984D02*
X10486848Y-11313984D01*
X10486848Y-11313984D02*
X10467801Y-11304460D01*
X10467801Y-11304460D02*
X10458277Y-11285412D01*
X10458277Y-11285412D02*
X10458277Y-11266365D01*
X10458277Y-11266365D02*
X10467801Y-11247317D01*
X10467801Y-11247317D02*
X10486848Y-11237793D01*
X10486848Y-11237793D02*
X10534467Y-11237793D01*
X10534467Y-11237793D02*
X10553515Y-11228269D01*
X10648753Y-11180650D02*
X10648753Y-11380650D01*
X10648753Y-11190174D02*
X10667801Y-11180650D01*
X10667801Y-11180650D02*
X10705896Y-11180650D01*
X10705896Y-11180650D02*
X10724944Y-11190174D01*
X10724944Y-11190174D02*
X10734467Y-11199698D01*
X10734467Y-11199698D02*
X10743991Y-11218746D01*
X10743991Y-11218746D02*
X10743991Y-11275888D01*
X10743991Y-11275888D02*
X10734467Y-11294936D01*
X10734467Y-11294936D02*
X10724944Y-11304460D01*
X10724944Y-11304460D02*
X10705896Y-11313984D01*
X10705896Y-11313984D02*
X10667801Y-11313984D01*
X10667801Y-11313984D02*
X10648753Y-11304460D01*
X10829705Y-11294936D02*
X10839229Y-11304460D01*
X10839229Y-11304460D02*
X10829705Y-11313984D01*
X10829705Y-11313984D02*
X10820182Y-11304460D01*
X10820182Y-11304460D02*
X10829705Y-11294936D01*
X10829705Y-11294936D02*
X10829705Y-11313984D01*
X10829705Y-11190174D02*
X10839229Y-11199698D01*
X10839229Y-11199698D02*
X10829705Y-11209222D01*
X10829705Y-11209222D02*
X10820182Y-11199698D01*
X10820182Y-11199698D02*
X10829705Y-11190174D01*
X10829705Y-11190174D02*
X10829705Y-11209222D01*
D12*
X9167500Y-11627500D02*
X9197500Y-11657500D01*
X9197500Y-11627500D02*
X9167500Y-11657500D01*
D11*
X9496372Y-11533984D02*
X9515420Y-11533984D01*
X9515420Y-11533984D02*
X9534467Y-11543508D01*
X9534467Y-11543508D02*
X9543991Y-11553031D01*
X9543991Y-11553031D02*
X9553515Y-11572079D01*
X9553515Y-11572079D02*
X9563039Y-11610174D01*
X9563039Y-11610174D02*
X9563039Y-11657793D01*
X9563039Y-11657793D02*
X9553515Y-11695888D01*
X9553515Y-11695888D02*
X9543991Y-11714936D01*
X9543991Y-11714936D02*
X9534467Y-11724460D01*
X9534467Y-11724460D02*
X9515420Y-11733984D01*
X9515420Y-11733984D02*
X9496372Y-11733984D01*
X9496372Y-11733984D02*
X9477324Y-11724460D01*
X9477324Y-11724460D02*
X9467801Y-11714936D01*
X9467801Y-11714936D02*
X9458277Y-11695888D01*
X9458277Y-11695888D02*
X9448753Y-11657793D01*
X9448753Y-11657793D02*
X9448753Y-11610174D01*
X9448753Y-11610174D02*
X9458277Y-11572079D01*
X9458277Y-11572079D02*
X9467801Y-11553031D01*
X9467801Y-11553031D02*
X9477324Y-11543508D01*
X9477324Y-11543508D02*
X9496372Y-11533984D01*
X9648753Y-11714936D02*
X9658277Y-11724460D01*
X9658277Y-11724460D02*
X9648753Y-11733984D01*
X9648753Y-11733984D02*
X9639229Y-11724460D01*
X9639229Y-11724460D02*
X9648753Y-11714936D01*
X9648753Y-11714936D02*
X9648753Y-11733984D01*
X9724944Y-11533984D02*
X9848753Y-11533984D01*
X9848753Y-11533984D02*
X9782086Y-11610174D01*
X9782086Y-11610174D02*
X9810658Y-11610174D01*
X9810658Y-11610174D02*
X9829705Y-11619698D01*
X9829705Y-11619698D02*
X9839229Y-11629222D01*
X9839229Y-11629222D02*
X9848753Y-11648269D01*
X9848753Y-11648269D02*
X9848753Y-11695888D01*
X9848753Y-11695888D02*
X9839229Y-11714936D01*
X9839229Y-11714936D02*
X9829705Y-11724460D01*
X9829705Y-11724460D02*
X9810658Y-11733984D01*
X9810658Y-11733984D02*
X9753515Y-11733984D01*
X9753515Y-11733984D02*
X9734467Y-11724460D01*
X9734467Y-11724460D02*
X9724944Y-11714936D01*
X9972563Y-11533984D02*
X9991610Y-11533984D01*
X9991610Y-11533984D02*
X10010658Y-11543508D01*
X10010658Y-11543508D02*
X10020182Y-11553031D01*
X10020182Y-11553031D02*
X10029705Y-11572079D01*
X10029705Y-11572079D02*
X10039229Y-11610174D01*
X10039229Y-11610174D02*
X10039229Y-11657793D01*
X10039229Y-11657793D02*
X10029705Y-11695888D01*
X10029705Y-11695888D02*
X10020182Y-11714936D01*
X10020182Y-11714936D02*
X10010658Y-11724460D01*
X10010658Y-11724460D02*
X9991610Y-11733984D01*
X9991610Y-11733984D02*
X9972563Y-11733984D01*
X9972563Y-11733984D02*
X9953515Y-11724460D01*
X9953515Y-11724460D02*
X9943991Y-11714936D01*
X9943991Y-11714936D02*
X9934467Y-11695888D01*
X9934467Y-11695888D02*
X9924944Y-11657793D01*
X9924944Y-11657793D02*
X9924944Y-11610174D01*
X9924944Y-11610174D02*
X9934467Y-11572079D01*
X9934467Y-11572079D02*
X9943991Y-11553031D01*
X9943991Y-11553031D02*
X9953515Y-11543508D01*
X9953515Y-11543508D02*
X9972563Y-11533984D01*
X10163039Y-11533984D02*
X10182086Y-11533984D01*
X10182086Y-11533984D02*
X10201134Y-11543508D01*
X10201134Y-11543508D02*
X10210658Y-11553031D01*
X10210658Y-11553031D02*
X10220182Y-11572079D01*
X10220182Y-11572079D02*
X10229705Y-11610174D01*
X10229705Y-11610174D02*
X10229705Y-11657793D01*
X10229705Y-11657793D02*
X10220182Y-11695888D01*
X10220182Y-11695888D02*
X10210658Y-11714936D01*
X10210658Y-11714936D02*
X10201134Y-11724460D01*
X10201134Y-11724460D02*
X10182086Y-11733984D01*
X10182086Y-11733984D02*
X10163039Y-11733984D01*
X10163039Y-11733984D02*
X10143991Y-11724460D01*
X10143991Y-11724460D02*
X10134467Y-11714936D01*
X10134467Y-11714936D02*
X10124944Y-11695888D01*
X10124944Y-11695888D02*
X10115420Y-11657793D01*
X10115420Y-11657793D02*
X10115420Y-11610174D01*
X10115420Y-11610174D02*
X10124944Y-11572079D01*
X10124944Y-11572079D02*
X10134467Y-11553031D01*
X10134467Y-11553031D02*
X10143991Y-11543508D01*
X10143991Y-11543508D02*
X10163039Y-11533984D01*
X10315420Y-11733984D02*
X10315420Y-11600650D01*
X10315420Y-11619698D02*
X10324944Y-11610174D01*
X10324944Y-11610174D02*
X10343991Y-11600650D01*
X10343991Y-11600650D02*
X10372563Y-11600650D01*
X10372563Y-11600650D02*
X10391610Y-11610174D01*
X10391610Y-11610174D02*
X10401134Y-11629222D01*
X10401134Y-11629222D02*
X10401134Y-11733984D01*
X10401134Y-11629222D02*
X10410658Y-11610174D01*
X10410658Y-11610174D02*
X10429705Y-11600650D01*
X10429705Y-11600650D02*
X10458277Y-11600650D01*
X10458277Y-11600650D02*
X10477325Y-11610174D01*
X10477325Y-11610174D02*
X10486848Y-11629222D01*
X10486848Y-11629222D02*
X10486848Y-11733984D01*
X10582086Y-11733984D02*
X10582086Y-11600650D01*
X10582086Y-11619698D02*
X10591610Y-11610174D01*
X10591610Y-11610174D02*
X10610658Y-11600650D01*
X10610658Y-11600650D02*
X10639229Y-11600650D01*
X10639229Y-11600650D02*
X10658277Y-11610174D01*
X10658277Y-11610174D02*
X10667801Y-11629222D01*
X10667801Y-11629222D02*
X10667801Y-11733984D01*
X10667801Y-11629222D02*
X10677325Y-11610174D01*
X10677325Y-11610174D02*
X10696372Y-11600650D01*
X10696372Y-11600650D02*
X10724944Y-11600650D01*
X10724944Y-11600650D02*
X10743991Y-11610174D01*
X10743991Y-11610174D02*
X10753515Y-11629222D01*
X10753515Y-11629222D02*
X10753515Y-11733984D01*
X11143991Y-11524460D02*
X10972563Y-11781603D01*
X11401134Y-11533984D02*
X11420182Y-11533984D01*
X11420182Y-11533984D02*
X11439229Y-11543508D01*
X11439229Y-11543508D02*
X11448753Y-11553031D01*
X11448753Y-11553031D02*
X11458277Y-11572079D01*
X11458277Y-11572079D02*
X11467801Y-11610174D01*
X11467801Y-11610174D02*
X11467801Y-11657793D01*
X11467801Y-11657793D02*
X11458277Y-11695888D01*
X11458277Y-11695888D02*
X11448753Y-11714936D01*
X11448753Y-11714936D02*
X11439229Y-11724460D01*
X11439229Y-11724460D02*
X11420182Y-11733984D01*
X11420182Y-11733984D02*
X11401134Y-11733984D01*
X11401134Y-11733984D02*
X11382086Y-11724460D01*
X11382086Y-11724460D02*
X11372563Y-11714936D01*
X11372563Y-11714936D02*
X11363039Y-11695888D01*
X11363039Y-11695888D02*
X11353515Y-11657793D01*
X11353515Y-11657793D02*
X11353515Y-11610174D01*
X11353515Y-11610174D02*
X11363039Y-11572079D01*
X11363039Y-11572079D02*
X11372563Y-11553031D01*
X11372563Y-11553031D02*
X11382086Y-11543508D01*
X11382086Y-11543508D02*
X11401134Y-11533984D01*
X11553515Y-11714936D02*
X11563039Y-11724460D01*
X11563039Y-11724460D02*
X11553515Y-11733984D01*
X11553515Y-11733984D02*
X11543991Y-11724460D01*
X11543991Y-11724460D02*
X11553515Y-11714936D01*
X11553515Y-11714936D02*
X11553515Y-11733984D01*
X11686848Y-11533984D02*
X11705896Y-11533984D01*
X11705896Y-11533984D02*
X11724944Y-11543508D01*
X11724944Y-11543508D02*
X11734467Y-11553031D01*
X11734467Y-11553031D02*
X11743991Y-11572079D01*
X11743991Y-11572079D02*
X11753515Y-11610174D01*
X11753515Y-11610174D02*
X11753515Y-11657793D01*
X11753515Y-11657793D02*
X11743991Y-11695888D01*
X11743991Y-11695888D02*
X11734467Y-11714936D01*
X11734467Y-11714936D02*
X11724944Y-11724460D01*
X11724944Y-11724460D02*
X11705896Y-11733984D01*
X11705896Y-11733984D02*
X11686848Y-11733984D01*
X11686848Y-11733984D02*
X11667801Y-11724460D01*
X11667801Y-11724460D02*
X11658277Y-11714936D01*
X11658277Y-11714936D02*
X11648753Y-11695888D01*
X11648753Y-11695888D02*
X11639229Y-11657793D01*
X11639229Y-11657793D02*
X11639229Y-11610174D01*
X11639229Y-11610174D02*
X11648753Y-11572079D01*
X11648753Y-11572079D02*
X11658277Y-11553031D01*
X11658277Y-11553031D02*
X11667801Y-11543508D01*
X11667801Y-11543508D02*
X11686848Y-11533984D01*
X11943991Y-11733984D02*
X11829706Y-11733984D01*
X11886848Y-11733984D02*
X11886848Y-11533984D01*
X11886848Y-11533984D02*
X11867801Y-11562555D01*
X11867801Y-11562555D02*
X11848753Y-11581603D01*
X11848753Y-11581603D02*
X11829706Y-11591127D01*
X12134467Y-11733984D02*
X12020182Y-11733984D01*
X12077325Y-11733984D02*
X12077325Y-11533984D01*
X12077325Y-11533984D02*
X12058277Y-11562555D01*
X12058277Y-11562555D02*
X12039229Y-11581603D01*
X12039229Y-11581603D02*
X12020182Y-11591127D01*
X12248753Y-11619698D02*
X12229706Y-11610174D01*
X12229706Y-11610174D02*
X12220182Y-11600650D01*
X12220182Y-11600650D02*
X12210658Y-11581603D01*
X12210658Y-11581603D02*
X12210658Y-11572079D01*
X12210658Y-11572079D02*
X12220182Y-11553031D01*
X12220182Y-11553031D02*
X12229706Y-11543508D01*
X12229706Y-11543508D02*
X12248753Y-11533984D01*
X12248753Y-11533984D02*
X12286848Y-11533984D01*
X12286848Y-11533984D02*
X12305896Y-11543508D01*
X12305896Y-11543508D02*
X12315420Y-11553031D01*
X12315420Y-11553031D02*
X12324944Y-11572079D01*
X12324944Y-11572079D02*
X12324944Y-11581603D01*
X12324944Y-11581603D02*
X12315420Y-11600650D01*
X12315420Y-11600650D02*
X12305896Y-11610174D01*
X12305896Y-11610174D02*
X12286848Y-11619698D01*
X12286848Y-11619698D02*
X12248753Y-11619698D01*
X12248753Y-11619698D02*
X12229706Y-11629222D01*
X12229706Y-11629222D02*
X12220182Y-11638746D01*
X12220182Y-11638746D02*
X12210658Y-11657793D01*
X12210658Y-11657793D02*
X12210658Y-11695888D01*
X12210658Y-11695888D02*
X12220182Y-11714936D01*
X12220182Y-11714936D02*
X12229706Y-11724460D01*
X12229706Y-11724460D02*
X12248753Y-11733984D01*
X12248753Y-11733984D02*
X12286848Y-11733984D01*
X12286848Y-11733984D02*
X12305896Y-11724460D01*
X12305896Y-11724460D02*
X12315420Y-11714936D01*
X12315420Y-11714936D02*
X12324944Y-11695888D01*
X12324944Y-11695888D02*
X12324944Y-11657793D01*
X12324944Y-11657793D02*
X12315420Y-11638746D01*
X12315420Y-11638746D02*
X12305896Y-11629222D01*
X12305896Y-11629222D02*
X12286848Y-11619698D01*
X12401134Y-11533984D02*
X12401134Y-11572079D01*
X12477325Y-11533984D02*
X12477325Y-11572079D01*
X12772563Y-11810174D02*
X12763039Y-11800650D01*
X12763039Y-11800650D02*
X12743991Y-11772079D01*
X12743991Y-11772079D02*
X12734468Y-11753031D01*
X12734468Y-11753031D02*
X12724944Y-11724460D01*
X12724944Y-11724460D02*
X12715420Y-11676841D01*
X12715420Y-11676841D02*
X12715420Y-11638746D01*
X12715420Y-11638746D02*
X12724944Y-11591127D01*
X12724944Y-11591127D02*
X12734468Y-11562555D01*
X12734468Y-11562555D02*
X12743991Y-11543508D01*
X12743991Y-11543508D02*
X12763039Y-11514936D01*
X12763039Y-11514936D02*
X12772563Y-11505412D01*
X12953515Y-11733984D02*
X12839229Y-11733984D01*
X12896372Y-11733984D02*
X12896372Y-11533984D01*
X12896372Y-11533984D02*
X12877325Y-11562555D01*
X12877325Y-11562555D02*
X12858277Y-11581603D01*
X12858277Y-11581603D02*
X12839229Y-11591127D01*
X13191610Y-11733984D02*
X13191610Y-11533984D01*
X13277325Y-11733984D02*
X13277325Y-11629222D01*
X13277325Y-11629222D02*
X13267801Y-11610174D01*
X13267801Y-11610174D02*
X13248753Y-11600650D01*
X13248753Y-11600650D02*
X13220182Y-11600650D01*
X13220182Y-11600650D02*
X13201134Y-11610174D01*
X13201134Y-11610174D02*
X13191610Y-11619698D01*
X13401134Y-11733984D02*
X13382087Y-11724460D01*
X13382087Y-11724460D02*
X13372563Y-11714936D01*
X13372563Y-11714936D02*
X13363039Y-11695888D01*
X13363039Y-11695888D02*
X13363039Y-11638746D01*
X13363039Y-11638746D02*
X13372563Y-11619698D01*
X13372563Y-11619698D02*
X13382087Y-11610174D01*
X13382087Y-11610174D02*
X13401134Y-11600650D01*
X13401134Y-11600650D02*
X13429706Y-11600650D01*
X13429706Y-11600650D02*
X13448753Y-11610174D01*
X13448753Y-11610174D02*
X13458277Y-11619698D01*
X13458277Y-11619698D02*
X13467801Y-11638746D01*
X13467801Y-11638746D02*
X13467801Y-11695888D01*
X13467801Y-11695888D02*
X13458277Y-11714936D01*
X13458277Y-11714936D02*
X13448753Y-11724460D01*
X13448753Y-11724460D02*
X13429706Y-11733984D01*
X13429706Y-11733984D02*
X13401134Y-11733984D01*
X13582087Y-11733984D02*
X13563039Y-11724460D01*
X13563039Y-11724460D02*
X13553515Y-11705412D01*
X13553515Y-11705412D02*
X13553515Y-11533984D01*
X13734468Y-11724460D02*
X13715420Y-11733984D01*
X13715420Y-11733984D02*
X13677325Y-11733984D01*
X13677325Y-11733984D02*
X13658277Y-11724460D01*
X13658277Y-11724460D02*
X13648753Y-11705412D01*
X13648753Y-11705412D02*
X13648753Y-11629222D01*
X13648753Y-11629222D02*
X13658277Y-11610174D01*
X13658277Y-11610174D02*
X13677325Y-11600650D01*
X13677325Y-11600650D02*
X13715420Y-11600650D01*
X13715420Y-11600650D02*
X13734468Y-11610174D01*
X13734468Y-11610174D02*
X13743991Y-11629222D01*
X13743991Y-11629222D02*
X13743991Y-11648269D01*
X13743991Y-11648269D02*
X13648753Y-11667317D01*
X13810658Y-11810174D02*
X13820182Y-11800650D01*
X13820182Y-11800650D02*
X13839230Y-11772079D01*
X13839230Y-11772079D02*
X13848753Y-11753031D01*
X13848753Y-11753031D02*
X13858277Y-11724460D01*
X13858277Y-11724460D02*
X13867801Y-11676841D01*
X13867801Y-11676841D02*
X13867801Y-11638746D01*
X13867801Y-11638746D02*
X13858277Y-11591127D01*
X13858277Y-11591127D02*
X13848753Y-11562555D01*
X13848753Y-11562555D02*
X13839230Y-11543508D01*
X13839230Y-11543508D02*
X13820182Y-11514936D01*
X13820182Y-11514936D02*
X13810658Y-11505412D01*
D12*
X9197500Y-11906500D02*
G75*
G02*
X9152500Y-11906500I-22500J0D01*
G01*
X9152500Y-11906500D02*
G75*
G02*
X9197500Y-11906500I22500J0D01*
G01*
D11*
X9496372Y-11797984D02*
X9515420Y-11797984D01*
X9515420Y-11797984D02*
X9534467Y-11807508D01*
X9534467Y-11807508D02*
X9543991Y-11817031D01*
X9543991Y-11817031D02*
X9553515Y-11836079D01*
X9553515Y-11836079D02*
X9563039Y-11874174D01*
X9563039Y-11874174D02*
X9563039Y-11921793D01*
X9563039Y-11921793D02*
X9553515Y-11959888D01*
X9553515Y-11959888D02*
X9543991Y-11978936D01*
X9543991Y-11978936D02*
X9534467Y-11988460D01*
X9534467Y-11988460D02*
X9515420Y-11997984D01*
X9515420Y-11997984D02*
X9496372Y-11997984D01*
X9496372Y-11997984D02*
X9477324Y-11988460D01*
X9477324Y-11988460D02*
X9467801Y-11978936D01*
X9467801Y-11978936D02*
X9458277Y-11959888D01*
X9458277Y-11959888D02*
X9448753Y-11921793D01*
X9448753Y-11921793D02*
X9448753Y-11874174D01*
X9448753Y-11874174D02*
X9458277Y-11836079D01*
X9458277Y-11836079D02*
X9467801Y-11817031D01*
X9467801Y-11817031D02*
X9477324Y-11807508D01*
X9477324Y-11807508D02*
X9496372Y-11797984D01*
X9648753Y-11978936D02*
X9658277Y-11988460D01*
X9658277Y-11988460D02*
X9648753Y-11997984D01*
X9648753Y-11997984D02*
X9639229Y-11988460D01*
X9639229Y-11988460D02*
X9648753Y-11978936D01*
X9648753Y-11978936D02*
X9648753Y-11997984D01*
X9829705Y-11864650D02*
X9829705Y-11997984D01*
X9782086Y-11788460D02*
X9734467Y-11931317D01*
X9734467Y-11931317D02*
X9858277Y-11931317D01*
X10029705Y-11797984D02*
X9934467Y-11797984D01*
X9934467Y-11797984D02*
X9924944Y-11893222D01*
X9924944Y-11893222D02*
X9934467Y-11883698D01*
X9934467Y-11883698D02*
X9953515Y-11874174D01*
X9953515Y-11874174D02*
X10001134Y-11874174D01*
X10001134Y-11874174D02*
X10020182Y-11883698D01*
X10020182Y-11883698D02*
X10029705Y-11893222D01*
X10029705Y-11893222D02*
X10039229Y-11912269D01*
X10039229Y-11912269D02*
X10039229Y-11959888D01*
X10039229Y-11959888D02*
X10029705Y-11978936D01*
X10029705Y-11978936D02*
X10020182Y-11988460D01*
X10020182Y-11988460D02*
X10001134Y-11997984D01*
X10001134Y-11997984D02*
X9953515Y-11997984D01*
X9953515Y-11997984D02*
X9934467Y-11988460D01*
X9934467Y-11988460D02*
X9924944Y-11978936D01*
X10163039Y-11797984D02*
X10182086Y-11797984D01*
X10182086Y-11797984D02*
X10201134Y-11807508D01*
X10201134Y-11807508D02*
X10210658Y-11817031D01*
X10210658Y-11817031D02*
X10220182Y-11836079D01*
X10220182Y-11836079D02*
X10229705Y-11874174D01*
X10229705Y-11874174D02*
X10229705Y-11921793D01*
X10229705Y-11921793D02*
X10220182Y-11959888D01*
X10220182Y-11959888D02*
X10210658Y-11978936D01*
X10210658Y-11978936D02*
X10201134Y-11988460D01*
X10201134Y-11988460D02*
X10182086Y-11997984D01*
X10182086Y-11997984D02*
X10163039Y-11997984D01*
X10163039Y-11997984D02*
X10143991Y-11988460D01*
X10143991Y-11988460D02*
X10134467Y-11978936D01*
X10134467Y-11978936D02*
X10124944Y-11959888D01*
X10124944Y-11959888D02*
X10115420Y-11921793D01*
X10115420Y-11921793D02*
X10115420Y-11874174D01*
X10115420Y-11874174D02*
X10124944Y-11836079D01*
X10124944Y-11836079D02*
X10134467Y-11817031D01*
X10134467Y-11817031D02*
X10143991Y-11807508D01*
X10143991Y-11807508D02*
X10163039Y-11797984D01*
X10315420Y-11997984D02*
X10315420Y-11864650D01*
X10315420Y-11883698D02*
X10324944Y-11874174D01*
X10324944Y-11874174D02*
X10343991Y-11864650D01*
X10343991Y-11864650D02*
X10372563Y-11864650D01*
X10372563Y-11864650D02*
X10391610Y-11874174D01*
X10391610Y-11874174D02*
X10401134Y-11893222D01*
X10401134Y-11893222D02*
X10401134Y-11997984D01*
X10401134Y-11893222D02*
X10410658Y-11874174D01*
X10410658Y-11874174D02*
X10429705Y-11864650D01*
X10429705Y-11864650D02*
X10458277Y-11864650D01*
X10458277Y-11864650D02*
X10477325Y-11874174D01*
X10477325Y-11874174D02*
X10486848Y-11893222D01*
X10486848Y-11893222D02*
X10486848Y-11997984D01*
X10582086Y-11997984D02*
X10582086Y-11864650D01*
X10582086Y-11883698D02*
X10591610Y-11874174D01*
X10591610Y-11874174D02*
X10610658Y-11864650D01*
X10610658Y-11864650D02*
X10639229Y-11864650D01*
X10639229Y-11864650D02*
X10658277Y-11874174D01*
X10658277Y-11874174D02*
X10667801Y-11893222D01*
X10667801Y-11893222D02*
X10667801Y-11997984D01*
X10667801Y-11893222D02*
X10677325Y-11874174D01*
X10677325Y-11874174D02*
X10696372Y-11864650D01*
X10696372Y-11864650D02*
X10724944Y-11864650D01*
X10724944Y-11864650D02*
X10743991Y-11874174D01*
X10743991Y-11874174D02*
X10753515Y-11893222D01*
X10753515Y-11893222D02*
X10753515Y-11997984D01*
X11143991Y-11788460D02*
X10972563Y-12045603D01*
X11401134Y-11797984D02*
X11420182Y-11797984D01*
X11420182Y-11797984D02*
X11439229Y-11807508D01*
X11439229Y-11807508D02*
X11448753Y-11817031D01*
X11448753Y-11817031D02*
X11458277Y-11836079D01*
X11458277Y-11836079D02*
X11467801Y-11874174D01*
X11467801Y-11874174D02*
X11467801Y-11921793D01*
X11467801Y-11921793D02*
X11458277Y-11959888D01*
X11458277Y-11959888D02*
X11448753Y-11978936D01*
X11448753Y-11978936D02*
X11439229Y-11988460D01*
X11439229Y-11988460D02*
X11420182Y-11997984D01*
X11420182Y-11997984D02*
X11401134Y-11997984D01*
X11401134Y-11997984D02*
X11382086Y-11988460D01*
X11382086Y-11988460D02*
X11372563Y-11978936D01*
X11372563Y-11978936D02*
X11363039Y-11959888D01*
X11363039Y-11959888D02*
X11353515Y-11921793D01*
X11353515Y-11921793D02*
X11353515Y-11874174D01*
X11353515Y-11874174D02*
X11363039Y-11836079D01*
X11363039Y-11836079D02*
X11372563Y-11817031D01*
X11372563Y-11817031D02*
X11382086Y-11807508D01*
X11382086Y-11807508D02*
X11401134Y-11797984D01*
X11553515Y-11978936D02*
X11563039Y-11988460D01*
X11563039Y-11988460D02*
X11553515Y-11997984D01*
X11553515Y-11997984D02*
X11543991Y-11988460D01*
X11543991Y-11988460D02*
X11553515Y-11978936D01*
X11553515Y-11978936D02*
X11553515Y-11997984D01*
X11686848Y-11797984D02*
X11705896Y-11797984D01*
X11705896Y-11797984D02*
X11724944Y-11807508D01*
X11724944Y-11807508D02*
X11734467Y-11817031D01*
X11734467Y-11817031D02*
X11743991Y-11836079D01*
X11743991Y-11836079D02*
X11753515Y-11874174D01*
X11753515Y-11874174D02*
X11753515Y-11921793D01*
X11753515Y-11921793D02*
X11743991Y-11959888D01*
X11743991Y-11959888D02*
X11734467Y-11978936D01*
X11734467Y-11978936D02*
X11724944Y-11988460D01*
X11724944Y-11988460D02*
X11705896Y-11997984D01*
X11705896Y-11997984D02*
X11686848Y-11997984D01*
X11686848Y-11997984D02*
X11667801Y-11988460D01*
X11667801Y-11988460D02*
X11658277Y-11978936D01*
X11658277Y-11978936D02*
X11648753Y-11959888D01*
X11648753Y-11959888D02*
X11639229Y-11921793D01*
X11639229Y-11921793D02*
X11639229Y-11874174D01*
X11639229Y-11874174D02*
X11648753Y-11836079D01*
X11648753Y-11836079D02*
X11658277Y-11817031D01*
X11658277Y-11817031D02*
X11667801Y-11807508D01*
X11667801Y-11807508D02*
X11686848Y-11797984D01*
X11943991Y-11997984D02*
X11829706Y-11997984D01*
X11886848Y-11997984D02*
X11886848Y-11797984D01*
X11886848Y-11797984D02*
X11867801Y-11826555D01*
X11867801Y-11826555D02*
X11848753Y-11845603D01*
X11848753Y-11845603D02*
X11829706Y-11855127D01*
X12010658Y-11797984D02*
X12143991Y-11797984D01*
X12143991Y-11797984D02*
X12058277Y-11997984D01*
X12201134Y-11797984D02*
X12334467Y-11797984D01*
X12334467Y-11797984D02*
X12248753Y-11997984D01*
X12401134Y-11797984D02*
X12401134Y-11836079D01*
X12477325Y-11797984D02*
X12477325Y-11836079D01*
X12772563Y-12074174D02*
X12763039Y-12064650D01*
X12763039Y-12064650D02*
X12743991Y-12036079D01*
X12743991Y-12036079D02*
X12734468Y-12017031D01*
X12734468Y-12017031D02*
X12724944Y-11988460D01*
X12724944Y-11988460D02*
X12715420Y-11940841D01*
X12715420Y-11940841D02*
X12715420Y-11902746D01*
X12715420Y-11902746D02*
X12724944Y-11855127D01*
X12724944Y-11855127D02*
X12734468Y-11826555D01*
X12734468Y-11826555D02*
X12743991Y-11807508D01*
X12743991Y-11807508D02*
X12763039Y-11778936D01*
X12763039Y-11778936D02*
X12772563Y-11769412D01*
X12943991Y-11797984D02*
X12848753Y-11797984D01*
X12848753Y-11797984D02*
X12839229Y-11893222D01*
X12839229Y-11893222D02*
X12848753Y-11883698D01*
X12848753Y-11883698D02*
X12867801Y-11874174D01*
X12867801Y-11874174D02*
X12915420Y-11874174D01*
X12915420Y-11874174D02*
X12934468Y-11883698D01*
X12934468Y-11883698D02*
X12943991Y-11893222D01*
X12943991Y-11893222D02*
X12953515Y-11912269D01*
X12953515Y-11912269D02*
X12953515Y-11959888D01*
X12953515Y-11959888D02*
X12943991Y-11978936D01*
X12943991Y-11978936D02*
X12934468Y-11988460D01*
X12934468Y-11988460D02*
X12915420Y-11997984D01*
X12915420Y-11997984D02*
X12867801Y-11997984D01*
X12867801Y-11997984D02*
X12848753Y-11988460D01*
X12848753Y-11988460D02*
X12839229Y-11978936D01*
X13191610Y-11997984D02*
X13191610Y-11797984D01*
X13277325Y-11997984D02*
X13277325Y-11893222D01*
X13277325Y-11893222D02*
X13267801Y-11874174D01*
X13267801Y-11874174D02*
X13248753Y-11864650D01*
X13248753Y-11864650D02*
X13220182Y-11864650D01*
X13220182Y-11864650D02*
X13201134Y-11874174D01*
X13201134Y-11874174D02*
X13191610Y-11883698D01*
X13401134Y-11997984D02*
X13382087Y-11988460D01*
X13382087Y-11988460D02*
X13372563Y-11978936D01*
X13372563Y-11978936D02*
X13363039Y-11959888D01*
X13363039Y-11959888D02*
X13363039Y-11902746D01*
X13363039Y-11902746D02*
X13372563Y-11883698D01*
X13372563Y-11883698D02*
X13382087Y-11874174D01*
X13382087Y-11874174D02*
X13401134Y-11864650D01*
X13401134Y-11864650D02*
X13429706Y-11864650D01*
X13429706Y-11864650D02*
X13448753Y-11874174D01*
X13448753Y-11874174D02*
X13458277Y-11883698D01*
X13458277Y-11883698D02*
X13467801Y-11902746D01*
X13467801Y-11902746D02*
X13467801Y-11959888D01*
X13467801Y-11959888D02*
X13458277Y-11978936D01*
X13458277Y-11978936D02*
X13448753Y-11988460D01*
X13448753Y-11988460D02*
X13429706Y-11997984D01*
X13429706Y-11997984D02*
X13401134Y-11997984D01*
X13582087Y-11997984D02*
X13563039Y-11988460D01*
X13563039Y-11988460D02*
X13553515Y-11969412D01*
X13553515Y-11969412D02*
X13553515Y-11797984D01*
X13734468Y-11988460D02*
X13715420Y-11997984D01*
X13715420Y-11997984D02*
X13677325Y-11997984D01*
X13677325Y-11997984D02*
X13658277Y-11988460D01*
X13658277Y-11988460D02*
X13648753Y-11969412D01*
X13648753Y-11969412D02*
X13648753Y-11893222D01*
X13648753Y-11893222D02*
X13658277Y-11874174D01*
X13658277Y-11874174D02*
X13677325Y-11864650D01*
X13677325Y-11864650D02*
X13715420Y-11864650D01*
X13715420Y-11864650D02*
X13734468Y-11874174D01*
X13734468Y-11874174D02*
X13743991Y-11893222D01*
X13743991Y-11893222D02*
X13743991Y-11912269D01*
X13743991Y-11912269D02*
X13648753Y-11931317D01*
X13820182Y-11988460D02*
X13839230Y-11997984D01*
X13839230Y-11997984D02*
X13877325Y-11997984D01*
X13877325Y-11997984D02*
X13896372Y-11988460D01*
X13896372Y-11988460D02*
X13905896Y-11969412D01*
X13905896Y-11969412D02*
X13905896Y-11959888D01*
X13905896Y-11959888D02*
X13896372Y-11940841D01*
X13896372Y-11940841D02*
X13877325Y-11931317D01*
X13877325Y-11931317D02*
X13848753Y-11931317D01*
X13848753Y-11931317D02*
X13829706Y-11921793D01*
X13829706Y-11921793D02*
X13820182Y-11902746D01*
X13820182Y-11902746D02*
X13820182Y-11893222D01*
X13820182Y-11893222D02*
X13829706Y-11874174D01*
X13829706Y-11874174D02*
X13848753Y-11864650D01*
X13848753Y-11864650D02*
X13877325Y-11864650D01*
X13877325Y-11864650D02*
X13896372Y-11874174D01*
X13972563Y-12074174D02*
X13982087Y-12064650D01*
X13982087Y-12064650D02*
X14001134Y-12036079D01*
X14001134Y-12036079D02*
X14010658Y-12017031D01*
X14010658Y-12017031D02*
X14020182Y-11988460D01*
X14020182Y-11988460D02*
X14029706Y-11940841D01*
X14029706Y-11940841D02*
X14029706Y-11902746D01*
X14029706Y-11902746D02*
X14020182Y-11855127D01*
X14020182Y-11855127D02*
X14010658Y-11826555D01*
X14010658Y-11826555D02*
X14001134Y-11807508D01*
X14001134Y-11807508D02*
X13982087Y-11778936D01*
X13982087Y-11778936D02*
X13972563Y-11769412D01*
D12*
X9167500Y-12140500D02*
X9167500Y-12200500D01*
X9137500Y-12170500D02*
X9197500Y-12170500D01*
D11*
X9496372Y-12061984D02*
X9515420Y-12061984D01*
X9515420Y-12061984D02*
X9534467Y-12071508D01*
X9534467Y-12071508D02*
X9543991Y-12081031D01*
X9543991Y-12081031D02*
X9553515Y-12100079D01*
X9553515Y-12100079D02*
X9563039Y-12138174D01*
X9563039Y-12138174D02*
X9563039Y-12185793D01*
X9563039Y-12185793D02*
X9553515Y-12223888D01*
X9553515Y-12223888D02*
X9543991Y-12242936D01*
X9543991Y-12242936D02*
X9534467Y-12252460D01*
X9534467Y-12252460D02*
X9515420Y-12261984D01*
X9515420Y-12261984D02*
X9496372Y-12261984D01*
X9496372Y-12261984D02*
X9477324Y-12252460D01*
X9477324Y-12252460D02*
X9467801Y-12242936D01*
X9467801Y-12242936D02*
X9458277Y-12223888D01*
X9458277Y-12223888D02*
X9448753Y-12185793D01*
X9448753Y-12185793D02*
X9448753Y-12138174D01*
X9448753Y-12138174D02*
X9458277Y-12100079D01*
X9458277Y-12100079D02*
X9467801Y-12081031D01*
X9467801Y-12081031D02*
X9477324Y-12071508D01*
X9477324Y-12071508D02*
X9496372Y-12061984D01*
X9648753Y-12242936D02*
X9658277Y-12252460D01*
X9658277Y-12252460D02*
X9648753Y-12261984D01*
X9648753Y-12261984D02*
X9639229Y-12252460D01*
X9639229Y-12252460D02*
X9648753Y-12242936D01*
X9648753Y-12242936D02*
X9648753Y-12261984D01*
X9829705Y-12061984D02*
X9791610Y-12061984D01*
X9791610Y-12061984D02*
X9772563Y-12071508D01*
X9772563Y-12071508D02*
X9763039Y-12081031D01*
X9763039Y-12081031D02*
X9743991Y-12109603D01*
X9743991Y-12109603D02*
X9734467Y-12147698D01*
X9734467Y-12147698D02*
X9734467Y-12223888D01*
X9734467Y-12223888D02*
X9743991Y-12242936D01*
X9743991Y-12242936D02*
X9753515Y-12252460D01*
X9753515Y-12252460D02*
X9772563Y-12261984D01*
X9772563Y-12261984D02*
X9810658Y-12261984D01*
X9810658Y-12261984D02*
X9829705Y-12252460D01*
X9829705Y-12252460D02*
X9839229Y-12242936D01*
X9839229Y-12242936D02*
X9848753Y-12223888D01*
X9848753Y-12223888D02*
X9848753Y-12176269D01*
X9848753Y-12176269D02*
X9839229Y-12157222D01*
X9839229Y-12157222D02*
X9829705Y-12147698D01*
X9829705Y-12147698D02*
X9810658Y-12138174D01*
X9810658Y-12138174D02*
X9772563Y-12138174D01*
X9772563Y-12138174D02*
X9753515Y-12147698D01*
X9753515Y-12147698D02*
X9743991Y-12157222D01*
X9743991Y-12157222D02*
X9734467Y-12176269D01*
X9972563Y-12061984D02*
X9991610Y-12061984D01*
X9991610Y-12061984D02*
X10010658Y-12071508D01*
X10010658Y-12071508D02*
X10020182Y-12081031D01*
X10020182Y-12081031D02*
X10029705Y-12100079D01*
X10029705Y-12100079D02*
X10039229Y-12138174D01*
X10039229Y-12138174D02*
X10039229Y-12185793D01*
X10039229Y-12185793D02*
X10029705Y-12223888D01*
X10029705Y-12223888D02*
X10020182Y-12242936D01*
X10020182Y-12242936D02*
X10010658Y-12252460D01*
X10010658Y-12252460D02*
X9991610Y-12261984D01*
X9991610Y-12261984D02*
X9972563Y-12261984D01*
X9972563Y-12261984D02*
X9953515Y-12252460D01*
X9953515Y-12252460D02*
X9943991Y-12242936D01*
X9943991Y-12242936D02*
X9934467Y-12223888D01*
X9934467Y-12223888D02*
X9924944Y-12185793D01*
X9924944Y-12185793D02*
X9924944Y-12138174D01*
X9924944Y-12138174D02*
X9934467Y-12100079D01*
X9934467Y-12100079D02*
X9943991Y-12081031D01*
X9943991Y-12081031D02*
X9953515Y-12071508D01*
X9953515Y-12071508D02*
X9972563Y-12061984D01*
X10163039Y-12061984D02*
X10182086Y-12061984D01*
X10182086Y-12061984D02*
X10201134Y-12071508D01*
X10201134Y-12071508D02*
X10210658Y-12081031D01*
X10210658Y-12081031D02*
X10220182Y-12100079D01*
X10220182Y-12100079D02*
X10229705Y-12138174D01*
X10229705Y-12138174D02*
X10229705Y-12185793D01*
X10229705Y-12185793D02*
X10220182Y-12223888D01*
X10220182Y-12223888D02*
X10210658Y-12242936D01*
X10210658Y-12242936D02*
X10201134Y-12252460D01*
X10201134Y-12252460D02*
X10182086Y-12261984D01*
X10182086Y-12261984D02*
X10163039Y-12261984D01*
X10163039Y-12261984D02*
X10143991Y-12252460D01*
X10143991Y-12252460D02*
X10134467Y-12242936D01*
X10134467Y-12242936D02*
X10124944Y-12223888D01*
X10124944Y-12223888D02*
X10115420Y-12185793D01*
X10115420Y-12185793D02*
X10115420Y-12138174D01*
X10115420Y-12138174D02*
X10124944Y-12100079D01*
X10124944Y-12100079D02*
X10134467Y-12081031D01*
X10134467Y-12081031D02*
X10143991Y-12071508D01*
X10143991Y-12071508D02*
X10163039Y-12061984D01*
X10315420Y-12261984D02*
X10315420Y-12128650D01*
X10315420Y-12147698D02*
X10324944Y-12138174D01*
X10324944Y-12138174D02*
X10343991Y-12128650D01*
X10343991Y-12128650D02*
X10372563Y-12128650D01*
X10372563Y-12128650D02*
X10391610Y-12138174D01*
X10391610Y-12138174D02*
X10401134Y-12157222D01*
X10401134Y-12157222D02*
X10401134Y-12261984D01*
X10401134Y-12157222D02*
X10410658Y-12138174D01*
X10410658Y-12138174D02*
X10429705Y-12128650D01*
X10429705Y-12128650D02*
X10458277Y-12128650D01*
X10458277Y-12128650D02*
X10477325Y-12138174D01*
X10477325Y-12138174D02*
X10486848Y-12157222D01*
X10486848Y-12157222D02*
X10486848Y-12261984D01*
X10582086Y-12261984D02*
X10582086Y-12128650D01*
X10582086Y-12147698D02*
X10591610Y-12138174D01*
X10591610Y-12138174D02*
X10610658Y-12128650D01*
X10610658Y-12128650D02*
X10639229Y-12128650D01*
X10639229Y-12128650D02*
X10658277Y-12138174D01*
X10658277Y-12138174D02*
X10667801Y-12157222D01*
X10667801Y-12157222D02*
X10667801Y-12261984D01*
X10667801Y-12157222D02*
X10677325Y-12138174D01*
X10677325Y-12138174D02*
X10696372Y-12128650D01*
X10696372Y-12128650D02*
X10724944Y-12128650D01*
X10724944Y-12128650D02*
X10743991Y-12138174D01*
X10743991Y-12138174D02*
X10753515Y-12157222D01*
X10753515Y-12157222D02*
X10753515Y-12261984D01*
X11143991Y-12052460D02*
X10972563Y-12309603D01*
X11401134Y-12061984D02*
X11420182Y-12061984D01*
X11420182Y-12061984D02*
X11439229Y-12071508D01*
X11439229Y-12071508D02*
X11448753Y-12081031D01*
X11448753Y-12081031D02*
X11458277Y-12100079D01*
X11458277Y-12100079D02*
X11467801Y-12138174D01*
X11467801Y-12138174D02*
X11467801Y-12185793D01*
X11467801Y-12185793D02*
X11458277Y-12223888D01*
X11458277Y-12223888D02*
X11448753Y-12242936D01*
X11448753Y-12242936D02*
X11439229Y-12252460D01*
X11439229Y-12252460D02*
X11420182Y-12261984D01*
X11420182Y-12261984D02*
X11401134Y-12261984D01*
X11401134Y-12261984D02*
X11382086Y-12252460D01*
X11382086Y-12252460D02*
X11372563Y-12242936D01*
X11372563Y-12242936D02*
X11363039Y-12223888D01*
X11363039Y-12223888D02*
X11353515Y-12185793D01*
X11353515Y-12185793D02*
X11353515Y-12138174D01*
X11353515Y-12138174D02*
X11363039Y-12100079D01*
X11363039Y-12100079D02*
X11372563Y-12081031D01*
X11372563Y-12081031D02*
X11382086Y-12071508D01*
X11382086Y-12071508D02*
X11401134Y-12061984D01*
X11553515Y-12242936D02*
X11563039Y-12252460D01*
X11563039Y-12252460D02*
X11553515Y-12261984D01*
X11553515Y-12261984D02*
X11543991Y-12252460D01*
X11543991Y-12252460D02*
X11553515Y-12242936D01*
X11553515Y-12242936D02*
X11553515Y-12261984D01*
X11686848Y-12061984D02*
X11705896Y-12061984D01*
X11705896Y-12061984D02*
X11724944Y-12071508D01*
X11724944Y-12071508D02*
X11734467Y-12081031D01*
X11734467Y-12081031D02*
X11743991Y-12100079D01*
X11743991Y-12100079D02*
X11753515Y-12138174D01*
X11753515Y-12138174D02*
X11753515Y-12185793D01*
X11753515Y-12185793D02*
X11743991Y-12223888D01*
X11743991Y-12223888D02*
X11734467Y-12242936D01*
X11734467Y-12242936D02*
X11724944Y-12252460D01*
X11724944Y-12252460D02*
X11705896Y-12261984D01*
X11705896Y-12261984D02*
X11686848Y-12261984D01*
X11686848Y-12261984D02*
X11667801Y-12252460D01*
X11667801Y-12252460D02*
X11658277Y-12242936D01*
X11658277Y-12242936D02*
X11648753Y-12223888D01*
X11648753Y-12223888D02*
X11639229Y-12185793D01*
X11639229Y-12185793D02*
X11639229Y-12138174D01*
X11639229Y-12138174D02*
X11648753Y-12100079D01*
X11648753Y-12100079D02*
X11658277Y-12081031D01*
X11658277Y-12081031D02*
X11667801Y-12071508D01*
X11667801Y-12071508D02*
X11686848Y-12061984D01*
X11829706Y-12081031D02*
X11839229Y-12071508D01*
X11839229Y-12071508D02*
X11858277Y-12061984D01*
X11858277Y-12061984D02*
X11905896Y-12061984D01*
X11905896Y-12061984D02*
X11924944Y-12071508D01*
X11924944Y-12071508D02*
X11934467Y-12081031D01*
X11934467Y-12081031D02*
X11943991Y-12100079D01*
X11943991Y-12100079D02*
X11943991Y-12119127D01*
X11943991Y-12119127D02*
X11934467Y-12147698D01*
X11934467Y-12147698D02*
X11820182Y-12261984D01*
X11820182Y-12261984D02*
X11943991Y-12261984D01*
X12010658Y-12061984D02*
X12134467Y-12061984D01*
X12134467Y-12061984D02*
X12067801Y-12138174D01*
X12067801Y-12138174D02*
X12096372Y-12138174D01*
X12096372Y-12138174D02*
X12115420Y-12147698D01*
X12115420Y-12147698D02*
X12124944Y-12157222D01*
X12124944Y-12157222D02*
X12134467Y-12176269D01*
X12134467Y-12176269D02*
X12134467Y-12223888D01*
X12134467Y-12223888D02*
X12124944Y-12242936D01*
X12124944Y-12242936D02*
X12115420Y-12252460D01*
X12115420Y-12252460D02*
X12096372Y-12261984D01*
X12096372Y-12261984D02*
X12039229Y-12261984D01*
X12039229Y-12261984D02*
X12020182Y-12252460D01*
X12020182Y-12252460D02*
X12010658Y-12242936D01*
X12305896Y-12061984D02*
X12267801Y-12061984D01*
X12267801Y-12061984D02*
X12248753Y-12071508D01*
X12248753Y-12071508D02*
X12239229Y-12081031D01*
X12239229Y-12081031D02*
X12220182Y-12109603D01*
X12220182Y-12109603D02*
X12210658Y-12147698D01*
X12210658Y-12147698D02*
X12210658Y-12223888D01*
X12210658Y-12223888D02*
X12220182Y-12242936D01*
X12220182Y-12242936D02*
X12229706Y-12252460D01*
X12229706Y-12252460D02*
X12248753Y-12261984D01*
X12248753Y-12261984D02*
X12286848Y-12261984D01*
X12286848Y-12261984D02*
X12305896Y-12252460D01*
X12305896Y-12252460D02*
X12315420Y-12242936D01*
X12315420Y-12242936D02*
X12324944Y-12223888D01*
X12324944Y-12223888D02*
X12324944Y-12176269D01*
X12324944Y-12176269D02*
X12315420Y-12157222D01*
X12315420Y-12157222D02*
X12305896Y-12147698D01*
X12305896Y-12147698D02*
X12286848Y-12138174D01*
X12286848Y-12138174D02*
X12248753Y-12138174D01*
X12248753Y-12138174D02*
X12229706Y-12147698D01*
X12229706Y-12147698D02*
X12220182Y-12157222D01*
X12220182Y-12157222D02*
X12210658Y-12176269D01*
X12401134Y-12061984D02*
X12401134Y-12100079D01*
X12477325Y-12061984D02*
X12477325Y-12100079D01*
X12772563Y-12338174D02*
X12763039Y-12328650D01*
X12763039Y-12328650D02*
X12743991Y-12300079D01*
X12743991Y-12300079D02*
X12734468Y-12281031D01*
X12734468Y-12281031D02*
X12724944Y-12252460D01*
X12724944Y-12252460D02*
X12715420Y-12204841D01*
X12715420Y-12204841D02*
X12715420Y-12166746D01*
X12715420Y-12166746D02*
X12724944Y-12119127D01*
X12724944Y-12119127D02*
X12734468Y-12090555D01*
X12734468Y-12090555D02*
X12743991Y-12071508D01*
X12743991Y-12071508D02*
X12763039Y-12042936D01*
X12763039Y-12042936D02*
X12772563Y-12033412D01*
X12886848Y-12061984D02*
X12905896Y-12061984D01*
X12905896Y-12061984D02*
X12924944Y-12071508D01*
X12924944Y-12071508D02*
X12934468Y-12081031D01*
X12934468Y-12081031D02*
X12943991Y-12100079D01*
X12943991Y-12100079D02*
X12953515Y-12138174D01*
X12953515Y-12138174D02*
X12953515Y-12185793D01*
X12953515Y-12185793D02*
X12943991Y-12223888D01*
X12943991Y-12223888D02*
X12934468Y-12242936D01*
X12934468Y-12242936D02*
X12924944Y-12252460D01*
X12924944Y-12252460D02*
X12905896Y-12261984D01*
X12905896Y-12261984D02*
X12886848Y-12261984D01*
X12886848Y-12261984D02*
X12867801Y-12252460D01*
X12867801Y-12252460D02*
X12858277Y-12242936D01*
X12858277Y-12242936D02*
X12848753Y-12223888D01*
X12848753Y-12223888D02*
X12839229Y-12185793D01*
X12839229Y-12185793D02*
X12839229Y-12138174D01*
X12839229Y-12138174D02*
X12848753Y-12100079D01*
X12848753Y-12100079D02*
X12858277Y-12081031D01*
X12858277Y-12081031D02*
X12867801Y-12071508D01*
X12867801Y-12071508D02*
X12886848Y-12061984D01*
X13191610Y-12261984D02*
X13191610Y-12061984D01*
X13277325Y-12261984D02*
X13277325Y-12157222D01*
X13277325Y-12157222D02*
X13267801Y-12138174D01*
X13267801Y-12138174D02*
X13248753Y-12128650D01*
X13248753Y-12128650D02*
X13220182Y-12128650D01*
X13220182Y-12128650D02*
X13201134Y-12138174D01*
X13201134Y-12138174D02*
X13191610Y-12147698D01*
X13401134Y-12261984D02*
X13382087Y-12252460D01*
X13382087Y-12252460D02*
X13372563Y-12242936D01*
X13372563Y-12242936D02*
X13363039Y-12223888D01*
X13363039Y-12223888D02*
X13363039Y-12166746D01*
X13363039Y-12166746D02*
X13372563Y-12147698D01*
X13372563Y-12147698D02*
X13382087Y-12138174D01*
X13382087Y-12138174D02*
X13401134Y-12128650D01*
X13401134Y-12128650D02*
X13429706Y-12128650D01*
X13429706Y-12128650D02*
X13448753Y-12138174D01*
X13448753Y-12138174D02*
X13458277Y-12147698D01*
X13458277Y-12147698D02*
X13467801Y-12166746D01*
X13467801Y-12166746D02*
X13467801Y-12223888D01*
X13467801Y-12223888D02*
X13458277Y-12242936D01*
X13458277Y-12242936D02*
X13448753Y-12252460D01*
X13448753Y-12252460D02*
X13429706Y-12261984D01*
X13429706Y-12261984D02*
X13401134Y-12261984D01*
X13582087Y-12261984D02*
X13563039Y-12252460D01*
X13563039Y-12252460D02*
X13553515Y-12233412D01*
X13553515Y-12233412D02*
X13553515Y-12061984D01*
X13734468Y-12252460D02*
X13715420Y-12261984D01*
X13715420Y-12261984D02*
X13677325Y-12261984D01*
X13677325Y-12261984D02*
X13658277Y-12252460D01*
X13658277Y-12252460D02*
X13648753Y-12233412D01*
X13648753Y-12233412D02*
X13648753Y-12157222D01*
X13648753Y-12157222D02*
X13658277Y-12138174D01*
X13658277Y-12138174D02*
X13677325Y-12128650D01*
X13677325Y-12128650D02*
X13715420Y-12128650D01*
X13715420Y-12128650D02*
X13734468Y-12138174D01*
X13734468Y-12138174D02*
X13743991Y-12157222D01*
X13743991Y-12157222D02*
X13743991Y-12176269D01*
X13743991Y-12176269D02*
X13648753Y-12195317D01*
X13820182Y-12252460D02*
X13839230Y-12261984D01*
X13839230Y-12261984D02*
X13877325Y-12261984D01*
X13877325Y-12261984D02*
X13896372Y-12252460D01*
X13896372Y-12252460D02*
X13905896Y-12233412D01*
X13905896Y-12233412D02*
X13905896Y-12223888D01*
X13905896Y-12223888D02*
X13896372Y-12204841D01*
X13896372Y-12204841D02*
X13877325Y-12195317D01*
X13877325Y-12195317D02*
X13848753Y-12195317D01*
X13848753Y-12195317D02*
X13829706Y-12185793D01*
X13829706Y-12185793D02*
X13820182Y-12166746D01*
X13820182Y-12166746D02*
X13820182Y-12157222D01*
X13820182Y-12157222D02*
X13829706Y-12138174D01*
X13829706Y-12138174D02*
X13848753Y-12128650D01*
X13848753Y-12128650D02*
X13877325Y-12128650D01*
X13877325Y-12128650D02*
X13896372Y-12138174D01*
X14143992Y-12185793D02*
X14296373Y-12185793D01*
X14220182Y-12261984D02*
X14220182Y-12109603D01*
X14629706Y-12128650D02*
X14629706Y-12261984D01*
X14582087Y-12052460D02*
X14534468Y-12195317D01*
X14534468Y-12195317D02*
X14658277Y-12195317D01*
X14877325Y-12252460D02*
X14896373Y-12261984D01*
X14896373Y-12261984D02*
X14934468Y-12261984D01*
X14934468Y-12261984D02*
X14953515Y-12252460D01*
X14953515Y-12252460D02*
X14963039Y-12233412D01*
X14963039Y-12233412D02*
X14963039Y-12223888D01*
X14963039Y-12223888D02*
X14953515Y-12204841D01*
X14953515Y-12204841D02*
X14934468Y-12195317D01*
X14934468Y-12195317D02*
X14905896Y-12195317D01*
X14905896Y-12195317D02*
X14886849Y-12185793D01*
X14886849Y-12185793D02*
X14877325Y-12166746D01*
X14877325Y-12166746D02*
X14877325Y-12157222D01*
X14877325Y-12157222D02*
X14886849Y-12138174D01*
X14886849Y-12138174D02*
X14905896Y-12128650D01*
X14905896Y-12128650D02*
X14934468Y-12128650D01*
X14934468Y-12128650D02*
X14953515Y-12138174D01*
X15077325Y-12261984D02*
X15058277Y-12252460D01*
X15058277Y-12252460D02*
X15048754Y-12233412D01*
X15048754Y-12233412D02*
X15048754Y-12061984D01*
X15182087Y-12261984D02*
X15163039Y-12252460D01*
X15163039Y-12252460D02*
X15153515Y-12242936D01*
X15153515Y-12242936D02*
X15143992Y-12223888D01*
X15143992Y-12223888D02*
X15143992Y-12166746D01*
X15143992Y-12166746D02*
X15153515Y-12147698D01*
X15153515Y-12147698D02*
X15163039Y-12138174D01*
X15163039Y-12138174D02*
X15182087Y-12128650D01*
X15182087Y-12128650D02*
X15210658Y-12128650D01*
X15210658Y-12128650D02*
X15229706Y-12138174D01*
X15229706Y-12138174D02*
X15239230Y-12147698D01*
X15239230Y-12147698D02*
X15248754Y-12166746D01*
X15248754Y-12166746D02*
X15248754Y-12223888D01*
X15248754Y-12223888D02*
X15239230Y-12242936D01*
X15239230Y-12242936D02*
X15229706Y-12252460D01*
X15229706Y-12252460D02*
X15210658Y-12261984D01*
X15210658Y-12261984D02*
X15182087Y-12261984D01*
X15305896Y-12128650D02*
X15382087Y-12128650D01*
X15334468Y-12061984D02*
X15334468Y-12233412D01*
X15334468Y-12233412D02*
X15343992Y-12252460D01*
X15343992Y-12252460D02*
X15363039Y-12261984D01*
X15363039Y-12261984D02*
X15382087Y-12261984D01*
X15439230Y-12252460D02*
X15458277Y-12261984D01*
X15458277Y-12261984D02*
X15496373Y-12261984D01*
X15496373Y-12261984D02*
X15515420Y-12252460D01*
X15515420Y-12252460D02*
X15524944Y-12233412D01*
X15524944Y-12233412D02*
X15524944Y-12223888D01*
X15524944Y-12223888D02*
X15515420Y-12204841D01*
X15515420Y-12204841D02*
X15496373Y-12195317D01*
X15496373Y-12195317D02*
X15467801Y-12195317D01*
X15467801Y-12195317D02*
X15448754Y-12185793D01*
X15448754Y-12185793D02*
X15439230Y-12166746D01*
X15439230Y-12166746D02*
X15439230Y-12157222D01*
X15439230Y-12157222D02*
X15448754Y-12138174D01*
X15448754Y-12138174D02*
X15467801Y-12128650D01*
X15467801Y-12128650D02*
X15496373Y-12128650D01*
X15496373Y-12128650D02*
X15515420Y-12138174D01*
X15591611Y-12338174D02*
X15601135Y-12328650D01*
X15601135Y-12328650D02*
X15620182Y-12300079D01*
X15620182Y-12300079D02*
X15629706Y-12281031D01*
X15629706Y-12281031D02*
X15639230Y-12252460D01*
X15639230Y-12252460D02*
X15648754Y-12204841D01*
X15648754Y-12204841D02*
X15648754Y-12166746D01*
X15648754Y-12166746D02*
X15639230Y-12119127D01*
X15639230Y-12119127D02*
X15629706Y-12090555D01*
X15629706Y-12090555D02*
X15620182Y-12071508D01*
X15620182Y-12071508D02*
X15601135Y-12042936D01*
X15601135Y-12042936D02*
X15591611Y-12033412D01*
D12*
X9184320Y-12466320D02*
X9184320Y-12402680D01*
X9120680Y-12402680D01*
X9120680Y-12466320D01*
X9184320Y-12466320D01*
D11*
X9496372Y-12325984D02*
X9515420Y-12325984D01*
X9515420Y-12325984D02*
X9534467Y-12335508D01*
X9534467Y-12335508D02*
X9543991Y-12345031D01*
X9543991Y-12345031D02*
X9553515Y-12364079D01*
X9553515Y-12364079D02*
X9563039Y-12402174D01*
X9563039Y-12402174D02*
X9563039Y-12449793D01*
X9563039Y-12449793D02*
X9553515Y-12487888D01*
X9553515Y-12487888D02*
X9543991Y-12506936D01*
X9543991Y-12506936D02*
X9534467Y-12516460D01*
X9534467Y-12516460D02*
X9515420Y-12525984D01*
X9515420Y-12525984D02*
X9496372Y-12525984D01*
X9496372Y-12525984D02*
X9477324Y-12516460D01*
X9477324Y-12516460D02*
X9467801Y-12506936D01*
X9467801Y-12506936D02*
X9458277Y-12487888D01*
X9458277Y-12487888D02*
X9448753Y-12449793D01*
X9448753Y-12449793D02*
X9448753Y-12402174D01*
X9448753Y-12402174D02*
X9458277Y-12364079D01*
X9458277Y-12364079D02*
X9467801Y-12345031D01*
X9467801Y-12345031D02*
X9477324Y-12335508D01*
X9477324Y-12335508D02*
X9496372Y-12325984D01*
X9648753Y-12506936D02*
X9658277Y-12516460D01*
X9658277Y-12516460D02*
X9648753Y-12525984D01*
X9648753Y-12525984D02*
X9639229Y-12516460D01*
X9639229Y-12516460D02*
X9648753Y-12506936D01*
X9648753Y-12506936D02*
X9648753Y-12525984D01*
X9753515Y-12525984D02*
X9791610Y-12525984D01*
X9791610Y-12525984D02*
X9810658Y-12516460D01*
X9810658Y-12516460D02*
X9820182Y-12506936D01*
X9820182Y-12506936D02*
X9839229Y-12478365D01*
X9839229Y-12478365D02*
X9848753Y-12440269D01*
X9848753Y-12440269D02*
X9848753Y-12364079D01*
X9848753Y-12364079D02*
X9839229Y-12345031D01*
X9839229Y-12345031D02*
X9829705Y-12335508D01*
X9829705Y-12335508D02*
X9810658Y-12325984D01*
X9810658Y-12325984D02*
X9772563Y-12325984D01*
X9772563Y-12325984D02*
X9753515Y-12335508D01*
X9753515Y-12335508D02*
X9743991Y-12345031D01*
X9743991Y-12345031D02*
X9734467Y-12364079D01*
X9734467Y-12364079D02*
X9734467Y-12411698D01*
X9734467Y-12411698D02*
X9743991Y-12430746D01*
X9743991Y-12430746D02*
X9753515Y-12440269D01*
X9753515Y-12440269D02*
X9772563Y-12449793D01*
X9772563Y-12449793D02*
X9810658Y-12449793D01*
X9810658Y-12449793D02*
X9829705Y-12440269D01*
X9829705Y-12440269D02*
X9839229Y-12430746D01*
X9839229Y-12430746D02*
X9848753Y-12411698D01*
X9972563Y-12325984D02*
X9991610Y-12325984D01*
X9991610Y-12325984D02*
X10010658Y-12335508D01*
X10010658Y-12335508D02*
X10020182Y-12345031D01*
X10020182Y-12345031D02*
X10029705Y-12364079D01*
X10029705Y-12364079D02*
X10039229Y-12402174D01*
X10039229Y-12402174D02*
X10039229Y-12449793D01*
X10039229Y-12449793D02*
X10029705Y-12487888D01*
X10029705Y-12487888D02*
X10020182Y-12506936D01*
X10020182Y-12506936D02*
X10010658Y-12516460D01*
X10010658Y-12516460D02*
X9991610Y-12525984D01*
X9991610Y-12525984D02*
X9972563Y-12525984D01*
X9972563Y-12525984D02*
X9953515Y-12516460D01*
X9953515Y-12516460D02*
X9943991Y-12506936D01*
X9943991Y-12506936D02*
X9934467Y-12487888D01*
X9934467Y-12487888D02*
X9924944Y-12449793D01*
X9924944Y-12449793D02*
X9924944Y-12402174D01*
X9924944Y-12402174D02*
X9934467Y-12364079D01*
X9934467Y-12364079D02*
X9943991Y-12345031D01*
X9943991Y-12345031D02*
X9953515Y-12335508D01*
X9953515Y-12335508D02*
X9972563Y-12325984D01*
X10163039Y-12325984D02*
X10182086Y-12325984D01*
X10182086Y-12325984D02*
X10201134Y-12335508D01*
X10201134Y-12335508D02*
X10210658Y-12345031D01*
X10210658Y-12345031D02*
X10220182Y-12364079D01*
X10220182Y-12364079D02*
X10229705Y-12402174D01*
X10229705Y-12402174D02*
X10229705Y-12449793D01*
X10229705Y-12449793D02*
X10220182Y-12487888D01*
X10220182Y-12487888D02*
X10210658Y-12506936D01*
X10210658Y-12506936D02*
X10201134Y-12516460D01*
X10201134Y-12516460D02*
X10182086Y-12525984D01*
X10182086Y-12525984D02*
X10163039Y-12525984D01*
X10163039Y-12525984D02*
X10143991Y-12516460D01*
X10143991Y-12516460D02*
X10134467Y-12506936D01*
X10134467Y-12506936D02*
X10124944Y-12487888D01*
X10124944Y-12487888D02*
X10115420Y-12449793D01*
X10115420Y-12449793D02*
X10115420Y-12402174D01*
X10115420Y-12402174D02*
X10124944Y-12364079D01*
X10124944Y-12364079D02*
X10134467Y-12345031D01*
X10134467Y-12345031D02*
X10143991Y-12335508D01*
X10143991Y-12335508D02*
X10163039Y-12325984D01*
X10315420Y-12525984D02*
X10315420Y-12392650D01*
X10315420Y-12411698D02*
X10324944Y-12402174D01*
X10324944Y-12402174D02*
X10343991Y-12392650D01*
X10343991Y-12392650D02*
X10372563Y-12392650D01*
X10372563Y-12392650D02*
X10391610Y-12402174D01*
X10391610Y-12402174D02*
X10401134Y-12421222D01*
X10401134Y-12421222D02*
X10401134Y-12525984D01*
X10401134Y-12421222D02*
X10410658Y-12402174D01*
X10410658Y-12402174D02*
X10429705Y-12392650D01*
X10429705Y-12392650D02*
X10458277Y-12392650D01*
X10458277Y-12392650D02*
X10477325Y-12402174D01*
X10477325Y-12402174D02*
X10486848Y-12421222D01*
X10486848Y-12421222D02*
X10486848Y-12525984D01*
X10582086Y-12525984D02*
X10582086Y-12392650D01*
X10582086Y-12411698D02*
X10591610Y-12402174D01*
X10591610Y-12402174D02*
X10610658Y-12392650D01*
X10610658Y-12392650D02*
X10639229Y-12392650D01*
X10639229Y-12392650D02*
X10658277Y-12402174D01*
X10658277Y-12402174D02*
X10667801Y-12421222D01*
X10667801Y-12421222D02*
X10667801Y-12525984D01*
X10667801Y-12421222D02*
X10677325Y-12402174D01*
X10677325Y-12402174D02*
X10696372Y-12392650D01*
X10696372Y-12392650D02*
X10724944Y-12392650D01*
X10724944Y-12392650D02*
X10743991Y-12402174D01*
X10743991Y-12402174D02*
X10753515Y-12421222D01*
X10753515Y-12421222D02*
X10753515Y-12525984D01*
X11143991Y-12316460D02*
X10972563Y-12573603D01*
X11401134Y-12325984D02*
X11420182Y-12325984D01*
X11420182Y-12325984D02*
X11439229Y-12335508D01*
X11439229Y-12335508D02*
X11448753Y-12345031D01*
X11448753Y-12345031D02*
X11458277Y-12364079D01*
X11458277Y-12364079D02*
X11467801Y-12402174D01*
X11467801Y-12402174D02*
X11467801Y-12449793D01*
X11467801Y-12449793D02*
X11458277Y-12487888D01*
X11458277Y-12487888D02*
X11448753Y-12506936D01*
X11448753Y-12506936D02*
X11439229Y-12516460D01*
X11439229Y-12516460D02*
X11420182Y-12525984D01*
X11420182Y-12525984D02*
X11401134Y-12525984D01*
X11401134Y-12525984D02*
X11382086Y-12516460D01*
X11382086Y-12516460D02*
X11372563Y-12506936D01*
X11372563Y-12506936D02*
X11363039Y-12487888D01*
X11363039Y-12487888D02*
X11353515Y-12449793D01*
X11353515Y-12449793D02*
X11353515Y-12402174D01*
X11353515Y-12402174D02*
X11363039Y-12364079D01*
X11363039Y-12364079D02*
X11372563Y-12345031D01*
X11372563Y-12345031D02*
X11382086Y-12335508D01*
X11382086Y-12335508D02*
X11401134Y-12325984D01*
X11553515Y-12506936D02*
X11563039Y-12516460D01*
X11563039Y-12516460D02*
X11553515Y-12525984D01*
X11553515Y-12525984D02*
X11543991Y-12516460D01*
X11543991Y-12516460D02*
X11553515Y-12506936D01*
X11553515Y-12506936D02*
X11553515Y-12525984D01*
X11686848Y-12325984D02*
X11705896Y-12325984D01*
X11705896Y-12325984D02*
X11724944Y-12335508D01*
X11724944Y-12335508D02*
X11734467Y-12345031D01*
X11734467Y-12345031D02*
X11743991Y-12364079D01*
X11743991Y-12364079D02*
X11753515Y-12402174D01*
X11753515Y-12402174D02*
X11753515Y-12449793D01*
X11753515Y-12449793D02*
X11743991Y-12487888D01*
X11743991Y-12487888D02*
X11734467Y-12506936D01*
X11734467Y-12506936D02*
X11724944Y-12516460D01*
X11724944Y-12516460D02*
X11705896Y-12525984D01*
X11705896Y-12525984D02*
X11686848Y-12525984D01*
X11686848Y-12525984D02*
X11667801Y-12516460D01*
X11667801Y-12516460D02*
X11658277Y-12506936D01*
X11658277Y-12506936D02*
X11648753Y-12487888D01*
X11648753Y-12487888D02*
X11639229Y-12449793D01*
X11639229Y-12449793D02*
X11639229Y-12402174D01*
X11639229Y-12402174D02*
X11648753Y-12364079D01*
X11648753Y-12364079D02*
X11658277Y-12345031D01*
X11658277Y-12345031D02*
X11667801Y-12335508D01*
X11667801Y-12335508D02*
X11686848Y-12325984D01*
X11820182Y-12325984D02*
X11943991Y-12325984D01*
X11943991Y-12325984D02*
X11877325Y-12402174D01*
X11877325Y-12402174D02*
X11905896Y-12402174D01*
X11905896Y-12402174D02*
X11924944Y-12411698D01*
X11924944Y-12411698D02*
X11934467Y-12421222D01*
X11934467Y-12421222D02*
X11943991Y-12440269D01*
X11943991Y-12440269D02*
X11943991Y-12487888D01*
X11943991Y-12487888D02*
X11934467Y-12506936D01*
X11934467Y-12506936D02*
X11924944Y-12516460D01*
X11924944Y-12516460D02*
X11905896Y-12525984D01*
X11905896Y-12525984D02*
X11848753Y-12525984D01*
X11848753Y-12525984D02*
X11829706Y-12516460D01*
X11829706Y-12516460D02*
X11820182Y-12506936D01*
X12124944Y-12325984D02*
X12029706Y-12325984D01*
X12029706Y-12325984D02*
X12020182Y-12421222D01*
X12020182Y-12421222D02*
X12029706Y-12411698D01*
X12029706Y-12411698D02*
X12048753Y-12402174D01*
X12048753Y-12402174D02*
X12096372Y-12402174D01*
X12096372Y-12402174D02*
X12115420Y-12411698D01*
X12115420Y-12411698D02*
X12124944Y-12421222D01*
X12124944Y-12421222D02*
X12134467Y-12440269D01*
X12134467Y-12440269D02*
X12134467Y-12487888D01*
X12134467Y-12487888D02*
X12124944Y-12506936D01*
X12124944Y-12506936D02*
X12115420Y-12516460D01*
X12115420Y-12516460D02*
X12096372Y-12525984D01*
X12096372Y-12525984D02*
X12048753Y-12525984D01*
X12048753Y-12525984D02*
X12029706Y-12516460D01*
X12029706Y-12516460D02*
X12020182Y-12506936D01*
X12305896Y-12392650D02*
X12305896Y-12525984D01*
X12258277Y-12316460D02*
X12210658Y-12459317D01*
X12210658Y-12459317D02*
X12334467Y-12459317D01*
X12401134Y-12325984D02*
X12401134Y-12364079D01*
X12477325Y-12325984D02*
X12477325Y-12364079D01*
X12772563Y-12602174D02*
X12763039Y-12592650D01*
X12763039Y-12592650D02*
X12743991Y-12564079D01*
X12743991Y-12564079D02*
X12734468Y-12545031D01*
X12734468Y-12545031D02*
X12724944Y-12516460D01*
X12724944Y-12516460D02*
X12715420Y-12468841D01*
X12715420Y-12468841D02*
X12715420Y-12430746D01*
X12715420Y-12430746D02*
X12724944Y-12383127D01*
X12724944Y-12383127D02*
X12734468Y-12354555D01*
X12734468Y-12354555D02*
X12743991Y-12335508D01*
X12743991Y-12335508D02*
X12763039Y-12306936D01*
X12763039Y-12306936D02*
X12772563Y-12297412D01*
X12934468Y-12392650D02*
X12934468Y-12525984D01*
X12886848Y-12316460D02*
X12839229Y-12459317D01*
X12839229Y-12459317D02*
X12963039Y-12459317D01*
X13191610Y-12525984D02*
X13191610Y-12325984D01*
X13277325Y-12525984D02*
X13277325Y-12421222D01*
X13277325Y-12421222D02*
X13267801Y-12402174D01*
X13267801Y-12402174D02*
X13248753Y-12392650D01*
X13248753Y-12392650D02*
X13220182Y-12392650D01*
X13220182Y-12392650D02*
X13201134Y-12402174D01*
X13201134Y-12402174D02*
X13191610Y-12411698D01*
X13401134Y-12525984D02*
X13382087Y-12516460D01*
X13382087Y-12516460D02*
X13372563Y-12506936D01*
X13372563Y-12506936D02*
X13363039Y-12487888D01*
X13363039Y-12487888D02*
X13363039Y-12430746D01*
X13363039Y-12430746D02*
X13372563Y-12411698D01*
X13372563Y-12411698D02*
X13382087Y-12402174D01*
X13382087Y-12402174D02*
X13401134Y-12392650D01*
X13401134Y-12392650D02*
X13429706Y-12392650D01*
X13429706Y-12392650D02*
X13448753Y-12402174D01*
X13448753Y-12402174D02*
X13458277Y-12411698D01*
X13458277Y-12411698D02*
X13467801Y-12430746D01*
X13467801Y-12430746D02*
X13467801Y-12487888D01*
X13467801Y-12487888D02*
X13458277Y-12506936D01*
X13458277Y-12506936D02*
X13448753Y-12516460D01*
X13448753Y-12516460D02*
X13429706Y-12525984D01*
X13429706Y-12525984D02*
X13401134Y-12525984D01*
X13582087Y-12525984D02*
X13563039Y-12516460D01*
X13563039Y-12516460D02*
X13553515Y-12497412D01*
X13553515Y-12497412D02*
X13553515Y-12325984D01*
X13734468Y-12516460D02*
X13715420Y-12525984D01*
X13715420Y-12525984D02*
X13677325Y-12525984D01*
X13677325Y-12525984D02*
X13658277Y-12516460D01*
X13658277Y-12516460D02*
X13648753Y-12497412D01*
X13648753Y-12497412D02*
X13648753Y-12421222D01*
X13648753Y-12421222D02*
X13658277Y-12402174D01*
X13658277Y-12402174D02*
X13677325Y-12392650D01*
X13677325Y-12392650D02*
X13715420Y-12392650D01*
X13715420Y-12392650D02*
X13734468Y-12402174D01*
X13734468Y-12402174D02*
X13743991Y-12421222D01*
X13743991Y-12421222D02*
X13743991Y-12440269D01*
X13743991Y-12440269D02*
X13648753Y-12459317D01*
X13820182Y-12516460D02*
X13839230Y-12525984D01*
X13839230Y-12525984D02*
X13877325Y-12525984D01*
X13877325Y-12525984D02*
X13896372Y-12516460D01*
X13896372Y-12516460D02*
X13905896Y-12497412D01*
X13905896Y-12497412D02*
X13905896Y-12487888D01*
X13905896Y-12487888D02*
X13896372Y-12468841D01*
X13896372Y-12468841D02*
X13877325Y-12459317D01*
X13877325Y-12459317D02*
X13848753Y-12459317D01*
X13848753Y-12459317D02*
X13829706Y-12449793D01*
X13829706Y-12449793D02*
X13820182Y-12430746D01*
X13820182Y-12430746D02*
X13820182Y-12421222D01*
X13820182Y-12421222D02*
X13829706Y-12402174D01*
X13829706Y-12402174D02*
X13848753Y-12392650D01*
X13848753Y-12392650D02*
X13877325Y-12392650D01*
X13877325Y-12392650D02*
X13896372Y-12402174D01*
X13972563Y-12602174D02*
X13982087Y-12592650D01*
X13982087Y-12592650D02*
X14001134Y-12564079D01*
X14001134Y-12564079D02*
X14010658Y-12545031D01*
X14010658Y-12545031D02*
X14020182Y-12516460D01*
X14020182Y-12516460D02*
X14029706Y-12468841D01*
X14029706Y-12468841D02*
X14029706Y-12430746D01*
X14029706Y-12430746D02*
X14020182Y-12383127D01*
X14020182Y-12383127D02*
X14010658Y-12354555D01*
X14010658Y-12354555D02*
X14001134Y-12335508D01*
X14001134Y-12335508D02*
X13982087Y-12306936D01*
X13982087Y-12306936D02*
X13972563Y-12297412D01*
D12*
X9147500Y-12748500D02*
X9197500Y-12698500D01*
X9147500Y-12648500D01*
X9097500Y-12698500D01*
X9147500Y-12748500D01*
D11*
X9563039Y-12789984D02*
X9448753Y-12789984D01*
X9505896Y-12789984D02*
X9505896Y-12589984D01*
X9505896Y-12589984D02*
X9486848Y-12618555D01*
X9486848Y-12618555D02*
X9467801Y-12637603D01*
X9467801Y-12637603D02*
X9448753Y-12647127D01*
X9648753Y-12770936D02*
X9658277Y-12780460D01*
X9658277Y-12780460D02*
X9648753Y-12789984D01*
X9648753Y-12789984D02*
X9639229Y-12780460D01*
X9639229Y-12780460D02*
X9648753Y-12770936D01*
X9648753Y-12770936D02*
X9648753Y-12789984D01*
X9782086Y-12589984D02*
X9801134Y-12589984D01*
X9801134Y-12589984D02*
X9820182Y-12599508D01*
X9820182Y-12599508D02*
X9829705Y-12609031D01*
X9829705Y-12609031D02*
X9839229Y-12628079D01*
X9839229Y-12628079D02*
X9848753Y-12666174D01*
X9848753Y-12666174D02*
X9848753Y-12713793D01*
X9848753Y-12713793D02*
X9839229Y-12751888D01*
X9839229Y-12751888D02*
X9829705Y-12770936D01*
X9829705Y-12770936D02*
X9820182Y-12780460D01*
X9820182Y-12780460D02*
X9801134Y-12789984D01*
X9801134Y-12789984D02*
X9782086Y-12789984D01*
X9782086Y-12789984D02*
X9763039Y-12780460D01*
X9763039Y-12780460D02*
X9753515Y-12770936D01*
X9753515Y-12770936D02*
X9743991Y-12751888D01*
X9743991Y-12751888D02*
X9734467Y-12713793D01*
X9734467Y-12713793D02*
X9734467Y-12666174D01*
X9734467Y-12666174D02*
X9743991Y-12628079D01*
X9743991Y-12628079D02*
X9753515Y-12609031D01*
X9753515Y-12609031D02*
X9763039Y-12599508D01*
X9763039Y-12599508D02*
X9782086Y-12589984D01*
X9972563Y-12589984D02*
X9991610Y-12589984D01*
X9991610Y-12589984D02*
X10010658Y-12599508D01*
X10010658Y-12599508D02*
X10020182Y-12609031D01*
X10020182Y-12609031D02*
X10029705Y-12628079D01*
X10029705Y-12628079D02*
X10039229Y-12666174D01*
X10039229Y-12666174D02*
X10039229Y-12713793D01*
X10039229Y-12713793D02*
X10029705Y-12751888D01*
X10029705Y-12751888D02*
X10020182Y-12770936D01*
X10020182Y-12770936D02*
X10010658Y-12780460D01*
X10010658Y-12780460D02*
X9991610Y-12789984D01*
X9991610Y-12789984D02*
X9972563Y-12789984D01*
X9972563Y-12789984D02*
X9953515Y-12780460D01*
X9953515Y-12780460D02*
X9943991Y-12770936D01*
X9943991Y-12770936D02*
X9934467Y-12751888D01*
X9934467Y-12751888D02*
X9924944Y-12713793D01*
X9924944Y-12713793D02*
X9924944Y-12666174D01*
X9924944Y-12666174D02*
X9934467Y-12628079D01*
X9934467Y-12628079D02*
X9943991Y-12609031D01*
X9943991Y-12609031D02*
X9953515Y-12599508D01*
X9953515Y-12599508D02*
X9972563Y-12589984D01*
X10163039Y-12589984D02*
X10182086Y-12589984D01*
X10182086Y-12589984D02*
X10201134Y-12599508D01*
X10201134Y-12599508D02*
X10210658Y-12609031D01*
X10210658Y-12609031D02*
X10220182Y-12628079D01*
X10220182Y-12628079D02*
X10229705Y-12666174D01*
X10229705Y-12666174D02*
X10229705Y-12713793D01*
X10229705Y-12713793D02*
X10220182Y-12751888D01*
X10220182Y-12751888D02*
X10210658Y-12770936D01*
X10210658Y-12770936D02*
X10201134Y-12780460D01*
X10201134Y-12780460D02*
X10182086Y-12789984D01*
X10182086Y-12789984D02*
X10163039Y-12789984D01*
X10163039Y-12789984D02*
X10143991Y-12780460D01*
X10143991Y-12780460D02*
X10134467Y-12770936D01*
X10134467Y-12770936D02*
X10124944Y-12751888D01*
X10124944Y-12751888D02*
X10115420Y-12713793D01*
X10115420Y-12713793D02*
X10115420Y-12666174D01*
X10115420Y-12666174D02*
X10124944Y-12628079D01*
X10124944Y-12628079D02*
X10134467Y-12609031D01*
X10134467Y-12609031D02*
X10143991Y-12599508D01*
X10143991Y-12599508D02*
X10163039Y-12589984D01*
X10315420Y-12789984D02*
X10315420Y-12656650D01*
X10315420Y-12675698D02*
X10324944Y-12666174D01*
X10324944Y-12666174D02*
X10343991Y-12656650D01*
X10343991Y-12656650D02*
X10372563Y-12656650D01*
X10372563Y-12656650D02*
X10391610Y-12666174D01*
X10391610Y-12666174D02*
X10401134Y-12685222D01*
X10401134Y-12685222D02*
X10401134Y-12789984D01*
X10401134Y-12685222D02*
X10410658Y-12666174D01*
X10410658Y-12666174D02*
X10429705Y-12656650D01*
X10429705Y-12656650D02*
X10458277Y-12656650D01*
X10458277Y-12656650D02*
X10477325Y-12666174D01*
X10477325Y-12666174D02*
X10486848Y-12685222D01*
X10486848Y-12685222D02*
X10486848Y-12789984D01*
X10582086Y-12789984D02*
X10582086Y-12656650D01*
X10582086Y-12675698D02*
X10591610Y-12666174D01*
X10591610Y-12666174D02*
X10610658Y-12656650D01*
X10610658Y-12656650D02*
X10639229Y-12656650D01*
X10639229Y-12656650D02*
X10658277Y-12666174D01*
X10658277Y-12666174D02*
X10667801Y-12685222D01*
X10667801Y-12685222D02*
X10667801Y-12789984D01*
X10667801Y-12685222D02*
X10677325Y-12666174D01*
X10677325Y-12666174D02*
X10696372Y-12656650D01*
X10696372Y-12656650D02*
X10724944Y-12656650D01*
X10724944Y-12656650D02*
X10743991Y-12666174D01*
X10743991Y-12666174D02*
X10753515Y-12685222D01*
X10753515Y-12685222D02*
X10753515Y-12789984D01*
X11143991Y-12580460D02*
X10972563Y-12837603D01*
X11401134Y-12589984D02*
X11420182Y-12589984D01*
X11420182Y-12589984D02*
X11439229Y-12599508D01*
X11439229Y-12599508D02*
X11448753Y-12609031D01*
X11448753Y-12609031D02*
X11458277Y-12628079D01*
X11458277Y-12628079D02*
X11467801Y-12666174D01*
X11467801Y-12666174D02*
X11467801Y-12713793D01*
X11467801Y-12713793D02*
X11458277Y-12751888D01*
X11458277Y-12751888D02*
X11448753Y-12770936D01*
X11448753Y-12770936D02*
X11439229Y-12780460D01*
X11439229Y-12780460D02*
X11420182Y-12789984D01*
X11420182Y-12789984D02*
X11401134Y-12789984D01*
X11401134Y-12789984D02*
X11382086Y-12780460D01*
X11382086Y-12780460D02*
X11372563Y-12770936D01*
X11372563Y-12770936D02*
X11363039Y-12751888D01*
X11363039Y-12751888D02*
X11353515Y-12713793D01*
X11353515Y-12713793D02*
X11353515Y-12666174D01*
X11353515Y-12666174D02*
X11363039Y-12628079D01*
X11363039Y-12628079D02*
X11372563Y-12609031D01*
X11372563Y-12609031D02*
X11382086Y-12599508D01*
X11382086Y-12599508D02*
X11401134Y-12589984D01*
X11553515Y-12770936D02*
X11563039Y-12780460D01*
X11563039Y-12780460D02*
X11553515Y-12789984D01*
X11553515Y-12789984D02*
X11543991Y-12780460D01*
X11543991Y-12780460D02*
X11553515Y-12770936D01*
X11553515Y-12770936D02*
X11553515Y-12789984D01*
X11686848Y-12589984D02*
X11705896Y-12589984D01*
X11705896Y-12589984D02*
X11724944Y-12599508D01*
X11724944Y-12599508D02*
X11734467Y-12609031D01*
X11734467Y-12609031D02*
X11743991Y-12628079D01*
X11743991Y-12628079D02*
X11753515Y-12666174D01*
X11753515Y-12666174D02*
X11753515Y-12713793D01*
X11753515Y-12713793D02*
X11743991Y-12751888D01*
X11743991Y-12751888D02*
X11734467Y-12770936D01*
X11734467Y-12770936D02*
X11724944Y-12780460D01*
X11724944Y-12780460D02*
X11705896Y-12789984D01*
X11705896Y-12789984D02*
X11686848Y-12789984D01*
X11686848Y-12789984D02*
X11667801Y-12780460D01*
X11667801Y-12780460D02*
X11658277Y-12770936D01*
X11658277Y-12770936D02*
X11648753Y-12751888D01*
X11648753Y-12751888D02*
X11639229Y-12713793D01*
X11639229Y-12713793D02*
X11639229Y-12666174D01*
X11639229Y-12666174D02*
X11648753Y-12628079D01*
X11648753Y-12628079D02*
X11658277Y-12609031D01*
X11658277Y-12609031D02*
X11667801Y-12599508D01*
X11667801Y-12599508D02*
X11686848Y-12589984D01*
X11820182Y-12589984D02*
X11943991Y-12589984D01*
X11943991Y-12589984D02*
X11877325Y-12666174D01*
X11877325Y-12666174D02*
X11905896Y-12666174D01*
X11905896Y-12666174D02*
X11924944Y-12675698D01*
X11924944Y-12675698D02*
X11934467Y-12685222D01*
X11934467Y-12685222D02*
X11943991Y-12704269D01*
X11943991Y-12704269D02*
X11943991Y-12751888D01*
X11943991Y-12751888D02*
X11934467Y-12770936D01*
X11934467Y-12770936D02*
X11924944Y-12780460D01*
X11924944Y-12780460D02*
X11905896Y-12789984D01*
X11905896Y-12789984D02*
X11848753Y-12789984D01*
X11848753Y-12789984D02*
X11829706Y-12780460D01*
X11829706Y-12780460D02*
X11820182Y-12770936D01*
X12039229Y-12789984D02*
X12077325Y-12789984D01*
X12077325Y-12789984D02*
X12096372Y-12780460D01*
X12096372Y-12780460D02*
X12105896Y-12770936D01*
X12105896Y-12770936D02*
X12124944Y-12742365D01*
X12124944Y-12742365D02*
X12134467Y-12704269D01*
X12134467Y-12704269D02*
X12134467Y-12628079D01*
X12134467Y-12628079D02*
X12124944Y-12609031D01*
X12124944Y-12609031D02*
X12115420Y-12599508D01*
X12115420Y-12599508D02*
X12096372Y-12589984D01*
X12096372Y-12589984D02*
X12058277Y-12589984D01*
X12058277Y-12589984D02*
X12039229Y-12599508D01*
X12039229Y-12599508D02*
X12029706Y-12609031D01*
X12029706Y-12609031D02*
X12020182Y-12628079D01*
X12020182Y-12628079D02*
X12020182Y-12675698D01*
X12020182Y-12675698D02*
X12029706Y-12694746D01*
X12029706Y-12694746D02*
X12039229Y-12704269D01*
X12039229Y-12704269D02*
X12058277Y-12713793D01*
X12058277Y-12713793D02*
X12096372Y-12713793D01*
X12096372Y-12713793D02*
X12115420Y-12704269D01*
X12115420Y-12704269D02*
X12124944Y-12694746D01*
X12124944Y-12694746D02*
X12134467Y-12675698D01*
X12305896Y-12656650D02*
X12305896Y-12789984D01*
X12258277Y-12580460D02*
X12210658Y-12723317D01*
X12210658Y-12723317D02*
X12334467Y-12723317D01*
X12401134Y-12589984D02*
X12401134Y-12628079D01*
X12477325Y-12589984D02*
X12477325Y-12628079D01*
X12772563Y-12866174D02*
X12763039Y-12856650D01*
X12763039Y-12856650D02*
X12743991Y-12828079D01*
X12743991Y-12828079D02*
X12734468Y-12809031D01*
X12734468Y-12809031D02*
X12724944Y-12780460D01*
X12724944Y-12780460D02*
X12715420Y-12732841D01*
X12715420Y-12732841D02*
X12715420Y-12694746D01*
X12715420Y-12694746D02*
X12724944Y-12647127D01*
X12724944Y-12647127D02*
X12734468Y-12618555D01*
X12734468Y-12618555D02*
X12743991Y-12599508D01*
X12743991Y-12599508D02*
X12763039Y-12570936D01*
X12763039Y-12570936D02*
X12772563Y-12561412D01*
X12934468Y-12656650D02*
X12934468Y-12789984D01*
X12886848Y-12580460D02*
X12839229Y-12723317D01*
X12839229Y-12723317D02*
X12963039Y-12723317D01*
X13191610Y-12789984D02*
X13191610Y-12589984D01*
X13277325Y-12789984D02*
X13277325Y-12685222D01*
X13277325Y-12685222D02*
X13267801Y-12666174D01*
X13267801Y-12666174D02*
X13248753Y-12656650D01*
X13248753Y-12656650D02*
X13220182Y-12656650D01*
X13220182Y-12656650D02*
X13201134Y-12666174D01*
X13201134Y-12666174D02*
X13191610Y-12675698D01*
X13401134Y-12789984D02*
X13382087Y-12780460D01*
X13382087Y-12780460D02*
X13372563Y-12770936D01*
X13372563Y-12770936D02*
X13363039Y-12751888D01*
X13363039Y-12751888D02*
X13363039Y-12694746D01*
X13363039Y-12694746D02*
X13372563Y-12675698D01*
X13372563Y-12675698D02*
X13382087Y-12666174D01*
X13382087Y-12666174D02*
X13401134Y-12656650D01*
X13401134Y-12656650D02*
X13429706Y-12656650D01*
X13429706Y-12656650D02*
X13448753Y-12666174D01*
X13448753Y-12666174D02*
X13458277Y-12675698D01*
X13458277Y-12675698D02*
X13467801Y-12694746D01*
X13467801Y-12694746D02*
X13467801Y-12751888D01*
X13467801Y-12751888D02*
X13458277Y-12770936D01*
X13458277Y-12770936D02*
X13448753Y-12780460D01*
X13448753Y-12780460D02*
X13429706Y-12789984D01*
X13429706Y-12789984D02*
X13401134Y-12789984D01*
X13582087Y-12789984D02*
X13563039Y-12780460D01*
X13563039Y-12780460D02*
X13553515Y-12761412D01*
X13553515Y-12761412D02*
X13553515Y-12589984D01*
X13734468Y-12780460D02*
X13715420Y-12789984D01*
X13715420Y-12789984D02*
X13677325Y-12789984D01*
X13677325Y-12789984D02*
X13658277Y-12780460D01*
X13658277Y-12780460D02*
X13648753Y-12761412D01*
X13648753Y-12761412D02*
X13648753Y-12685222D01*
X13648753Y-12685222D02*
X13658277Y-12666174D01*
X13658277Y-12666174D02*
X13677325Y-12656650D01*
X13677325Y-12656650D02*
X13715420Y-12656650D01*
X13715420Y-12656650D02*
X13734468Y-12666174D01*
X13734468Y-12666174D02*
X13743991Y-12685222D01*
X13743991Y-12685222D02*
X13743991Y-12704269D01*
X13743991Y-12704269D02*
X13648753Y-12723317D01*
X13820182Y-12780460D02*
X13839230Y-12789984D01*
X13839230Y-12789984D02*
X13877325Y-12789984D01*
X13877325Y-12789984D02*
X13896372Y-12780460D01*
X13896372Y-12780460D02*
X13905896Y-12761412D01*
X13905896Y-12761412D02*
X13905896Y-12751888D01*
X13905896Y-12751888D02*
X13896372Y-12732841D01*
X13896372Y-12732841D02*
X13877325Y-12723317D01*
X13877325Y-12723317D02*
X13848753Y-12723317D01*
X13848753Y-12723317D02*
X13829706Y-12713793D01*
X13829706Y-12713793D02*
X13820182Y-12694746D01*
X13820182Y-12694746D02*
X13820182Y-12685222D01*
X13820182Y-12685222D02*
X13829706Y-12666174D01*
X13829706Y-12666174D02*
X13848753Y-12656650D01*
X13848753Y-12656650D02*
X13877325Y-12656650D01*
X13877325Y-12656650D02*
X13896372Y-12666174D01*
X13972563Y-12866174D02*
X13982087Y-12856650D01*
X13982087Y-12856650D02*
X14001134Y-12828079D01*
X14001134Y-12828079D02*
X14010658Y-12809031D01*
X14010658Y-12809031D02*
X14020182Y-12780460D01*
X14020182Y-12780460D02*
X14029706Y-12732841D01*
X14029706Y-12732841D02*
X14029706Y-12694746D01*
X14029706Y-12694746D02*
X14020182Y-12647127D01*
X14020182Y-12647127D02*
X14010658Y-12618555D01*
X14010658Y-12618555D02*
X14001134Y-12599508D01*
X14001134Y-12599508D02*
X13982087Y-12570936D01*
X13982087Y-12570936D02*
X13972563Y-12561412D01*
D13*
X9067500Y-12897500D02*
X9197500Y-13027500D01*
X9197500Y-12897500D02*
X9067500Y-13027500D01*
X9197500Y-12962500D02*
G75*
G02*
X9067500Y-12962500I-65000J0D01*
G01*
X9067500Y-12962500D02*
G75*
G02*
X9197500Y-12962500I65000J0D01*
G01*
D11*
X9563039Y-13053984D02*
X9448753Y-13053984D01*
X9505896Y-13053984D02*
X9505896Y-12853984D01*
X9505896Y-12853984D02*
X9486848Y-12882555D01*
X9486848Y-12882555D02*
X9467801Y-12901603D01*
X9467801Y-12901603D02*
X9448753Y-12911127D01*
X9648753Y-13034936D02*
X9658277Y-13044460D01*
X9658277Y-13044460D02*
X9648753Y-13053984D01*
X9648753Y-13053984D02*
X9639229Y-13044460D01*
X9639229Y-13044460D02*
X9648753Y-13034936D01*
X9648753Y-13034936D02*
X9648753Y-13053984D01*
X9724944Y-12853984D02*
X9848753Y-12853984D01*
X9848753Y-12853984D02*
X9782086Y-12930174D01*
X9782086Y-12930174D02*
X9810658Y-12930174D01*
X9810658Y-12930174D02*
X9829705Y-12939698D01*
X9829705Y-12939698D02*
X9839229Y-12949222D01*
X9839229Y-12949222D02*
X9848753Y-12968269D01*
X9848753Y-12968269D02*
X9848753Y-13015888D01*
X9848753Y-13015888D02*
X9839229Y-13034936D01*
X9839229Y-13034936D02*
X9829705Y-13044460D01*
X9829705Y-13044460D02*
X9810658Y-13053984D01*
X9810658Y-13053984D02*
X9753515Y-13053984D01*
X9753515Y-13053984D02*
X9734467Y-13044460D01*
X9734467Y-13044460D02*
X9724944Y-13034936D01*
X9972563Y-12853984D02*
X9991610Y-12853984D01*
X9991610Y-12853984D02*
X10010658Y-12863508D01*
X10010658Y-12863508D02*
X10020182Y-12873031D01*
X10020182Y-12873031D02*
X10029705Y-12892079D01*
X10029705Y-12892079D02*
X10039229Y-12930174D01*
X10039229Y-12930174D02*
X10039229Y-12977793D01*
X10039229Y-12977793D02*
X10029705Y-13015888D01*
X10029705Y-13015888D02*
X10020182Y-13034936D01*
X10020182Y-13034936D02*
X10010658Y-13044460D01*
X10010658Y-13044460D02*
X9991610Y-13053984D01*
X9991610Y-13053984D02*
X9972563Y-13053984D01*
X9972563Y-13053984D02*
X9953515Y-13044460D01*
X9953515Y-13044460D02*
X9943991Y-13034936D01*
X9943991Y-13034936D02*
X9934467Y-13015888D01*
X9934467Y-13015888D02*
X9924944Y-12977793D01*
X9924944Y-12977793D02*
X9924944Y-12930174D01*
X9924944Y-12930174D02*
X9934467Y-12892079D01*
X9934467Y-12892079D02*
X9943991Y-12873031D01*
X9943991Y-12873031D02*
X9953515Y-12863508D01*
X9953515Y-12863508D02*
X9972563Y-12853984D01*
X10163039Y-12853984D02*
X10182086Y-12853984D01*
X10182086Y-12853984D02*
X10201134Y-12863508D01*
X10201134Y-12863508D02*
X10210658Y-12873031D01*
X10210658Y-12873031D02*
X10220182Y-12892079D01*
X10220182Y-12892079D02*
X10229705Y-12930174D01*
X10229705Y-12930174D02*
X10229705Y-12977793D01*
X10229705Y-12977793D02*
X10220182Y-13015888D01*
X10220182Y-13015888D02*
X10210658Y-13034936D01*
X10210658Y-13034936D02*
X10201134Y-13044460D01*
X10201134Y-13044460D02*
X10182086Y-13053984D01*
X10182086Y-13053984D02*
X10163039Y-13053984D01*
X10163039Y-13053984D02*
X10143991Y-13044460D01*
X10143991Y-13044460D02*
X10134467Y-13034936D01*
X10134467Y-13034936D02*
X10124944Y-13015888D01*
X10124944Y-13015888D02*
X10115420Y-12977793D01*
X10115420Y-12977793D02*
X10115420Y-12930174D01*
X10115420Y-12930174D02*
X10124944Y-12892079D01*
X10124944Y-12892079D02*
X10134467Y-12873031D01*
X10134467Y-12873031D02*
X10143991Y-12863508D01*
X10143991Y-12863508D02*
X10163039Y-12853984D01*
X10315420Y-13053984D02*
X10315420Y-12920650D01*
X10315420Y-12939698D02*
X10324944Y-12930174D01*
X10324944Y-12930174D02*
X10343991Y-12920650D01*
X10343991Y-12920650D02*
X10372563Y-12920650D01*
X10372563Y-12920650D02*
X10391610Y-12930174D01*
X10391610Y-12930174D02*
X10401134Y-12949222D01*
X10401134Y-12949222D02*
X10401134Y-13053984D01*
X10401134Y-12949222D02*
X10410658Y-12930174D01*
X10410658Y-12930174D02*
X10429705Y-12920650D01*
X10429705Y-12920650D02*
X10458277Y-12920650D01*
X10458277Y-12920650D02*
X10477325Y-12930174D01*
X10477325Y-12930174D02*
X10486848Y-12949222D01*
X10486848Y-12949222D02*
X10486848Y-13053984D01*
X10582086Y-13053984D02*
X10582086Y-12920650D01*
X10582086Y-12939698D02*
X10591610Y-12930174D01*
X10591610Y-12930174D02*
X10610658Y-12920650D01*
X10610658Y-12920650D02*
X10639229Y-12920650D01*
X10639229Y-12920650D02*
X10658277Y-12930174D01*
X10658277Y-12930174D02*
X10667801Y-12949222D01*
X10667801Y-12949222D02*
X10667801Y-13053984D01*
X10667801Y-12949222D02*
X10677325Y-12930174D01*
X10677325Y-12930174D02*
X10696372Y-12920650D01*
X10696372Y-12920650D02*
X10724944Y-12920650D01*
X10724944Y-12920650D02*
X10743991Y-12930174D01*
X10743991Y-12930174D02*
X10753515Y-12949222D01*
X10753515Y-12949222D02*
X10753515Y-13053984D01*
X11143991Y-12844460D02*
X10972563Y-13101603D01*
X11401134Y-12853984D02*
X11420182Y-12853984D01*
X11420182Y-12853984D02*
X11439229Y-12863508D01*
X11439229Y-12863508D02*
X11448753Y-12873031D01*
X11448753Y-12873031D02*
X11458277Y-12892079D01*
X11458277Y-12892079D02*
X11467801Y-12930174D01*
X11467801Y-12930174D02*
X11467801Y-12977793D01*
X11467801Y-12977793D02*
X11458277Y-13015888D01*
X11458277Y-13015888D02*
X11448753Y-13034936D01*
X11448753Y-13034936D02*
X11439229Y-13044460D01*
X11439229Y-13044460D02*
X11420182Y-13053984D01*
X11420182Y-13053984D02*
X11401134Y-13053984D01*
X11401134Y-13053984D02*
X11382086Y-13044460D01*
X11382086Y-13044460D02*
X11372563Y-13034936D01*
X11372563Y-13034936D02*
X11363039Y-13015888D01*
X11363039Y-13015888D02*
X11353515Y-12977793D01*
X11353515Y-12977793D02*
X11353515Y-12930174D01*
X11353515Y-12930174D02*
X11363039Y-12892079D01*
X11363039Y-12892079D02*
X11372563Y-12873031D01*
X11372563Y-12873031D02*
X11382086Y-12863508D01*
X11382086Y-12863508D02*
X11401134Y-12853984D01*
X11553515Y-13034936D02*
X11563039Y-13044460D01*
X11563039Y-13044460D02*
X11553515Y-13053984D01*
X11553515Y-13053984D02*
X11543991Y-13044460D01*
X11543991Y-13044460D02*
X11553515Y-13034936D01*
X11553515Y-13034936D02*
X11553515Y-13053984D01*
X11686848Y-12853984D02*
X11705896Y-12853984D01*
X11705896Y-12853984D02*
X11724944Y-12863508D01*
X11724944Y-12863508D02*
X11734467Y-12873031D01*
X11734467Y-12873031D02*
X11743991Y-12892079D01*
X11743991Y-12892079D02*
X11753515Y-12930174D01*
X11753515Y-12930174D02*
X11753515Y-12977793D01*
X11753515Y-12977793D02*
X11743991Y-13015888D01*
X11743991Y-13015888D02*
X11734467Y-13034936D01*
X11734467Y-13034936D02*
X11724944Y-13044460D01*
X11724944Y-13044460D02*
X11705896Y-13053984D01*
X11705896Y-13053984D02*
X11686848Y-13053984D01*
X11686848Y-13053984D02*
X11667801Y-13044460D01*
X11667801Y-13044460D02*
X11658277Y-13034936D01*
X11658277Y-13034936D02*
X11648753Y-13015888D01*
X11648753Y-13015888D02*
X11639229Y-12977793D01*
X11639229Y-12977793D02*
X11639229Y-12930174D01*
X11639229Y-12930174D02*
X11648753Y-12892079D01*
X11648753Y-12892079D02*
X11658277Y-12873031D01*
X11658277Y-12873031D02*
X11667801Y-12863508D01*
X11667801Y-12863508D02*
X11686848Y-12853984D01*
X11934467Y-12853984D02*
X11839229Y-12853984D01*
X11839229Y-12853984D02*
X11829706Y-12949222D01*
X11829706Y-12949222D02*
X11839229Y-12939698D01*
X11839229Y-12939698D02*
X11858277Y-12930174D01*
X11858277Y-12930174D02*
X11905896Y-12930174D01*
X11905896Y-12930174D02*
X11924944Y-12939698D01*
X11924944Y-12939698D02*
X11934467Y-12949222D01*
X11934467Y-12949222D02*
X11943991Y-12968269D01*
X11943991Y-12968269D02*
X11943991Y-13015888D01*
X11943991Y-13015888D02*
X11934467Y-13034936D01*
X11934467Y-13034936D02*
X11924944Y-13044460D01*
X11924944Y-13044460D02*
X11905896Y-13053984D01*
X11905896Y-13053984D02*
X11858277Y-13053984D01*
X11858277Y-13053984D02*
X11839229Y-13044460D01*
X11839229Y-13044460D02*
X11829706Y-13034936D01*
X12134467Y-13053984D02*
X12020182Y-13053984D01*
X12077325Y-13053984D02*
X12077325Y-12853984D01*
X12077325Y-12853984D02*
X12058277Y-12882555D01*
X12058277Y-12882555D02*
X12039229Y-12901603D01*
X12039229Y-12901603D02*
X12020182Y-12911127D01*
X12210658Y-12873031D02*
X12220182Y-12863508D01*
X12220182Y-12863508D02*
X12239229Y-12853984D01*
X12239229Y-12853984D02*
X12286848Y-12853984D01*
X12286848Y-12853984D02*
X12305896Y-12863508D01*
X12305896Y-12863508D02*
X12315420Y-12873031D01*
X12315420Y-12873031D02*
X12324944Y-12892079D01*
X12324944Y-12892079D02*
X12324944Y-12911127D01*
X12324944Y-12911127D02*
X12315420Y-12939698D01*
X12315420Y-12939698D02*
X12201134Y-13053984D01*
X12201134Y-13053984D02*
X12324944Y-13053984D01*
X12401134Y-12853984D02*
X12401134Y-12892079D01*
X12477325Y-12853984D02*
X12477325Y-12892079D01*
X12772563Y-13130174D02*
X12763039Y-13120650D01*
X12763039Y-13120650D02*
X12743991Y-13092079D01*
X12743991Y-13092079D02*
X12734468Y-13073031D01*
X12734468Y-13073031D02*
X12724944Y-13044460D01*
X12724944Y-13044460D02*
X12715420Y-12996841D01*
X12715420Y-12996841D02*
X12715420Y-12958746D01*
X12715420Y-12958746D02*
X12724944Y-12911127D01*
X12724944Y-12911127D02*
X12734468Y-12882555D01*
X12734468Y-12882555D02*
X12743991Y-12863508D01*
X12743991Y-12863508D02*
X12763039Y-12834936D01*
X12763039Y-12834936D02*
X12772563Y-12825412D01*
X12943991Y-12853984D02*
X12848753Y-12853984D01*
X12848753Y-12853984D02*
X12839229Y-12949222D01*
X12839229Y-12949222D02*
X12848753Y-12939698D01*
X12848753Y-12939698D02*
X12867801Y-12930174D01*
X12867801Y-12930174D02*
X12915420Y-12930174D01*
X12915420Y-12930174D02*
X12934468Y-12939698D01*
X12934468Y-12939698D02*
X12943991Y-12949222D01*
X12943991Y-12949222D02*
X12953515Y-12968269D01*
X12953515Y-12968269D02*
X12953515Y-13015888D01*
X12953515Y-13015888D02*
X12943991Y-13034936D01*
X12943991Y-13034936D02*
X12934468Y-13044460D01*
X12934468Y-13044460D02*
X12915420Y-13053984D01*
X12915420Y-13053984D02*
X12867801Y-13053984D01*
X12867801Y-13053984D02*
X12848753Y-13044460D01*
X12848753Y-13044460D02*
X12839229Y-13034936D01*
X13191610Y-13053984D02*
X13191610Y-12853984D01*
X13277325Y-13053984D02*
X13277325Y-12949222D01*
X13277325Y-12949222D02*
X13267801Y-12930174D01*
X13267801Y-12930174D02*
X13248753Y-12920650D01*
X13248753Y-12920650D02*
X13220182Y-12920650D01*
X13220182Y-12920650D02*
X13201134Y-12930174D01*
X13201134Y-12930174D02*
X13191610Y-12939698D01*
X13401134Y-13053984D02*
X13382087Y-13044460D01*
X13382087Y-13044460D02*
X13372563Y-13034936D01*
X13372563Y-13034936D02*
X13363039Y-13015888D01*
X13363039Y-13015888D02*
X13363039Y-12958746D01*
X13363039Y-12958746D02*
X13372563Y-12939698D01*
X13372563Y-12939698D02*
X13382087Y-12930174D01*
X13382087Y-12930174D02*
X13401134Y-12920650D01*
X13401134Y-12920650D02*
X13429706Y-12920650D01*
X13429706Y-12920650D02*
X13448753Y-12930174D01*
X13448753Y-12930174D02*
X13458277Y-12939698D01*
X13458277Y-12939698D02*
X13467801Y-12958746D01*
X13467801Y-12958746D02*
X13467801Y-13015888D01*
X13467801Y-13015888D02*
X13458277Y-13034936D01*
X13458277Y-13034936D02*
X13448753Y-13044460D01*
X13448753Y-13044460D02*
X13429706Y-13053984D01*
X13429706Y-13053984D02*
X13401134Y-13053984D01*
X13582087Y-13053984D02*
X13563039Y-13044460D01*
X13563039Y-13044460D02*
X13553515Y-13025412D01*
X13553515Y-13025412D02*
X13553515Y-12853984D01*
X13734468Y-13044460D02*
X13715420Y-13053984D01*
X13715420Y-13053984D02*
X13677325Y-13053984D01*
X13677325Y-13053984D02*
X13658277Y-13044460D01*
X13658277Y-13044460D02*
X13648753Y-13025412D01*
X13648753Y-13025412D02*
X13648753Y-12949222D01*
X13648753Y-12949222D02*
X13658277Y-12930174D01*
X13658277Y-12930174D02*
X13677325Y-12920650D01*
X13677325Y-12920650D02*
X13715420Y-12920650D01*
X13715420Y-12920650D02*
X13734468Y-12930174D01*
X13734468Y-12930174D02*
X13743991Y-12949222D01*
X13743991Y-12949222D02*
X13743991Y-12968269D01*
X13743991Y-12968269D02*
X13648753Y-12987317D01*
X13820182Y-13044460D02*
X13839230Y-13053984D01*
X13839230Y-13053984D02*
X13877325Y-13053984D01*
X13877325Y-13053984D02*
X13896372Y-13044460D01*
X13896372Y-13044460D02*
X13905896Y-13025412D01*
X13905896Y-13025412D02*
X13905896Y-13015888D01*
X13905896Y-13015888D02*
X13896372Y-12996841D01*
X13896372Y-12996841D02*
X13877325Y-12987317D01*
X13877325Y-12987317D02*
X13848753Y-12987317D01*
X13848753Y-12987317D02*
X13829706Y-12977793D01*
X13829706Y-12977793D02*
X13820182Y-12958746D01*
X13820182Y-12958746D02*
X13820182Y-12949222D01*
X13820182Y-12949222D02*
X13829706Y-12930174D01*
X13829706Y-12930174D02*
X13848753Y-12920650D01*
X13848753Y-12920650D02*
X13877325Y-12920650D01*
X13877325Y-12920650D02*
X13896372Y-12930174D01*
X13972563Y-13130174D02*
X13982087Y-13120650D01*
X13982087Y-13120650D02*
X14001134Y-13092079D01*
X14001134Y-13092079D02*
X14010658Y-13073031D01*
X14010658Y-13073031D02*
X14020182Y-13044460D01*
X14020182Y-13044460D02*
X14029706Y-12996841D01*
X14029706Y-12996841D02*
X14029706Y-12958746D01*
X14029706Y-12958746D02*
X14020182Y-12911127D01*
X14020182Y-12911127D02*
X14010658Y-12882555D01*
X14010658Y-12882555D02*
X14001134Y-12863508D01*
X14001134Y-12863508D02*
X13982087Y-12834936D01*
X13982087Y-12834936D02*
X13972563Y-12825412D01*
D14*
X9037500Y-13146500D02*
X9197500Y-13306500D01*
X9197500Y-13146500D02*
X9037500Y-13306500D01*
X9117500Y-13146500D02*
X9117500Y-13306500D01*
X9037500Y-13226500D02*
X9197500Y-13226500D01*
D11*
X9563039Y-13317984D02*
X9448753Y-13317984D01*
X9505896Y-13317984D02*
X9505896Y-13117984D01*
X9505896Y-13117984D02*
X9486848Y-13146555D01*
X9486848Y-13146555D02*
X9467801Y-13165603D01*
X9467801Y-13165603D02*
X9448753Y-13175127D01*
X9648753Y-13298936D02*
X9658277Y-13308460D01*
X9658277Y-13308460D02*
X9648753Y-13317984D01*
X9648753Y-13317984D02*
X9639229Y-13308460D01*
X9639229Y-13308460D02*
X9648753Y-13298936D01*
X9648753Y-13298936D02*
X9648753Y-13317984D01*
X9829705Y-13117984D02*
X9791610Y-13117984D01*
X9791610Y-13117984D02*
X9772563Y-13127508D01*
X9772563Y-13127508D02*
X9763039Y-13137031D01*
X9763039Y-13137031D02*
X9743991Y-13165603D01*
X9743991Y-13165603D02*
X9734467Y-13203698D01*
X9734467Y-13203698D02*
X9734467Y-13279888D01*
X9734467Y-13279888D02*
X9743991Y-13298936D01*
X9743991Y-13298936D02*
X9753515Y-13308460D01*
X9753515Y-13308460D02*
X9772563Y-13317984D01*
X9772563Y-13317984D02*
X9810658Y-13317984D01*
X9810658Y-13317984D02*
X9829705Y-13308460D01*
X9829705Y-13308460D02*
X9839229Y-13298936D01*
X9839229Y-13298936D02*
X9848753Y-13279888D01*
X9848753Y-13279888D02*
X9848753Y-13232269D01*
X9848753Y-13232269D02*
X9839229Y-13213222D01*
X9839229Y-13213222D02*
X9829705Y-13203698D01*
X9829705Y-13203698D02*
X9810658Y-13194174D01*
X9810658Y-13194174D02*
X9772563Y-13194174D01*
X9772563Y-13194174D02*
X9753515Y-13203698D01*
X9753515Y-13203698D02*
X9743991Y-13213222D01*
X9743991Y-13213222D02*
X9734467Y-13232269D01*
X9972563Y-13117984D02*
X9991610Y-13117984D01*
X9991610Y-13117984D02*
X10010658Y-13127508D01*
X10010658Y-13127508D02*
X10020182Y-13137031D01*
X10020182Y-13137031D02*
X10029705Y-13156079D01*
X10029705Y-13156079D02*
X10039229Y-13194174D01*
X10039229Y-13194174D02*
X10039229Y-13241793D01*
X10039229Y-13241793D02*
X10029705Y-13279888D01*
X10029705Y-13279888D02*
X10020182Y-13298936D01*
X10020182Y-13298936D02*
X10010658Y-13308460D01*
X10010658Y-13308460D02*
X9991610Y-13317984D01*
X9991610Y-13317984D02*
X9972563Y-13317984D01*
X9972563Y-13317984D02*
X9953515Y-13308460D01*
X9953515Y-13308460D02*
X9943991Y-13298936D01*
X9943991Y-13298936D02*
X9934467Y-13279888D01*
X9934467Y-13279888D02*
X9924944Y-13241793D01*
X9924944Y-13241793D02*
X9924944Y-13194174D01*
X9924944Y-13194174D02*
X9934467Y-13156079D01*
X9934467Y-13156079D02*
X9943991Y-13137031D01*
X9943991Y-13137031D02*
X9953515Y-13127508D01*
X9953515Y-13127508D02*
X9972563Y-13117984D01*
X10163039Y-13117984D02*
X10182086Y-13117984D01*
X10182086Y-13117984D02*
X10201134Y-13127508D01*
X10201134Y-13127508D02*
X10210658Y-13137031D01*
X10210658Y-13137031D02*
X10220182Y-13156079D01*
X10220182Y-13156079D02*
X10229705Y-13194174D01*
X10229705Y-13194174D02*
X10229705Y-13241793D01*
X10229705Y-13241793D02*
X10220182Y-13279888D01*
X10220182Y-13279888D02*
X10210658Y-13298936D01*
X10210658Y-13298936D02*
X10201134Y-13308460D01*
X10201134Y-13308460D02*
X10182086Y-13317984D01*
X10182086Y-13317984D02*
X10163039Y-13317984D01*
X10163039Y-13317984D02*
X10143991Y-13308460D01*
X10143991Y-13308460D02*
X10134467Y-13298936D01*
X10134467Y-13298936D02*
X10124944Y-13279888D01*
X10124944Y-13279888D02*
X10115420Y-13241793D01*
X10115420Y-13241793D02*
X10115420Y-13194174D01*
X10115420Y-13194174D02*
X10124944Y-13156079D01*
X10124944Y-13156079D02*
X10134467Y-13137031D01*
X10134467Y-13137031D02*
X10143991Y-13127508D01*
X10143991Y-13127508D02*
X10163039Y-13117984D01*
X10315420Y-13317984D02*
X10315420Y-13184650D01*
X10315420Y-13203698D02*
X10324944Y-13194174D01*
X10324944Y-13194174D02*
X10343991Y-13184650D01*
X10343991Y-13184650D02*
X10372563Y-13184650D01*
X10372563Y-13184650D02*
X10391610Y-13194174D01*
X10391610Y-13194174D02*
X10401134Y-13213222D01*
X10401134Y-13213222D02*
X10401134Y-13317984D01*
X10401134Y-13213222D02*
X10410658Y-13194174D01*
X10410658Y-13194174D02*
X10429705Y-13184650D01*
X10429705Y-13184650D02*
X10458277Y-13184650D01*
X10458277Y-13184650D02*
X10477325Y-13194174D01*
X10477325Y-13194174D02*
X10486848Y-13213222D01*
X10486848Y-13213222D02*
X10486848Y-13317984D01*
X10582086Y-13317984D02*
X10582086Y-13184650D01*
X10582086Y-13203698D02*
X10591610Y-13194174D01*
X10591610Y-13194174D02*
X10610658Y-13184650D01*
X10610658Y-13184650D02*
X10639229Y-13184650D01*
X10639229Y-13184650D02*
X10658277Y-13194174D01*
X10658277Y-13194174D02*
X10667801Y-13213222D01*
X10667801Y-13213222D02*
X10667801Y-13317984D01*
X10667801Y-13213222D02*
X10677325Y-13194174D01*
X10677325Y-13194174D02*
X10696372Y-13184650D01*
X10696372Y-13184650D02*
X10724944Y-13184650D01*
X10724944Y-13184650D02*
X10743991Y-13194174D01*
X10743991Y-13194174D02*
X10753515Y-13213222D01*
X10753515Y-13213222D02*
X10753515Y-13317984D01*
X11143991Y-13108460D02*
X10972563Y-13365603D01*
X11401134Y-13117984D02*
X11420182Y-13117984D01*
X11420182Y-13117984D02*
X11439229Y-13127508D01*
X11439229Y-13127508D02*
X11448753Y-13137031D01*
X11448753Y-13137031D02*
X11458277Y-13156079D01*
X11458277Y-13156079D02*
X11467801Y-13194174D01*
X11467801Y-13194174D02*
X11467801Y-13241793D01*
X11467801Y-13241793D02*
X11458277Y-13279888D01*
X11458277Y-13279888D02*
X11448753Y-13298936D01*
X11448753Y-13298936D02*
X11439229Y-13308460D01*
X11439229Y-13308460D02*
X11420182Y-13317984D01*
X11420182Y-13317984D02*
X11401134Y-13317984D01*
X11401134Y-13317984D02*
X11382086Y-13308460D01*
X11382086Y-13308460D02*
X11372563Y-13298936D01*
X11372563Y-13298936D02*
X11363039Y-13279888D01*
X11363039Y-13279888D02*
X11353515Y-13241793D01*
X11353515Y-13241793D02*
X11353515Y-13194174D01*
X11353515Y-13194174D02*
X11363039Y-13156079D01*
X11363039Y-13156079D02*
X11372563Y-13137031D01*
X11372563Y-13137031D02*
X11382086Y-13127508D01*
X11382086Y-13127508D02*
X11401134Y-13117984D01*
X11553515Y-13298936D02*
X11563039Y-13308460D01*
X11563039Y-13308460D02*
X11553515Y-13317984D01*
X11553515Y-13317984D02*
X11543991Y-13308460D01*
X11543991Y-13308460D02*
X11553515Y-13298936D01*
X11553515Y-13298936D02*
X11553515Y-13317984D01*
X11686848Y-13117984D02*
X11705896Y-13117984D01*
X11705896Y-13117984D02*
X11724944Y-13127508D01*
X11724944Y-13127508D02*
X11734467Y-13137031D01*
X11734467Y-13137031D02*
X11743991Y-13156079D01*
X11743991Y-13156079D02*
X11753515Y-13194174D01*
X11753515Y-13194174D02*
X11753515Y-13241793D01*
X11753515Y-13241793D02*
X11743991Y-13279888D01*
X11743991Y-13279888D02*
X11734467Y-13298936D01*
X11734467Y-13298936D02*
X11724944Y-13308460D01*
X11724944Y-13308460D02*
X11705896Y-13317984D01*
X11705896Y-13317984D02*
X11686848Y-13317984D01*
X11686848Y-13317984D02*
X11667801Y-13308460D01*
X11667801Y-13308460D02*
X11658277Y-13298936D01*
X11658277Y-13298936D02*
X11648753Y-13279888D01*
X11648753Y-13279888D02*
X11639229Y-13241793D01*
X11639229Y-13241793D02*
X11639229Y-13194174D01*
X11639229Y-13194174D02*
X11648753Y-13156079D01*
X11648753Y-13156079D02*
X11658277Y-13137031D01*
X11658277Y-13137031D02*
X11667801Y-13127508D01*
X11667801Y-13127508D02*
X11686848Y-13117984D01*
X11924944Y-13117984D02*
X11886848Y-13117984D01*
X11886848Y-13117984D02*
X11867801Y-13127508D01*
X11867801Y-13127508D02*
X11858277Y-13137031D01*
X11858277Y-13137031D02*
X11839229Y-13165603D01*
X11839229Y-13165603D02*
X11829706Y-13203698D01*
X11829706Y-13203698D02*
X11829706Y-13279888D01*
X11829706Y-13279888D02*
X11839229Y-13298936D01*
X11839229Y-13298936D02*
X11848753Y-13308460D01*
X11848753Y-13308460D02*
X11867801Y-13317984D01*
X11867801Y-13317984D02*
X11905896Y-13317984D01*
X11905896Y-13317984D02*
X11924944Y-13308460D01*
X11924944Y-13308460D02*
X11934467Y-13298936D01*
X11934467Y-13298936D02*
X11943991Y-13279888D01*
X11943991Y-13279888D02*
X11943991Y-13232269D01*
X11943991Y-13232269D02*
X11934467Y-13213222D01*
X11934467Y-13213222D02*
X11924944Y-13203698D01*
X11924944Y-13203698D02*
X11905896Y-13194174D01*
X11905896Y-13194174D02*
X11867801Y-13194174D01*
X11867801Y-13194174D02*
X11848753Y-13203698D01*
X11848753Y-13203698D02*
X11839229Y-13213222D01*
X11839229Y-13213222D02*
X11829706Y-13232269D01*
X12010658Y-13117984D02*
X12134467Y-13117984D01*
X12134467Y-13117984D02*
X12067801Y-13194174D01*
X12067801Y-13194174D02*
X12096372Y-13194174D01*
X12096372Y-13194174D02*
X12115420Y-13203698D01*
X12115420Y-13203698D02*
X12124944Y-13213222D01*
X12124944Y-13213222D02*
X12134467Y-13232269D01*
X12134467Y-13232269D02*
X12134467Y-13279888D01*
X12134467Y-13279888D02*
X12124944Y-13298936D01*
X12124944Y-13298936D02*
X12115420Y-13308460D01*
X12115420Y-13308460D02*
X12096372Y-13317984D01*
X12096372Y-13317984D02*
X12039229Y-13317984D01*
X12039229Y-13317984D02*
X12020182Y-13308460D01*
X12020182Y-13308460D02*
X12010658Y-13298936D01*
X12258277Y-13117984D02*
X12277325Y-13117984D01*
X12277325Y-13117984D02*
X12296372Y-13127508D01*
X12296372Y-13127508D02*
X12305896Y-13137031D01*
X12305896Y-13137031D02*
X12315420Y-13156079D01*
X12315420Y-13156079D02*
X12324944Y-13194174D01*
X12324944Y-13194174D02*
X12324944Y-13241793D01*
X12324944Y-13241793D02*
X12315420Y-13279888D01*
X12315420Y-13279888D02*
X12305896Y-13298936D01*
X12305896Y-13298936D02*
X12296372Y-13308460D01*
X12296372Y-13308460D02*
X12277325Y-13317984D01*
X12277325Y-13317984D02*
X12258277Y-13317984D01*
X12258277Y-13317984D02*
X12239229Y-13308460D01*
X12239229Y-13308460D02*
X12229706Y-13298936D01*
X12229706Y-13298936D02*
X12220182Y-13279888D01*
X12220182Y-13279888D02*
X12210658Y-13241793D01*
X12210658Y-13241793D02*
X12210658Y-13194174D01*
X12210658Y-13194174D02*
X12220182Y-13156079D01*
X12220182Y-13156079D02*
X12229706Y-13137031D01*
X12229706Y-13137031D02*
X12239229Y-13127508D01*
X12239229Y-13127508D02*
X12258277Y-13117984D01*
X12401134Y-13117984D02*
X12401134Y-13156079D01*
X12477325Y-13117984D02*
X12477325Y-13156079D01*
X12772563Y-13394174D02*
X12763039Y-13384650D01*
X12763039Y-13384650D02*
X12743991Y-13356079D01*
X12743991Y-13356079D02*
X12734468Y-13337031D01*
X12734468Y-13337031D02*
X12724944Y-13308460D01*
X12724944Y-13308460D02*
X12715420Y-13260841D01*
X12715420Y-13260841D02*
X12715420Y-13222746D01*
X12715420Y-13222746D02*
X12724944Y-13175127D01*
X12724944Y-13175127D02*
X12734468Y-13146555D01*
X12734468Y-13146555D02*
X12743991Y-13127508D01*
X12743991Y-13127508D02*
X12763039Y-13098936D01*
X12763039Y-13098936D02*
X12772563Y-13089412D01*
X12829706Y-13117984D02*
X12953515Y-13117984D01*
X12953515Y-13117984D02*
X12886848Y-13194174D01*
X12886848Y-13194174D02*
X12915420Y-13194174D01*
X12915420Y-13194174D02*
X12934468Y-13203698D01*
X12934468Y-13203698D02*
X12943991Y-13213222D01*
X12943991Y-13213222D02*
X12953515Y-13232269D01*
X12953515Y-13232269D02*
X12953515Y-13279888D01*
X12953515Y-13279888D02*
X12943991Y-13298936D01*
X12943991Y-13298936D02*
X12934468Y-13308460D01*
X12934468Y-13308460D02*
X12915420Y-13317984D01*
X12915420Y-13317984D02*
X12858277Y-13317984D01*
X12858277Y-13317984D02*
X12839229Y-13308460D01*
X12839229Y-13308460D02*
X12829706Y-13298936D01*
X13191610Y-13317984D02*
X13191610Y-13117984D01*
X13277325Y-13317984D02*
X13277325Y-13213222D01*
X13277325Y-13213222D02*
X13267801Y-13194174D01*
X13267801Y-13194174D02*
X13248753Y-13184650D01*
X13248753Y-13184650D02*
X13220182Y-13184650D01*
X13220182Y-13184650D02*
X13201134Y-13194174D01*
X13201134Y-13194174D02*
X13191610Y-13203698D01*
X13401134Y-13317984D02*
X13382087Y-13308460D01*
X13382087Y-13308460D02*
X13372563Y-13298936D01*
X13372563Y-13298936D02*
X13363039Y-13279888D01*
X13363039Y-13279888D02*
X13363039Y-13222746D01*
X13363039Y-13222746D02*
X13372563Y-13203698D01*
X13372563Y-13203698D02*
X13382087Y-13194174D01*
X13382087Y-13194174D02*
X13401134Y-13184650D01*
X13401134Y-13184650D02*
X13429706Y-13184650D01*
X13429706Y-13184650D02*
X13448753Y-13194174D01*
X13448753Y-13194174D02*
X13458277Y-13203698D01*
X13458277Y-13203698D02*
X13467801Y-13222746D01*
X13467801Y-13222746D02*
X13467801Y-13279888D01*
X13467801Y-13279888D02*
X13458277Y-13298936D01*
X13458277Y-13298936D02*
X13448753Y-13308460D01*
X13448753Y-13308460D02*
X13429706Y-13317984D01*
X13429706Y-13317984D02*
X13401134Y-13317984D01*
X13582087Y-13317984D02*
X13563039Y-13308460D01*
X13563039Y-13308460D02*
X13553515Y-13289412D01*
X13553515Y-13289412D02*
X13553515Y-13117984D01*
X13734468Y-13308460D02*
X13715420Y-13317984D01*
X13715420Y-13317984D02*
X13677325Y-13317984D01*
X13677325Y-13317984D02*
X13658277Y-13308460D01*
X13658277Y-13308460D02*
X13648753Y-13289412D01*
X13648753Y-13289412D02*
X13648753Y-13213222D01*
X13648753Y-13213222D02*
X13658277Y-13194174D01*
X13658277Y-13194174D02*
X13677325Y-13184650D01*
X13677325Y-13184650D02*
X13715420Y-13184650D01*
X13715420Y-13184650D02*
X13734468Y-13194174D01*
X13734468Y-13194174D02*
X13743991Y-13213222D01*
X13743991Y-13213222D02*
X13743991Y-13232269D01*
X13743991Y-13232269D02*
X13648753Y-13251317D01*
X13820182Y-13308460D02*
X13839230Y-13317984D01*
X13839230Y-13317984D02*
X13877325Y-13317984D01*
X13877325Y-13317984D02*
X13896372Y-13308460D01*
X13896372Y-13308460D02*
X13905896Y-13289412D01*
X13905896Y-13289412D02*
X13905896Y-13279888D01*
X13905896Y-13279888D02*
X13896372Y-13260841D01*
X13896372Y-13260841D02*
X13877325Y-13251317D01*
X13877325Y-13251317D02*
X13848753Y-13251317D01*
X13848753Y-13251317D02*
X13829706Y-13241793D01*
X13829706Y-13241793D02*
X13820182Y-13222746D01*
X13820182Y-13222746D02*
X13820182Y-13213222D01*
X13820182Y-13213222D02*
X13829706Y-13194174D01*
X13829706Y-13194174D02*
X13848753Y-13184650D01*
X13848753Y-13184650D02*
X13877325Y-13184650D01*
X13877325Y-13184650D02*
X13896372Y-13194174D01*
X13972563Y-13394174D02*
X13982087Y-13384650D01*
X13982087Y-13384650D02*
X14001134Y-13356079D01*
X14001134Y-13356079D02*
X14010658Y-13337031D01*
X14010658Y-13337031D02*
X14020182Y-13308460D01*
X14020182Y-13308460D02*
X14029706Y-13260841D01*
X14029706Y-13260841D02*
X14029706Y-13222746D01*
X14029706Y-13222746D02*
X14020182Y-13175127D01*
X14020182Y-13175127D02*
X14010658Y-13146555D01*
X14010658Y-13146555D02*
X14001134Y-13127508D01*
X14001134Y-13127508D02*
X13982087Y-13098936D01*
X13982087Y-13098936D02*
X13972563Y-13089412D01*
X8997500Y-13406500D02*
X9197500Y-13606500D01*
X9197500Y-13406500D02*
X8997500Y-13606500D01*
X9168211Y-13577211D02*
X9168211Y-13435789D01*
X9026789Y-13435789D01*
X9026789Y-13577211D01*
X9168211Y-13577211D01*
X9448753Y-13417031D02*
X9458277Y-13407508D01*
X9458277Y-13407508D02*
X9477324Y-13397984D01*
X9477324Y-13397984D02*
X9524944Y-13397984D01*
X9524944Y-13397984D02*
X9543991Y-13407508D01*
X9543991Y-13407508D02*
X9553515Y-13417031D01*
X9553515Y-13417031D02*
X9563039Y-13436079D01*
X9563039Y-13436079D02*
X9563039Y-13455127D01*
X9563039Y-13455127D02*
X9553515Y-13483698D01*
X9553515Y-13483698D02*
X9439229Y-13597984D01*
X9439229Y-13597984D02*
X9563039Y-13597984D01*
X9648753Y-13578936D02*
X9658277Y-13588460D01*
X9658277Y-13588460D02*
X9648753Y-13597984D01*
X9648753Y-13597984D02*
X9639229Y-13588460D01*
X9639229Y-13588460D02*
X9648753Y-13578936D01*
X9648753Y-13578936D02*
X9648753Y-13597984D01*
X9724944Y-13397984D02*
X9848753Y-13397984D01*
X9848753Y-13397984D02*
X9782086Y-13474174D01*
X9782086Y-13474174D02*
X9810658Y-13474174D01*
X9810658Y-13474174D02*
X9829705Y-13483698D01*
X9829705Y-13483698D02*
X9839229Y-13493222D01*
X9839229Y-13493222D02*
X9848753Y-13512269D01*
X9848753Y-13512269D02*
X9848753Y-13559888D01*
X9848753Y-13559888D02*
X9839229Y-13578936D01*
X9839229Y-13578936D02*
X9829705Y-13588460D01*
X9829705Y-13588460D02*
X9810658Y-13597984D01*
X9810658Y-13597984D02*
X9753515Y-13597984D01*
X9753515Y-13597984D02*
X9734467Y-13588460D01*
X9734467Y-13588460D02*
X9724944Y-13578936D01*
X9972563Y-13397984D02*
X9991610Y-13397984D01*
X9991610Y-13397984D02*
X10010658Y-13407508D01*
X10010658Y-13407508D02*
X10020182Y-13417031D01*
X10020182Y-13417031D02*
X10029705Y-13436079D01*
X10029705Y-13436079D02*
X10039229Y-13474174D01*
X10039229Y-13474174D02*
X10039229Y-13521793D01*
X10039229Y-13521793D02*
X10029705Y-13559888D01*
X10029705Y-13559888D02*
X10020182Y-13578936D01*
X10020182Y-13578936D02*
X10010658Y-13588460D01*
X10010658Y-13588460D02*
X9991610Y-13597984D01*
X9991610Y-13597984D02*
X9972563Y-13597984D01*
X9972563Y-13597984D02*
X9953515Y-13588460D01*
X9953515Y-13588460D02*
X9943991Y-13578936D01*
X9943991Y-13578936D02*
X9934467Y-13559888D01*
X9934467Y-13559888D02*
X9924944Y-13521793D01*
X9924944Y-13521793D02*
X9924944Y-13474174D01*
X9924944Y-13474174D02*
X9934467Y-13436079D01*
X9934467Y-13436079D02*
X9943991Y-13417031D01*
X9943991Y-13417031D02*
X9953515Y-13407508D01*
X9953515Y-13407508D02*
X9972563Y-13397984D01*
X10163039Y-13397984D02*
X10182086Y-13397984D01*
X10182086Y-13397984D02*
X10201134Y-13407508D01*
X10201134Y-13407508D02*
X10210658Y-13417031D01*
X10210658Y-13417031D02*
X10220182Y-13436079D01*
X10220182Y-13436079D02*
X10229705Y-13474174D01*
X10229705Y-13474174D02*
X10229705Y-13521793D01*
X10229705Y-13521793D02*
X10220182Y-13559888D01*
X10220182Y-13559888D02*
X10210658Y-13578936D01*
X10210658Y-13578936D02*
X10201134Y-13588460D01*
X10201134Y-13588460D02*
X10182086Y-13597984D01*
X10182086Y-13597984D02*
X10163039Y-13597984D01*
X10163039Y-13597984D02*
X10143991Y-13588460D01*
X10143991Y-13588460D02*
X10134467Y-13578936D01*
X10134467Y-13578936D02*
X10124944Y-13559888D01*
X10124944Y-13559888D02*
X10115420Y-13521793D01*
X10115420Y-13521793D02*
X10115420Y-13474174D01*
X10115420Y-13474174D02*
X10124944Y-13436079D01*
X10124944Y-13436079D02*
X10134467Y-13417031D01*
X10134467Y-13417031D02*
X10143991Y-13407508D01*
X10143991Y-13407508D02*
X10163039Y-13397984D01*
X10315420Y-13597984D02*
X10315420Y-13464650D01*
X10315420Y-13483698D02*
X10324944Y-13474174D01*
X10324944Y-13474174D02*
X10343991Y-13464650D01*
X10343991Y-13464650D02*
X10372563Y-13464650D01*
X10372563Y-13464650D02*
X10391610Y-13474174D01*
X10391610Y-13474174D02*
X10401134Y-13493222D01*
X10401134Y-13493222D02*
X10401134Y-13597984D01*
X10401134Y-13493222D02*
X10410658Y-13474174D01*
X10410658Y-13474174D02*
X10429705Y-13464650D01*
X10429705Y-13464650D02*
X10458277Y-13464650D01*
X10458277Y-13464650D02*
X10477325Y-13474174D01*
X10477325Y-13474174D02*
X10486848Y-13493222D01*
X10486848Y-13493222D02*
X10486848Y-13597984D01*
X10582086Y-13597984D02*
X10582086Y-13464650D01*
X10582086Y-13483698D02*
X10591610Y-13474174D01*
X10591610Y-13474174D02*
X10610658Y-13464650D01*
X10610658Y-13464650D02*
X10639229Y-13464650D01*
X10639229Y-13464650D02*
X10658277Y-13474174D01*
X10658277Y-13474174D02*
X10667801Y-13493222D01*
X10667801Y-13493222D02*
X10667801Y-13597984D01*
X10667801Y-13493222D02*
X10677325Y-13474174D01*
X10677325Y-13474174D02*
X10696372Y-13464650D01*
X10696372Y-13464650D02*
X10724944Y-13464650D01*
X10724944Y-13464650D02*
X10743991Y-13474174D01*
X10743991Y-13474174D02*
X10753515Y-13493222D01*
X10753515Y-13493222D02*
X10753515Y-13597984D01*
X11143991Y-13388460D02*
X10972563Y-13645603D01*
X11401134Y-13397984D02*
X11420182Y-13397984D01*
X11420182Y-13397984D02*
X11439229Y-13407508D01*
X11439229Y-13407508D02*
X11448753Y-13417031D01*
X11448753Y-13417031D02*
X11458277Y-13436079D01*
X11458277Y-13436079D02*
X11467801Y-13474174D01*
X11467801Y-13474174D02*
X11467801Y-13521793D01*
X11467801Y-13521793D02*
X11458277Y-13559888D01*
X11458277Y-13559888D02*
X11448753Y-13578936D01*
X11448753Y-13578936D02*
X11439229Y-13588460D01*
X11439229Y-13588460D02*
X11420182Y-13597984D01*
X11420182Y-13597984D02*
X11401134Y-13597984D01*
X11401134Y-13597984D02*
X11382086Y-13588460D01*
X11382086Y-13588460D02*
X11372563Y-13578936D01*
X11372563Y-13578936D02*
X11363039Y-13559888D01*
X11363039Y-13559888D02*
X11353515Y-13521793D01*
X11353515Y-13521793D02*
X11353515Y-13474174D01*
X11353515Y-13474174D02*
X11363039Y-13436079D01*
X11363039Y-13436079D02*
X11372563Y-13417031D01*
X11372563Y-13417031D02*
X11382086Y-13407508D01*
X11382086Y-13407508D02*
X11401134Y-13397984D01*
X11553515Y-13578936D02*
X11563039Y-13588460D01*
X11563039Y-13588460D02*
X11553515Y-13597984D01*
X11553515Y-13597984D02*
X11543991Y-13588460D01*
X11543991Y-13588460D02*
X11553515Y-13578936D01*
X11553515Y-13578936D02*
X11553515Y-13597984D01*
X11686848Y-13397984D02*
X11705896Y-13397984D01*
X11705896Y-13397984D02*
X11724944Y-13407508D01*
X11724944Y-13407508D02*
X11734467Y-13417031D01*
X11734467Y-13417031D02*
X11743991Y-13436079D01*
X11743991Y-13436079D02*
X11753515Y-13474174D01*
X11753515Y-13474174D02*
X11753515Y-13521793D01*
X11753515Y-13521793D02*
X11743991Y-13559888D01*
X11743991Y-13559888D02*
X11734467Y-13578936D01*
X11734467Y-13578936D02*
X11724944Y-13588460D01*
X11724944Y-13588460D02*
X11705896Y-13597984D01*
X11705896Y-13597984D02*
X11686848Y-13597984D01*
X11686848Y-13597984D02*
X11667801Y-13588460D01*
X11667801Y-13588460D02*
X11658277Y-13578936D01*
X11658277Y-13578936D02*
X11648753Y-13559888D01*
X11648753Y-13559888D02*
X11639229Y-13521793D01*
X11639229Y-13521793D02*
X11639229Y-13474174D01*
X11639229Y-13474174D02*
X11648753Y-13436079D01*
X11648753Y-13436079D02*
X11658277Y-13417031D01*
X11658277Y-13417031D02*
X11667801Y-13407508D01*
X11667801Y-13407508D02*
X11686848Y-13397984D01*
X11848753Y-13597984D02*
X11886848Y-13597984D01*
X11886848Y-13597984D02*
X11905896Y-13588460D01*
X11905896Y-13588460D02*
X11915420Y-13578936D01*
X11915420Y-13578936D02*
X11934467Y-13550365D01*
X11934467Y-13550365D02*
X11943991Y-13512269D01*
X11943991Y-13512269D02*
X11943991Y-13436079D01*
X11943991Y-13436079D02*
X11934467Y-13417031D01*
X11934467Y-13417031D02*
X11924944Y-13407508D01*
X11924944Y-13407508D02*
X11905896Y-13397984D01*
X11905896Y-13397984D02*
X11867801Y-13397984D01*
X11867801Y-13397984D02*
X11848753Y-13407508D01*
X11848753Y-13407508D02*
X11839229Y-13417031D01*
X11839229Y-13417031D02*
X11829706Y-13436079D01*
X11829706Y-13436079D02*
X11829706Y-13483698D01*
X11829706Y-13483698D02*
X11839229Y-13502746D01*
X11839229Y-13502746D02*
X11848753Y-13512269D01*
X11848753Y-13512269D02*
X11867801Y-13521793D01*
X11867801Y-13521793D02*
X11905896Y-13521793D01*
X11905896Y-13521793D02*
X11924944Y-13512269D01*
X11924944Y-13512269D02*
X11934467Y-13502746D01*
X11934467Y-13502746D02*
X11943991Y-13483698D01*
X12067801Y-13397984D02*
X12086848Y-13397984D01*
X12086848Y-13397984D02*
X12105896Y-13407508D01*
X12105896Y-13407508D02*
X12115420Y-13417031D01*
X12115420Y-13417031D02*
X12124944Y-13436079D01*
X12124944Y-13436079D02*
X12134467Y-13474174D01*
X12134467Y-13474174D02*
X12134467Y-13521793D01*
X12134467Y-13521793D02*
X12124944Y-13559888D01*
X12124944Y-13559888D02*
X12115420Y-13578936D01*
X12115420Y-13578936D02*
X12105896Y-13588460D01*
X12105896Y-13588460D02*
X12086848Y-13597984D01*
X12086848Y-13597984D02*
X12067801Y-13597984D01*
X12067801Y-13597984D02*
X12048753Y-13588460D01*
X12048753Y-13588460D02*
X12039229Y-13578936D01*
X12039229Y-13578936D02*
X12029706Y-13559888D01*
X12029706Y-13559888D02*
X12020182Y-13521793D01*
X12020182Y-13521793D02*
X12020182Y-13474174D01*
X12020182Y-13474174D02*
X12029706Y-13436079D01*
X12029706Y-13436079D02*
X12039229Y-13417031D01*
X12039229Y-13417031D02*
X12048753Y-13407508D01*
X12048753Y-13407508D02*
X12067801Y-13397984D01*
X12305896Y-13397984D02*
X12267801Y-13397984D01*
X12267801Y-13397984D02*
X12248753Y-13407508D01*
X12248753Y-13407508D02*
X12239229Y-13417031D01*
X12239229Y-13417031D02*
X12220182Y-13445603D01*
X12220182Y-13445603D02*
X12210658Y-13483698D01*
X12210658Y-13483698D02*
X12210658Y-13559888D01*
X12210658Y-13559888D02*
X12220182Y-13578936D01*
X12220182Y-13578936D02*
X12229706Y-13588460D01*
X12229706Y-13588460D02*
X12248753Y-13597984D01*
X12248753Y-13597984D02*
X12286848Y-13597984D01*
X12286848Y-13597984D02*
X12305896Y-13588460D01*
X12305896Y-13588460D02*
X12315420Y-13578936D01*
X12315420Y-13578936D02*
X12324944Y-13559888D01*
X12324944Y-13559888D02*
X12324944Y-13512269D01*
X12324944Y-13512269D02*
X12315420Y-13493222D01*
X12315420Y-13493222D02*
X12305896Y-13483698D01*
X12305896Y-13483698D02*
X12286848Y-13474174D01*
X12286848Y-13474174D02*
X12248753Y-13474174D01*
X12248753Y-13474174D02*
X12229706Y-13483698D01*
X12229706Y-13483698D02*
X12220182Y-13493222D01*
X12220182Y-13493222D02*
X12210658Y-13512269D01*
X12401134Y-13397984D02*
X12401134Y-13436079D01*
X12477325Y-13397984D02*
X12477325Y-13436079D01*
X12772563Y-13674174D02*
X12763039Y-13664650D01*
X12763039Y-13664650D02*
X12743991Y-13636079D01*
X12743991Y-13636079D02*
X12734468Y-13617031D01*
X12734468Y-13617031D02*
X12724944Y-13588460D01*
X12724944Y-13588460D02*
X12715420Y-13540841D01*
X12715420Y-13540841D02*
X12715420Y-13502746D01*
X12715420Y-13502746D02*
X12724944Y-13455127D01*
X12724944Y-13455127D02*
X12734468Y-13426555D01*
X12734468Y-13426555D02*
X12743991Y-13407508D01*
X12743991Y-13407508D02*
X12763039Y-13378936D01*
X12763039Y-13378936D02*
X12772563Y-13369412D01*
X12839229Y-13417031D02*
X12848753Y-13407508D01*
X12848753Y-13407508D02*
X12867801Y-13397984D01*
X12867801Y-13397984D02*
X12915420Y-13397984D01*
X12915420Y-13397984D02*
X12934468Y-13407508D01*
X12934468Y-13407508D02*
X12943991Y-13417031D01*
X12943991Y-13417031D02*
X12953515Y-13436079D01*
X12953515Y-13436079D02*
X12953515Y-13455127D01*
X12953515Y-13455127D02*
X12943991Y-13483698D01*
X12943991Y-13483698D02*
X12829706Y-13597984D01*
X12829706Y-13597984D02*
X12953515Y-13597984D01*
X13191610Y-13597984D02*
X13191610Y-13397984D01*
X13277325Y-13597984D02*
X13277325Y-13493222D01*
X13277325Y-13493222D02*
X13267801Y-13474174D01*
X13267801Y-13474174D02*
X13248753Y-13464650D01*
X13248753Y-13464650D02*
X13220182Y-13464650D01*
X13220182Y-13464650D02*
X13201134Y-13474174D01*
X13201134Y-13474174D02*
X13191610Y-13483698D01*
X13401134Y-13597984D02*
X13382087Y-13588460D01*
X13382087Y-13588460D02*
X13372563Y-13578936D01*
X13372563Y-13578936D02*
X13363039Y-13559888D01*
X13363039Y-13559888D02*
X13363039Y-13502746D01*
X13363039Y-13502746D02*
X13372563Y-13483698D01*
X13372563Y-13483698D02*
X13382087Y-13474174D01*
X13382087Y-13474174D02*
X13401134Y-13464650D01*
X13401134Y-13464650D02*
X13429706Y-13464650D01*
X13429706Y-13464650D02*
X13448753Y-13474174D01*
X13448753Y-13474174D02*
X13458277Y-13483698D01*
X13458277Y-13483698D02*
X13467801Y-13502746D01*
X13467801Y-13502746D02*
X13467801Y-13559888D01*
X13467801Y-13559888D02*
X13458277Y-13578936D01*
X13458277Y-13578936D02*
X13448753Y-13588460D01*
X13448753Y-13588460D02*
X13429706Y-13597984D01*
X13429706Y-13597984D02*
X13401134Y-13597984D01*
X13582087Y-13597984D02*
X13563039Y-13588460D01*
X13563039Y-13588460D02*
X13553515Y-13569412D01*
X13553515Y-13569412D02*
X13553515Y-13397984D01*
X13734468Y-13588460D02*
X13715420Y-13597984D01*
X13715420Y-13597984D02*
X13677325Y-13597984D01*
X13677325Y-13597984D02*
X13658277Y-13588460D01*
X13658277Y-13588460D02*
X13648753Y-13569412D01*
X13648753Y-13569412D02*
X13648753Y-13493222D01*
X13648753Y-13493222D02*
X13658277Y-13474174D01*
X13658277Y-13474174D02*
X13677325Y-13464650D01*
X13677325Y-13464650D02*
X13715420Y-13464650D01*
X13715420Y-13464650D02*
X13734468Y-13474174D01*
X13734468Y-13474174D02*
X13743991Y-13493222D01*
X13743991Y-13493222D02*
X13743991Y-13512269D01*
X13743991Y-13512269D02*
X13648753Y-13531317D01*
X13820182Y-13588460D02*
X13839230Y-13597984D01*
X13839230Y-13597984D02*
X13877325Y-13597984D01*
X13877325Y-13597984D02*
X13896372Y-13588460D01*
X13896372Y-13588460D02*
X13905896Y-13569412D01*
X13905896Y-13569412D02*
X13905896Y-13559888D01*
X13905896Y-13559888D02*
X13896372Y-13540841D01*
X13896372Y-13540841D02*
X13877325Y-13531317D01*
X13877325Y-13531317D02*
X13848753Y-13531317D01*
X13848753Y-13531317D02*
X13829706Y-13521793D01*
X13829706Y-13521793D02*
X13820182Y-13502746D01*
X13820182Y-13502746D02*
X13820182Y-13493222D01*
X13820182Y-13493222D02*
X13829706Y-13474174D01*
X13829706Y-13474174D02*
X13848753Y-13464650D01*
X13848753Y-13464650D02*
X13877325Y-13464650D01*
X13877325Y-13464650D02*
X13896372Y-13474174D01*
X13972563Y-13674174D02*
X13982087Y-13664650D01*
X13982087Y-13664650D02*
X14001134Y-13636079D01*
X14001134Y-13636079D02*
X14010658Y-13617031D01*
X14010658Y-13617031D02*
X14020182Y-13588460D01*
X14020182Y-13588460D02*
X14029706Y-13540841D01*
X14029706Y-13540841D02*
X14029706Y-13502746D01*
X14029706Y-13502746D02*
X14020182Y-13455127D01*
X14020182Y-13455127D02*
X14010658Y-13426555D01*
X14010658Y-13426555D02*
X14001134Y-13407508D01*
X14001134Y-13407508D02*
X13982087Y-13378936D01*
X13982087Y-13378936D02*
X13972563Y-13369412D01*
M02*
