G04 #@! TF.GenerationSoftware,KiCad,Pcbnew,9.0.2*
G04 #@! TF.CreationDate,2025-06-21T10:43:41+02:00*
G04 #@! TF.ProjectId,conndom,636f6e6e-646f-46d2-9e6b-696361645f70,0.2*
G04 #@! TF.SameCoordinates,Original*
G04 #@! TF.FileFunction,Copper,L2,Bot*
G04 #@! TF.FilePolarity,Positive*
%FSLAX46Y46*%
G04 Gerber Fmt 4.6, Leading zero omitted, Abs format (unit mm)*
G04 Created by KiCad (PCBNEW 9.0.2) date 2025-06-21 10:43:41*
%MOMM*%
%LPD*%
G01*
G04 APERTURE LIST*
G04 #@! TA.AperFunction,ComponentPad*
%ADD10R,1.408000X1.408000*%
G04 #@! TD*
G04 #@! TA.AperFunction,ComponentPad*
%ADD11C,1.408000*%
G04 #@! TD*
G04 #@! TA.AperFunction,ComponentPad*
%ADD12C,3.316000*%
G04 #@! TD*
G04 #@! TA.AperFunction,ComponentPad*
%ADD13C,1.700000*%
G04 #@! TD*
G04 #@! TA.AperFunction,ComponentPad*
%ADD14C,2.000000*%
G04 #@! TD*
G04 #@! TA.AperFunction,ComponentPad*
%ADD15O,1.600000X1.000000*%
G04 #@! TD*
G04 #@! TA.AperFunction,ComponentPad*
%ADD16R,1.508000X1.508000*%
G04 #@! TD*
G04 #@! TA.AperFunction,ComponentPad*
%ADD17C,1.508000*%
G04 #@! TD*
G04 #@! TA.AperFunction,ViaPad*
%ADD18C,1.000000*%
G04 #@! TD*
G04 #@! TA.AperFunction,ViaPad*
%ADD19C,0.700000*%
G04 #@! TD*
G04 #@! TA.AperFunction,Conductor*
%ADD20C,0.600000*%
G04 #@! TD*
G04 #@! TA.AperFunction,Conductor*
%ADD21C,0.400000*%
G04 #@! TD*
G04 APERTURE END LIST*
D10*
X159600000Y-104300000D03*
D11*
X159600000Y-101800000D03*
X159600000Y-99800000D03*
X159600000Y-97300000D03*
D12*
X162270000Y-105800000D03*
X162270000Y-95800000D03*
D13*
X134450000Y-108080000D03*
X148630000Y-84770000D03*
D14*
X108450000Y-87560000D03*
D15*
X180400000Y-91320000D03*
X184200000Y-91320000D03*
X180400000Y-82680000D03*
X184200000Y-82680000D03*
D13*
X138470000Y-82230000D03*
D14*
X146100000Y-106310000D03*
D13*
X148630000Y-82230000D03*
D14*
X145790000Y-103700000D03*
D16*
X163600000Y-83750000D03*
D17*
X163600000Y-90250000D03*
X159100000Y-83750000D03*
X159100000Y-90250000D03*
D13*
X132320000Y-108080000D03*
D18*
X161450000Y-83250000D03*
X157000000Y-87100000D03*
X178500000Y-88600000D03*
X178500000Y-85400000D03*
D19*
X157150000Y-100400000D03*
D18*
X166750000Y-81700000D03*
D20*
X159320000Y-108750000D02*
X148540000Y-108750000D01*
X159800000Y-86200000D02*
X161000000Y-85000000D01*
X161000000Y-83700000D02*
X161450000Y-83250000D01*
X157000000Y-86200000D02*
X159800000Y-86200000D01*
X161000000Y-85000000D02*
X161000000Y-83700000D01*
X157000000Y-86200000D02*
X157000000Y-87100000D01*
X148630000Y-84770000D02*
X150060000Y-86200000D01*
X162270000Y-105800000D02*
X159320000Y-108750000D01*
X150060000Y-86200000D02*
X157000000Y-86200000D01*
X148540000Y-108750000D02*
X146100000Y-106310000D01*
X154850000Y-87150000D02*
X144150000Y-87150000D01*
X163560000Y-87560000D02*
X162720000Y-88400000D01*
X163600000Y-87600000D02*
X163560000Y-87560000D01*
X144150000Y-87150000D02*
X141350000Y-84350000D01*
X163600000Y-83750000D02*
X163600000Y-87600000D01*
X111660000Y-84350000D02*
X108450000Y-87560000D01*
X141350000Y-84350000D02*
X111660000Y-84350000D01*
X163600000Y-87600000D02*
X163600000Y-90250000D01*
X156100000Y-88400000D02*
X154850000Y-87150000D01*
X162720000Y-88400000D02*
X156100000Y-88400000D01*
X177050000Y-86850000D02*
X177050000Y-90050000D01*
X177050000Y-90050000D02*
X178500000Y-88600000D01*
X157000000Y-104300000D02*
X159600000Y-104300000D01*
X178500000Y-85400000D02*
X177050000Y-86850000D01*
X175950000Y-91150000D02*
X177050000Y-90050000D01*
X156400000Y-103700000D02*
X157000000Y-104300000D01*
X172750000Y-91150000D02*
X175950000Y-91150000D01*
X145790000Y-103700000D02*
X156400000Y-103700000D01*
X159600000Y-104300000D02*
X172750000Y-91150000D01*
D21*
X144900000Y-101600000D02*
X140700000Y-105800000D01*
X159600000Y-99800000D02*
X157800000Y-101600000D01*
X136730000Y-105800000D02*
X134450000Y-108080000D01*
X140700000Y-105800000D02*
X136730000Y-105800000D01*
X157800000Y-101600000D02*
X144900000Y-101600000D01*
X135450000Y-104950000D02*
X140300000Y-104950000D01*
X140300000Y-104950000D02*
X144850000Y-100400000D01*
X144850000Y-100400000D02*
X157150000Y-100400000D01*
X132320000Y-108080000D02*
X135450000Y-104950000D01*
X159100000Y-83750000D02*
X156550000Y-81200000D01*
X156550000Y-81200000D02*
X149660000Y-81200000D01*
X149660000Y-81200000D02*
X148630000Y-82230000D01*
X140200000Y-80500000D02*
X164550000Y-80500000D01*
X165550000Y-80500000D02*
X166750000Y-81700000D01*
X164550000Y-80500000D02*
X165550000Y-80500000D01*
X138470000Y-82230000D02*
X140200000Y-80500000D01*
M02*
