G04 #@! TF.GenerationSoftware,KiCad,Pcbnew,9.0.2*
G04 #@! TF.CreationDate,2025-06-21T10:43:41+02:00*
G04 #@! TF.ProjectId,conndom,636f6e6e-646f-46d2-9e6b-696361645f70,0.2*
G04 #@! TF.SameCoordinates,Original*
G04 #@! TF.FileFunction,Copper,L1,Top*
G04 #@! TF.FilePolarity,Positive*
%FSLAX46Y46*%
G04 Gerber Fmt 4.6, Leading zero omitted, Abs format (unit mm)*
G04 Created by KiCad (PCBNEW 9.0.2) date 2025-06-21 10:43:41*
%MOMM*%
%LPD*%
G01*
G04 APERTURE LIST*
G04 Aperture macros list*
%AMRoundRect*
0 Rectangle with rounded corners*
0 $1 Rounding radius*
0 $2 $3 $4 $5 $6 $7 $8 $9 X,Y pos of 4 corners*
0 Add a 4 corners polygon primitive as box body*
4,1,4,$2,$3,$4,$5,$6,$7,$8,$9,$2,$3,0*
0 Add four circle primitives for the rounded corners*
1,1,$1+$1,$2,$3*
1,1,$1+$1,$4,$5*
1,1,$1+$1,$6,$7*
1,1,$1+$1,$8,$9*
0 Add four rect primitives between the rounded corners*
20,1,$1+$1,$2,$3,$4,$5,0*
20,1,$1+$1,$4,$5,$6,$7,0*
20,1,$1+$1,$6,$7,$8,$9,0*
20,1,$1+$1,$8,$9,$2,$3,0*%
G04 Aperture macros list end*
G04 #@! TA.AperFunction,SMDPad,CuDef*
%ADD10RoundRect,0.250000X0.450000X-0.262500X0.450000X0.262500X-0.450000X0.262500X-0.450000X-0.262500X0*%
G04 #@! TD*
G04 #@! TA.AperFunction,SMDPad,CuDef*
%ADD11RoundRect,0.250000X0.262500X0.450000X-0.262500X0.450000X-0.262500X-0.450000X0.262500X-0.450000X0*%
G04 #@! TD*
G04 #@! TA.AperFunction,ComponentPad*
%ADD12R,1.408000X1.408000*%
G04 #@! TD*
G04 #@! TA.AperFunction,ComponentPad*
%ADD13C,1.408000*%
G04 #@! TD*
G04 #@! TA.AperFunction,ComponentPad*
%ADD14C,3.316000*%
G04 #@! TD*
G04 #@! TA.AperFunction,ComponentPad*
%ADD15C,1.700000*%
G04 #@! TD*
G04 #@! TA.AperFunction,ComponentPad*
%ADD16C,2.000000*%
G04 #@! TD*
G04 #@! TA.AperFunction,SMDPad,CuDef*
%ADD17R,1.400000X0.700000*%
G04 #@! TD*
G04 #@! TA.AperFunction,SMDPad,CuDef*
%ADD18R,1.400000X0.760000*%
G04 #@! TD*
G04 #@! TA.AperFunction,SMDPad,CuDef*
%ADD19R,1.400000X0.800000*%
G04 #@! TD*
G04 #@! TA.AperFunction,ComponentPad*
%ADD20O,1.600000X1.000000*%
G04 #@! TD*
G04 #@! TA.AperFunction,SMDPad,CuDef*
%ADD21RoundRect,0.250000X0.250000X0.475000X-0.250000X0.475000X-0.250000X-0.475000X0.250000X-0.475000X0*%
G04 #@! TD*
G04 #@! TA.AperFunction,SMDPad,CuDef*
%ADD22RoundRect,0.250000X-0.450000X0.262500X-0.450000X-0.262500X0.450000X-0.262500X0.450000X0.262500X0*%
G04 #@! TD*
G04 #@! TA.AperFunction,ComponentPad*
%ADD23R,1.508000X1.508000*%
G04 #@! TD*
G04 #@! TA.AperFunction,ComponentPad*
%ADD24C,1.508000*%
G04 #@! TD*
G04 #@! TA.AperFunction,SMDPad,CuDef*
%ADD25R,1.000000X1.500000*%
G04 #@! TD*
G04 #@! TA.AperFunction,ViaPad*
%ADD26C,1.000000*%
G04 #@! TD*
G04 #@! TA.AperFunction,ViaPad*
%ADD27C,0.700000*%
G04 #@! TD*
G04 #@! TA.AperFunction,Conductor*
%ADD28C,0.600000*%
G04 #@! TD*
G04 #@! TA.AperFunction,Conductor*
%ADD29C,0.400000*%
G04 #@! TD*
G04 APERTURE END LIST*
D10*
X176900000Y-86025000D03*
X176900000Y-84200000D03*
D11*
X162212500Y-81550000D03*
X160387500Y-81550000D03*
D12*
X159600000Y-104300000D03*
D13*
X159600000Y-101800000D03*
X159600000Y-99800000D03*
X159600000Y-97300000D03*
D14*
X162270000Y-105800000D03*
X162270000Y-95800000D03*
D15*
X134450000Y-108080000D03*
X148630000Y-84770000D03*
D16*
X108450000Y-87560000D03*
D17*
X180110000Y-87500000D03*
D18*
X180110000Y-85480000D03*
D19*
X180110000Y-84250000D03*
D17*
X180110000Y-86500000D03*
D18*
X180110000Y-88520000D03*
D19*
X180110000Y-89750000D03*
D20*
X180400000Y-91320000D03*
X184200000Y-91320000D03*
X180400000Y-82680000D03*
X184200000Y-82680000D03*
D15*
X138470000Y-82230000D03*
D16*
X146100000Y-106310000D03*
D15*
X148630000Y-82230000D03*
D21*
X172650000Y-91900000D03*
X170750000Y-91900000D03*
D16*
X145790000Y-103700000D03*
D22*
X176900000Y-87975000D03*
X176900000Y-89800000D03*
D23*
X163600000Y-83750000D03*
D24*
X163600000Y-90250000D03*
X159100000Y-83750000D03*
X159100000Y-90250000D03*
D15*
X132320000Y-108080000D03*
D22*
X166750000Y-86125000D03*
X166750000Y-87950000D03*
D25*
X173344500Y-84550000D03*
X170144500Y-84550000D03*
X170144500Y-89450000D03*
X173344500Y-89450000D03*
D26*
X161450000Y-83250000D03*
X157000000Y-87100000D03*
X178500000Y-88600000D03*
X178500000Y-85400000D03*
D27*
X157150000Y-100400000D03*
D26*
X166750000Y-81700000D03*
D28*
X176900000Y-84200000D02*
X173694500Y-84200000D01*
X172650000Y-91900000D02*
X172650000Y-92650000D01*
X162270000Y-95800000D02*
X161100000Y-95800000D01*
X162250000Y-82450000D02*
X162250000Y-81587500D01*
X180110000Y-89750000D02*
X176950000Y-89750000D01*
X157750000Y-92450000D02*
X158920000Y-92450000D01*
X180110000Y-82970000D02*
X180400000Y-82680000D01*
X184200000Y-82680000D02*
X184200000Y-91320000D01*
X173694500Y-84200000D02*
X173344500Y-84550000D01*
X180110000Y-84250000D02*
X180110000Y-82970000D01*
X180110000Y-91030000D02*
X180400000Y-91320000D01*
X176950000Y-89750000D02*
X176900000Y-89800000D01*
X157000000Y-87100000D02*
X157000000Y-91700000D01*
X172650000Y-92650000D02*
X169500000Y-95800000D01*
X157000000Y-91700000D02*
X157750000Y-92450000D01*
X176950000Y-84250000D02*
X176900000Y-84200000D01*
X158920000Y-92450000D02*
X162270000Y-95800000D01*
X176900000Y-89800000D02*
X174800000Y-91900000D01*
X180400000Y-82680000D02*
X184200000Y-82680000D01*
X180110000Y-89750000D02*
X180110000Y-91030000D01*
X162250000Y-81587500D02*
X162212500Y-81550000D01*
X180110000Y-84250000D02*
X176950000Y-84250000D01*
X169500000Y-95800000D02*
X162270000Y-95800000D01*
X161450000Y-83250000D02*
X162250000Y-82450000D01*
X180400000Y-91320000D02*
X184200000Y-91320000D01*
X161100000Y-95800000D02*
X159600000Y-97300000D01*
X174800000Y-91900000D02*
X172650000Y-91900000D01*
X162270000Y-95800000D02*
X162270000Y-105800000D01*
X169344500Y-90250000D02*
X170144500Y-89450000D01*
X163600000Y-90250000D02*
X169344500Y-90250000D01*
X169344500Y-90494500D02*
X169344500Y-90250000D01*
X170750000Y-91900000D02*
X169344500Y-90494500D01*
X170144500Y-86105500D02*
X168300000Y-87950000D01*
X170144500Y-84550000D02*
X170144500Y-86105500D01*
X168300000Y-87950000D02*
X166750000Y-87950000D01*
X176900000Y-86025000D02*
X177375000Y-86500000D01*
X177375000Y-86500000D02*
X180110000Y-86500000D01*
X180110000Y-88520000D02*
X178580000Y-88520000D01*
X178580000Y-85480000D02*
X178500000Y-85400000D01*
X178580000Y-88520000D02*
X178500000Y-88600000D01*
X180110000Y-85480000D02*
X178580000Y-85480000D01*
X177375000Y-87500000D02*
X180110000Y-87500000D01*
X176900000Y-87975000D02*
X177375000Y-87500000D01*
D29*
X157150000Y-100400000D02*
X158200000Y-100400000D01*
X158200000Y-100400000D02*
X159600000Y-101800000D01*
D28*
X160387500Y-81550000D02*
X160387500Y-82462500D01*
X159100000Y-83750000D02*
X159100000Y-90250000D01*
X160387500Y-82462500D02*
X159100000Y-83750000D01*
D29*
X166725000Y-86150000D02*
X166750000Y-86125000D01*
D28*
X166750000Y-86125000D02*
X166750000Y-81700000D01*
M02*
